<?xml version="1.0" encoding="UTF-8" standalone="no"?>
<svg
   width="468pt"
   height="125.71532pt"
   viewBox="0 0 468 125.71532"
   version="1.1"
   id="svg4176"
   sodipodi:docname="figure10.svg"
   inkscape:export-filename="../81d871a8/figure10.tiff"
   inkscape:export-xdpi="300"
   inkscape:export-ydpi="300"
   inkscape:version="1.2.2 (732a01da63, 2022-12-09, custom)"
   xmlns:inkscape="http://www.inkscape.org/namespaces/inkscape"
   xmlns:sodipodi="http://sodipodi.sourceforge.net/DTD/sodipodi-0.dtd"
   xmlns:xlink="http://www.w3.org/1999/xlink"
   xmlns="http://www.w3.org/2000/svg"
   xmlns:svg="http://www.w3.org/2000/svg"
   xmlns:rdf="http://www.w3.org/1999/02/22-rdf-syntax-ns#"
   xmlns:cc="http://creativecommons.org/ns#"
   xmlns:dc="http://purl.org/dc/elements/1.1/">
  <sodipodi:namedview
     id="namedview4178"
     pagecolor="#ffffff"
     bordercolor="#000000"
     borderopacity="0.25"
     inkscape:showpageshadow="2"
     inkscape:pageopacity="0.0"
     inkscape:pagecheckerboard="0"
     inkscape:deskcolor="#d1d1d1"
     inkscape:document-units="pt"
     showgrid="false"
     inkscape:zoom="2.099359"
     inkscape:cx="236.73893"
     inkscape:cy="72.64122"
     inkscape:window-width="2486"
     inkscape:window-height="1376"
     inkscape:window-x="74"
     inkscape:window-y="27"
     inkscape:window-maximized="1"
     inkscape:current-layer="svg4176" />
  <metadata
     id="metadata3820">
    <rdf:RDF>
      <cc:Work>
        <dc:type
           rdf:resource="http://purl.org/dc/dcmitype/StillImage" />
        <dc:date>2023-03-22T13:29:27.034889</dc:date>
        <dc:format>image/svg+xml</dc:format>
        <dc:creator>
          <cc:Agent>
            <dc:title>Matplotlib v3.6.2, https://matplotlib.org/</dc:title>
          </cc:Agent>
        </dc:creator>
      </cc:Work>
    </rdf:RDF>
  </metadata>
  <defs
     id="defs3824">
    <style
       type="text/css"
       id="style3822">*{stroke-linejoin: round; stroke-linecap: butt}</style>
  </defs>
  <g
     id="figure_1">
    <g
       id="patch_1">
      <path
         d="M 0,108 H 468 V 0 H 0 Z"
         style="fill:#ffffff"
         id="path3826" />
    </g>
    <g
       id="axes_1">
      <g
         id="patch_2">
        <path
           d="M 58.5,96.12 H 421.2 V 12.96 H 58.5 Z"
           style="fill:#ffffff"
           id="path3829" />
      </g>
      <g
         id="matplotlib.axis_1">
        <g
           id="xtick_1">
          <g
             id="line2d_1">
            <defs
               id="defs3833">
              <path
                 id="m5f3315b3ec"
                 d="M 0,0 V 3.5"
                 style="stroke:#000000;stroke-width:0.8" />
            </defs>
            <g
               id="g3837">
              <use
                 xlink:href="#m5f3315b3ec"
                 x="58.5"
                 y="96.120003"
                 style="stroke:#000000;stroke-width:0.8"
                 id="use3835" />
            </g>
          </g>
          <g
             id="text_1">
            <!-- 0 -->
            <g
               transform="matrix(0.1,0,0,-0.1,55.31875,110.71844)"
               id="g3845">
              <defs
                 id="defs3841">
                <path
                   id="DejaVuSans-30"
                   d="m 2034,4250 q -487,0 -733,-480 -245,-479 -245,-1442 0,-959 245,-1439 246,-480 733,-480 491,0 736,480 246,480 246,1439 0,963 -246,1442 -245,480 -736,480 z m 0,500 q 785,0 1199,-621 414,-620 414,-1801 0,-1178 -414,-1799 -414,-620 -1199,-620 -784,0 -1198,620 -414,621 -414,1799 0,1181 414,1801 414,621 1198,621 z"
                   transform="scale(0.015625)" />
              </defs>
              <use
                 xlink:href="#DejaVuSans-30"
                 id="use3843" />
            </g>
          </g>
        </g>
        <g
           id="xtick_2">
          <g
             id="line2d_2">
            <g
               id="g3851">
              <use
                 xlink:href="#m5f3315b3ec"
                 x="131.03999"
                 y="96.120003"
                 style="stroke:#000000;stroke-width:0.8"
                 id="use3849" />
            </g>
          </g>
          <g
             id="text_2">
            <!-- 20 -->
            <g
               transform="matrix(0.1,0,0,-0.1,124.6775,110.71844)"
               id="g3861">
              <defs
                 id="defs3855">
                <path
                   id="DejaVuSans-32"
                   d="M 1228,531 H 3431 V 0 H 469 v 531 q 359,372 979,998 621,627 780,809 303,340 423,576 121,236 121,464 0,372 -261,606 -261,235 -680,235 -297,0 -627,-103 -329,-103 -704,-313 v 638 q 381,153 712,231 332,78 607,78 725,0 1156,-363 431,-362 431,-968 0,-288 -108,-546 -107,-257 -392,-607 -78,-91 -497,-524 Q 1991,1309 1228,531 Z"
                   transform="scale(0.015625)" />
              </defs>
              <use
                 xlink:href="#DejaVuSans-32"
                 id="use3857" />
              <use
                 xlink:href="#DejaVuSans-30"
                 x="63.623047"
                 id="use3859" />
            </g>
          </g>
        </g>
        <g
           id="xtick_3">
          <g
             id="line2d_3">
            <g
               id="g3867">
              <use
                 xlink:href="#m5f3315b3ec"
                 x="203.58"
                 y="96.120003"
                 style="stroke:#000000;stroke-width:0.8"
                 id="use3865" />
            </g>
          </g>
          <g
             id="text_3">
            <!-- 40 -->
            <g
               transform="matrix(0.1,0,0,-0.1,197.2175,110.71844)"
               id="g3877">
              <defs
                 id="defs3871">
                <path
                   id="DejaVuSans-34"
                   d="M 2419,4116 825,1625 h 1594 z m -166,550 h 794 V 1625 h 666 V 1100 H 3047 V 0 H 2419 V 1100 H 313 v 609 z"
                   transform="scale(0.015625)" />
              </defs>
              <use
                 xlink:href="#DejaVuSans-34"
                 id="use3873" />
              <use
                 xlink:href="#DejaVuSans-30"
                 x="63.623047"
                 id="use3875" />
            </g>
          </g>
        </g>
        <g
           id="xtick_4">
          <g
             id="line2d_4">
            <g
               id="g3883">
              <use
                 xlink:href="#m5f3315b3ec"
                 x="276.12"
                 y="96.120003"
                 style="stroke:#000000;stroke-width:0.8"
                 id="use3881" />
            </g>
          </g>
          <g
             id="text_4">
            <!-- 60 -->
            <g
               transform="matrix(0.1,0,0,-0.1,269.7575,110.71844)"
               id="g3893">
              <defs
                 id="defs3887">
                <path
                   id="DejaVuSans-36"
                   d="m 2113,2584 q -425,0 -674,-291 -248,-290 -248,-796 0,-503 248,-796 249,-292 674,-292 425,0 673,292 248,293 248,796 0,506 -248,796 -248,291 -673,291 z m 1253,1979 v -575 q -238,112 -480,171 -242,60 -480,60 -625,0 -955,-422 -329,-422 -376,-1275 184,272 462,417 279,145 613,145 703,0 1111,-427 408,-426 408,-1160 0,-719 -425,-1154 -425,-434 -1131,-434 -810,0 -1238,620 -428,621 -428,1799 0,1106 525,1764 525,658 1409,658 238,0 480,-47 242,-47 505,-140 z"
                   transform="scale(0.015625)" />
              </defs>
              <use
                 xlink:href="#DejaVuSans-36"
                 id="use3889" />
              <use
                 xlink:href="#DejaVuSans-30"
                 x="63.623047"
                 id="use3891" />
            </g>
          </g>
        </g>
        <g
           id="xtick_5">
          <g
             id="line2d_5">
            <g
               id="g3899">
              <use
                 xlink:href="#m5f3315b3ec"
                 x="348.66"
                 y="96.120003"
                 style="stroke:#000000;stroke-width:0.8"
                 id="use3897" />
            </g>
          </g>
          <g
             id="text_5">
            <!-- 80 -->
            <g
               transform="matrix(0.1,0,0,-0.1,342.2975,110.71844)"
               id="g3909">
              <defs
                 id="defs3903">
                <path
                   id="DejaVuSans-38"
                   d="m 2034,2216 q -450,0 -708,-241 -257,-241 -257,-662 0,-422 257,-663 258,-241 708,-241 450,0 709,242 260,243 260,662 0,421 -258,662 -257,241 -711,241 z m -631,268 q -406,100 -633,378 -226,279 -226,679 0,559 398,884 399,325 1092,325 697,0 1094,-325 397,-325 397,-884 0,-400 -227,-679 -226,-278 -629,-378 456,-106 710,-416 255,-309 255,-755 Q 3634,634 3220,271 2806,-91 2034,-91 1263,-91 848,271 434,634 434,1313 q 0,446 256,755 257,310 713,416 z m -231,997 q 0,-362 226,-565 227,-203 636,-203 407,0 636,203 230,203 230,565 0,363 -230,566 -229,203 -636,203 -409,0 -636,-203 -226,-203 -226,-566 z"
                   transform="scale(0.015625)" />
              </defs>
              <use
                 xlink:href="#DejaVuSans-38"
                 id="use3905" />
              <use
                 xlink:href="#DejaVuSans-30"
                 x="63.623047"
                 id="use3907" />
            </g>
          </g>
        </g>
        <g
           id="xtick_6">
          <g
             id="line2d_6">
            <g
               id="g3915">
              <use
                 xlink:href="#m5f3315b3ec"
                 x="421.20001"
                 y="96.120003"
                 style="stroke:#000000;stroke-width:0.8"
                 id="use3913" />
            </g>
          </g>
          <g
             id="text_6">
            <!-- 100 -->
            <g
               transform="matrix(0.1,0,0,-0.1,411.65625,110.71844)"
               id="g3927">
              <defs
                 id="defs3919">
                <path
                   id="DejaVuSans-31"
                   d="M 794,531 H 1825 V 4091 L 703,3866 v 575 l 1116,225 h 631 V 531 H 3481 V 0 H 794 Z"
                   transform="scale(0.015625)" />
              </defs>
              <use
                 xlink:href="#DejaVuSans-31"
                 id="use3921" />
              <use
                 xlink:href="#DejaVuSans-30"
                 x="63.623047"
                 id="use3923" />
              <use
                 xlink:href="#DejaVuSans-30"
                 x="127.24609"
                 id="use3925" />
            </g>
          </g>
        </g>
        <g
           id="text_7">
          <!-- time (ms) -->
          <g
             transform="matrix(0.1,0,0,-0.1,215.58828,124.39656)"
             id="g3959">
            <defs
               id="defs3939">
              <path
                 id="DejaVuSans-74"
                 d="M 1172,4494 V 3500 H 2356 V 3053 H 1172 V 1153 q 0,-428 117,-550 117,-122 477,-122 h 590 V 0 H 1766 Q 1100,0 847,248 594,497 594,1153 V 3053 H 172 v 447 h 422 v 994 z"
                 transform="scale(0.015625)" />
              <path
                 id="DejaVuSans-69"
                 d="m 603,3500 h 575 V 0 H 603 Z m 0,1363 h 575 V 4134 H 603 Z"
                 transform="scale(0.015625)" />
              <path
                 id="DejaVuSans-6d"
                 d="m 3328,2828 q 216,388 516,572 300,184 706,184 547,0 844,-383 297,-382 297,-1088 V 0 h -578 v 2094 q 0,503 -179,746 -178,244 -543,244 -447,0 -707,-297 -259,-296 -259,-809 V 0 h -578 v 2094 q 0,506 -178,748 -178,242 -550,242 -441,0 -701,-298 -259,-298 -259,-808 V 0 H 581 v 3500 h 578 v -544 q 197,322 472,475 275,153 653,153 382,0 649,-194 267,-193 395,-562 z"
                 transform="scale(0.015625)" />
              <path
                 id="DejaVuSans-65"
                 d="M 3597,1894 V 1613 H 953 q 38,-594 358,-905 320,-311 892,-311 331,0 642,81 311,81 618,244 V 178 Q 3153,47 2828,-22 2503,-91 2169,-91 1331,-91 842,396 353,884 353,1716 q 0,859 464,1363 464,505 1252,505 706,0 1117,-455 411,-454 411,-1235 z m -575,169 q -6,471 -264,752 -258,282 -683,282 -481,0 -770,-272 -289,-272 -333,-766 z"
                 transform="scale(0.015625)" />
              <path
                 id="DejaVuSans-20"
                 transform="scale(0.015625)"
                 d="" />
              <path
                 id="DejaVuSans-28"
                 d="m 1984,4856 q -418,-718 -622,-1422 -203,-703 -203,-1425 0,-721 205,-1429 205,-708 620,-1424 h -500 q -468,735 -701,1444 -233,709 -233,1409 0,697 231,1403 232,707 703,1444 z"
                 transform="scale(0.015625)" />
              <path
                 id="DejaVuSans-73"
                 d="m 2834,3397 v -544 q -243,125 -506,187 -262,63 -544,63 -428,0 -642,-131 -214,-131 -214,-394 0,-200 153,-314 153,-114 616,-217 l 197,-44 q 612,-131 870,-370 258,-239 258,-667 0,-488 -386,-773 Q 2250,-91 1575,-91 1294,-91 989,-36 684,19 347,128 v 594 q 319,-166 628,-249 309,-82 613,-82 406,0 624,139 219,139 219,392 0,234 -158,359 -157,125 -692,241 l -200,47 q -534,112 -772,345 -237,233 -237,639 0,494 350,762 350,269 994,269 318,0 599,-47 282,-46 519,-140 z"
                 transform="scale(0.015625)" />
              <path
                 id="DejaVuSans-29"
                 d="m 513,4856 h 500 q 468,-737 701,-1444 233,-706 233,-1403 0,-700 -233,-1409 -233,-709 -701,-1444 H 513 q 415,716 620,1424 205,708 205,1429 0,722 -205,1425 -205,704 -620,1422 z"
                 transform="scale(0.015625)" />
            </defs>
            <use
               xlink:href="#DejaVuSans-74"
               id="use3941" />
            <use
               xlink:href="#DejaVuSans-69"
               x="39.208984"
               id="use3943" />
            <use
               xlink:href="#DejaVuSans-6d"
               x="66.992188"
               id="use3945" />
            <use
               xlink:href="#DejaVuSans-65"
               x="164.4043"
               id="use3947" />
            <use
               xlink:href="#DejaVuSans-20"
               x="225.92773"
               id="use3949" />
            <use
               xlink:href="#DejaVuSans-28"
               x="257.71484"
               id="use3951" />
            <use
               xlink:href="#DejaVuSans-6d"
               x="296.72852"
               id="use3953" />
            <use
               xlink:href="#DejaVuSans-73"
               x="394.14062"
               id="use3955" />
            <use
               xlink:href="#DejaVuSans-29"
               x="446.24023"
               id="use3957" />
          </g>
        </g>
      </g>
      <g
         id="matplotlib.axis_2">
        <g
           id="ytick_1">
          <g
             id="line2d_7">
            <defs
               id="defs3964">
              <path
                 id="mf946b00592"
                 d="M 0,0 H -3.5"
                 style="stroke:#000000;stroke-width:0.8" />
            </defs>
            <g
               id="g3968">
              <use
                 xlink:href="#mf946b00592"
                 x="58.5"
                 y="92.50943"
                 style="stroke:#000000;stroke-width:0.8"
                 id="use3966" />
            </g>
          </g>
          <g
             id="text_8">
            <!-- 0 -->
            <g
               transform="matrix(0.1,0,0,-0.1,45.1375,96.30865)"
               id="g3973">
              <use
                 xlink:href="#DejaVuSans-30"
                 id="use3971" />
            </g>
          </g>
        </g>
        <g
           id="ytick_2">
          <g
             id="line2d_8">
            <g
               id="g3979">
              <use
                 xlink:href="#mf946b00592"
                 x="58.5"
                 y="53.829834"
                 style="stroke:#000000;stroke-width:0.8"
                 id="use3977" />
            </g>
          </g>
          <g
             id="text_9">
            <!-- 10 -->
            <g
               transform="matrix(0.1,0,0,-0.1,38.775,57.629052)"
               id="g3986">
              <use
                 xlink:href="#DejaVuSans-31"
                 id="use3982" />
              <use
                 xlink:href="#DejaVuSans-30"
                 x="63.623047"
                 id="use3984" />
            </g>
          </g>
        </g>
        <g
           id="ytick_3">
          <g
             id="line2d_9">
            <g
               id="g3992">
              <use
                 xlink:href="#mf946b00592"
                 x="58.5"
                 y="15.150235"
                 style="stroke:#000000;stroke-width:0.8"
                 id="use3990" />
            </g>
          </g>
          <g
             id="text_10">
            <!-- 20 -->
            <g
               transform="matrix(0.1,0,0,-0.1,38.775,18.949454)"
               id="g3999">
              <use
                 xlink:href="#DejaVuSans-32"
                 id="use3995" />
              <use
                 xlink:href="#DejaVuSans-30"
                 x="63.623047"
                 id="use3997" />
            </g>
          </g>
        </g>
        <g
           id="text_11">
          <!-- Vm reconstruction -->
          <g
             transform="matrix(0,-0.1,-0.1,0,21.4975,100.53219)"
             id="g4045">
            <defs
               id="defs4009">
              <path
                 id="DejaVuSans-56"
                 d="M 1831,0 50,4666 H 709 L 2188,738 3669,4666 h 656 L 2547,0 Z"
                 transform="scale(0.015625)" />
              <path
                 id="DejaVuSans-72"
                 d="m 2631,2963 q -97,56 -211,82 -114,27 -251,27 -488,0 -749,-317 -261,-317 -261,-911 V 0 H 581 v 3500 h 578 v -544 q 182,319 472,473 291,155 707,155 59,0 131,-8 72,-7 159,-23 z"
                 transform="scale(0.015625)" />
              <path
                 id="DejaVuSans-63"
                 d="m 3122,3366 v -538 q -244,135 -489,202 -245,67 -495,67 -560,0 -870,-355 -309,-354 -309,-995 0,-641 309,-996 310,-354 870,-354 250,0 495,67 245,67 489,202 V 134 Q 2881,22 2623,-34 2366,-91 2075,-91 1284,-91 818,406 353,903 353,1747 q 0,856 470,1346 471,491 1290,491 265,0 518,-55 253,-54 491,-163 z"
                 transform="scale(0.015625)" />
              <path
                 id="DejaVuSans-6f"
                 d="m 1959,3097 q -462,0 -731,-361 -269,-361 -269,-989 0,-628 267,-989 268,-361 733,-361 460,0 728,362 269,363 269,988 0,622 -269,986 -268,364 -728,364 z m 0,487 q 750,0 1178,-488 429,-487 429,-1349 Q 3566,888 3137,398 2709,-91 1959,-91 1206,-91 779,398 353,888 353,1747 q 0,862 426,1349 427,488 1180,488 z"
                 transform="scale(0.015625)" />
              <path
                 id="DejaVuSans-6e"
                 d="M 3513,2113 V 0 h -575 v 2094 q 0,497 -194,743 -194,247 -581,247 -466,0 -735,-297 -269,-296 -269,-809 V 0 H 581 v 3500 h 578 v -544 q 207,316 486,472 280,156 646,156 603,0 912,-373 310,-373 310,-1098 z"
                 transform="scale(0.015625)" />
              <path
                 id="DejaVuSans-75"
                 d="m 544,1381 v 2119 h 575 V 1403 q 0,-497 193,-746 194,-248 582,-248 465,0 735,297 271,297 271,810 v 1984 h 575 V 0 H 2900 V 538 Q 2691,219 2414,64 2138,-91 1772,-91 1169,-91 856,284 544,659 544,1381 Z m 1447,2203 z"
                 transform="scale(0.015625)" />
            </defs>
            <use
               xlink:href="#DejaVuSans-56"
               id="use4011" />
            <use
               xlink:href="#DejaVuSans-6d"
               x="68.408203"
               id="use4013" />
            <use
               xlink:href="#DejaVuSans-20"
               x="165.82031"
               id="use4015" />
            <use
               xlink:href="#DejaVuSans-72"
               x="197.60742"
               id="use4017" />
            <use
               xlink:href="#DejaVuSans-65"
               x="236.4707"
               id="use4019" />
            <use
               xlink:href="#DejaVuSans-63"
               x="297.99414"
               id="use4021" />
            <use
               xlink:href="#DejaVuSans-6f"
               x="352.97461"
               id="use4023" />
            <use
               xlink:href="#DejaVuSans-6e"
               x="414.15625"
               id="use4025" />
            <use
               xlink:href="#DejaVuSans-73"
               x="477.53516"
               id="use4027" />
            <use
               xlink:href="#DejaVuSans-74"
               x="529.63477"
               id="use4029" />
            <use
               xlink:href="#DejaVuSans-72"
               x="568.84375"
               id="use4031" />
            <use
               xlink:href="#DejaVuSans-75"
               x="609.95703"
               id="use4033" />
            <use
               xlink:href="#DejaVuSans-63"
               x="673.33594"
               id="use4035" />
            <use
               xlink:href="#DejaVuSans-74"
               x="728.31641"
               id="use4037" />
            <use
               xlink:href="#DejaVuSans-69"
               x="767.52539"
               id="use4039" />
            <use
               xlink:href="#DejaVuSans-6f"
               x="795.30859"
               id="use4041" />
            <use
               xlink:href="#DejaVuSans-6e"
               x="856.49023"
               id="use4043" />
          </g>
          <!-- MAE (mV) -->
          <g
             transform="matrix(0,-0.1,-0.1,0,32.695312,79.215)"
             id="g4068">
            <defs
               id="defs4050">
              <path
                 id="DejaVuSans-4d"
                 d="m 628,4666 h 941 L 2759,1491 3956,4666 h 941 V 0 H 4281 V 4097 L 3078,897 H 2444 L 1241,4097 V 0 H 628 Z"
                 transform="scale(0.015625)" />
              <path
                 id="DejaVuSans-41"
                 d="M 2188,4044 1331,1722 h 1716 z m -357,622 h 716 L 4325,0 H 3669 L 3244,1197 H 1141 L 716,0 H 50 Z"
                 transform="scale(0.015625)" />
              <path
                 id="DejaVuSans-45"
                 d="M 628,4666 H 3578 V 4134 H 1259 V 2753 H 3481 V 2222 H 1259 V 531 H 3634 V 0 H 628 Z"
                 transform="scale(0.015625)" />
            </defs>
            <use
               xlink:href="#DejaVuSans-4d"
               id="use4052" />
            <use
               xlink:href="#DejaVuSans-41"
               x="86.279297"
               id="use4054" />
            <use
               xlink:href="#DejaVuSans-45"
               x="154.6875"
               id="use4056" />
            <use
               xlink:href="#DejaVuSans-20"
               x="217.87109"
               id="use4058" />
            <use
               xlink:href="#DejaVuSans-28"
               x="249.6582"
               id="use4060" />
            <use
               xlink:href="#DejaVuSans-6d"
               x="288.67188"
               id="use4062" />
            <use
               xlink:href="#DejaVuSans-56"
               x="386.08398"
               id="use4064" />
            <use
               xlink:href="#DejaVuSans-29"
               x="454.49219"
               id="use4066" />
          </g>
        </g>
      </g>
      <g
         id="line2d_10">
        <path
           d="m 58.5,77.040017 0.09067,-0.736697 0.09068,0.04792 0.18135,2.490762 0.453375,7.873448 0.18135,0.520604 0.18135,-0.04106 0.453375,-0.639421 0.816075,-1.119036 0.54405,-0.396331 0.54405,-0.139292 0.7254,0.07251 1.904175,0.364692 0.453375,-0.205997 0.3627,-0.399634 0.453375,-0.883656 0.7254,-1.646039 0.18135,9.44e-4 0.18135,0.404335 0.272025,1.467602 0.997425,6.829837 0.3627,0.831521 0.3627,0.291323 0.634725,0.109548 2.35755,0.0314 19.04175,-0.05783 20.673905,-0.287572 3.08294,-0.39501 1.4508,-0.164517 0.99743,-0.03402 4.89645,-0.963359 1.54147,-0.127816 4.44308,-0.320724 2.35755,0.195157 2.08552,0.250671 2.72025,0.335024 2.08553,0.20638 2.26687,0.177009 3.89903,0.123759 2.99227,0.08779 2.99228,0.07033 5.8032,0.180813 3.53632,0.150011 4.80578,0.07346 1.90417,0.01727 3.89903,0.01845 6.34725,0.0695 25.84237,0.0294 2.99228,-0.0055 3.80835,0.06352 8.88615,0.102292 6.34725,0.04644 4.26172,-0.02847 3.71768,0.02689 3.17362,0.0546 L 421.2,92.251907 v 0"
           clip-path="url(#pb543b0dd3b)"
           style="fill:none;stroke:#800000;stroke-width:1.5;stroke-linecap:square"
           id="path4072" />
      </g>
      <g
         id="line2d_11">
        <path
           d="m 58.5,77.415966 0.09067,-0.592241 0.09068,0.1755 0.18135,2.619048 0.453375,7.764567 0.18135,0.443291 0.18135,-0.111459 1.541475,-1.820307 0.54405,-0.178133 0.634725,0.02354 1.26945,0.336549 0.816075,0.111867 0.453375,-0.126909 0.453375,-0.398842 0.453375,-0.774184 0.816075,-1.538427 0.18135,0.142531 0.18135,0.539712 0.3627,2.207971 0.634725,4.145282 0.3627,1.135561 0.3627,0.476595 0.453375,0.171707 1.178775,0.06478 12.059775,0.02744 33.91245,-0.214807 1.8135,-0.06766 1.26945,-0.146373 2.44823,-0.30207 3.17362,-0.268746 1.36013,-0.160751 1.0881,-0.09773 1.36012,-0.134154 0.81607,0.04145 0.99743,0.03333 1.26945,-0.0076 5.89387,0.248462 2.81093,0.196342 6.07522,0.256796 21.762,0.398727 4.53375,-0.004 3.71768,0.04842 2.62957,-0.03606 25.20765,0.0031 1.17878,0.01374 4.26172,-0.0018 2.44823,0.01456 29.83207,0.1822 14.68935,-0.0027 9.52088,-0.0054 6.1659,0.02498 3.71767,-0.0054 7.52603,0.02098 19.40445,-0.002 29.10667,0.02435 5.71253,0.0047 9.88358,-0.0082 7.79804,0.0073 6.07523,2.1e-5 4.89645,-5.42e-4 6.70995,-0.0091 13.69192,0.03003 7.16333,-0.03494 26.8398,0.02416 v 0"
           clip-path="url(#pb543b0dd3b)"
           style="fill:none;stroke:#ff4500;stroke-width:1.5;stroke-linecap:square"
           id="path4075" />
      </g>
      <g
         id="line2d_12">
        <path
           d="m 58.5,78.570783 0.272025,-4.361873 0.09067,0.217812 0.7254,6.873682 0.18135,0.243595 0.18135,-0.04739 0.3627,-0.46811 0.90675,-1.244417 0.453375,-0.284386 0.453375,-0.06521 0.634725,0.15916 1.63215,0.569095 0.3627,-0.160088 0.3627,-0.440791 0.3627,-0.805893 0.997425,-2.750179 0.18135,0.225001 0.18135,0.782198 0.272025,2.261995 0.816075,7.698577 0.3627,0.82225 0.3627,0.331185 0.453375,0.057 0.816075,-0.216937 6.800625,-2.244951 2.1762,-0.423831 1.99485,-0.171364 1.904175,0.04699 2.085525,0.281067 2.266875,0.5358 3.717675,1.142618 3.2643,0.912037 1.99485,0.341713 1.541475,0.06179 1.360125,-0.158304 1.26946,-0.392543 0.99742,-0.523269 0.90675,-0.8243 0.7254,-0.929615 0.81608,-1.43415 1.26944,-2.744689 1.36013,-3.59445 1.0881,-3.631704 2.35755,-8.21256 1.0881,-2.963551 4.17104,-10.404159 0.7254,-1.221653 2.08552,-3.045091 1.4508,-2.762198 0.90675,-1.579809 0.63473,-1.014625 0.90676,-0.855959 0.54405,-0.369675 0.45337,-0.07426 0.63473,0.08819 0.3627,0.317669 0.54405,0.859427 4.35239,7.90584 1.54147,1.976073 0.54405,0.470375 2.35755,1.760248 2.62958,2.720645 2.08553,1.725581 0.81608,0.521223 1.63214,1.352485 1.17878,0.972449 2.08553,1.579461 1.0881,0.498842 2.62957,0.486495 0.54405,0.150812 1.17878,0.141142 0.54405,0.235886 1.72282,0.91493 1.63215,0.796897 3.44565,0.757061 0.63473,-0.111548 1.54147,-0.466944 0.45338,-0.04963 4.26172,0.545482 2.1762,0.25799 1.36013,-0.548212 0.7254,-0.288908 2.5389,-0.625882 0.54405,-0.197003 0.63472,-0.06471 1.26945,-0.269934 0.99743,-0.0143 1.17877,-0.119844 3.08295,0.132904 2.08553,0.09675 1.17877,-0.267381 1.54148,0.232004 0.7254,0.01144 1.4508,0.209909 2.72025,1.384327 1.4508,0.0935 2.26687,0.990161 0.7254,0.295895 0.63473,0.144633 0.81607,0.274291 1.36013,0.198184 0.63472,0.04147 1.99485,0.823395 0.90675,0.45637 2.08553,0.442656 1.72282,-0.257049 0.99743,0.224382 1.54147,-0.06863 1.54148,0.2271 1.17877,0.153603 2.35755,0.546299 2.53891,0.11733 0.72539,0.128398 1.26945,0.294218 0.99743,-0.116779 2.81092,0.602505 1.99485,0.210697 0.99743,0.427124 0.7254,0.03108 1.0881,-0.125724 1.54147,-0.232855 2.26688,-0.02991 1.54147,-0.125811 1.99485,0.637018 0.7254,0.03073 1.4508,-0.38237 1.4508,0.05422 2.35755,0.38062 0.45338,0.09198 1.72282,0.71468 1.54148,0.135115 0.90675,-0.192995 1.0881,0.04497 0.90675,0.152379 2.1762,0.661961 1.36012,0.162545 1.99485,0.399674 0.90675,0.116325 0.90675,0.133845 1.0881,-0.118687 1.0881,-0.11034 1.63215,-0.12561 2.62958,-0.03203 2.1762,0.615958 2.72025,0.288017 1.90418,0.02756 1.45079,0.229817 0.90676,-0.162067 1.36012,-0.05201 1.72282,0.03515 2.08553,0.282667 0.63472,0.1487 1.17878,0.151263 1.54147,0.04452 0.99743,-0.0064 1.4508,0.0044 1.0881,-0.09038 0.81607,0.07612 1.0881,-0.01344 1.26945,0.179891 0.63473,0.180666 1.99485,0.166197 0.54405,0.179557 1.0881,0.479285 0.99743,0.12173 3.17362,0.0661 0.63472,0.02543 2.62958,0.291832 1.0881,0.167156 2.35755,0.424093 1.0881,0.284635 2.1762,0.219825 0.63473,-0.0139 1.36012,-0.183394 1.63215,0.140058 1.17877,0.0064 0.81608,0.138462 0.90675,0.184429 2.44822,-0.08231 1.54148,-0.184458 1.8135,0.01902 0.81608,0.205468 2.99227,-0.100363 1.36012,0.04665 0.7254,-0.08025 1.0881,0.322567 0.72541,0.08978 1.81349,0.103591 1.72283,0.225874 0.7254,0.112996 1.4508,0.05499 1.8135,0.01086 0.81607,0.215247 2.08553,0.459101 0.99743,-0.190737 1.54147,-0.549999 0.63473,0.147817 0.63472,0.08353 1.36012,0.209633 2.35755,0.223723 1.54148,-0.02777 0.90675,0.06533 1.0881,0.03178 0.90675,-0.06219 0.90675,0.0856 3.08295,-0.302305 1.99485,0.332422 1.4508,0.254823 1.72282,0.07106 1.63216,0.27988 3.44565,-0.09502 1.72282,0.200579 0.99742,0.02457 0.81608,0.253003 0.90675,0.244581 1.17878,-0.04978 0.99742,-0.09605 2.44823,0.264377 1.26945,0.16841 2.90159,0.08014 1.63216,-0.221687 0.63472,0.08856 4.26172,0.266737 3.627,0.694037 1.0881,0.05088 0.90675,0.04076 0.7254,-0.06882 0.81608,-0.243921 0.7254,-0.144735 8.07007,0.195873 1.8135,-0.195609 1.90418,0.179785 0.99741,-0.104035 1.26946,0.0413 0.72541,-0.02415 0.81607,0.312699 0.63472,0.12626 2.26688,0.0079 0.81608,-0.0037 1.26945,0.112837 0.63472,0.08972 1.26945,0.175391 1.17877,0.278584 3.9897,0.09251 3.89903,-0.05871 1.4508,0.194689 1.36012,0.329931 0.81608,0.07548 1.8135,-0.216812 0.54405,-0.02691 v 0"
           clip-path="url(#pb543b0dd3b)"
           style="fill:none;stroke:#006400;stroke-width:1.5;stroke-linecap:square"
           id="path4078" />
      </g>
      <g
         id="line2d_13">
        <path
           d="m 58.5,78.736467 0.18135,-1.568312 0.09067,0.109775 0.18135,1.821062 0.3627,3.866486 0.272025,0.775232 0.18135,0.02603 0.272025,-0.266643 1.178775,-1.467018 0.54405,-0.222855 0.54405,0.02567 0.90675,0.320935 0.90675,0.280241 0.453375,-0.07927 0.3627,-0.297002 0.3627,-0.599217 0.453375,-1.223 0.54405,-1.541159 0.18135,-0.134595 0.18135,0.287456 0.272025,1.416558 1.0881,8.076521 0.3627,0.587674 0.3627,0.206218 0.54405,-9.37e-4 1.26945,-0.336778 8.070075,-2.366815 2.5389,-0.452162 2.35755,-0.193624 2.266875,0.03977 2.35755,0.26549 2.72025,0.542487 3.717675,0.995584 4.7151,1.235217 1.813495,0.24781 1.54149,-0.02127 1.26944,-0.228979 0.81608,-0.39933 0.99743,-0.773866 1.08808,-1.121196 0.90677,-1.356444 1.08808,-2.038452 0.90677,-2.163787 0.81606,-2.420536 2.44823,-8.143116 2.5389,-8.33645 2.17619,-5.879454 0.81608,-1.827135 0.99743,-1.306336 0.63472,-0.59831 0.81608,-0.308889 1.36012,-0.451458 0.63473,-0.315641 0.99742,-0.105451 0.90675,0.235912 0.7254,0.302783 0.7254,0.07808 1.17878,0.533237 0.81607,0.641139 2.08552,0.633267 0.63473,0.476838 1.54147,1.436679 3.08295,4.219496 1.17878,1.600461 1.63215,2.056665 1.0881,0.886646 1.72282,1.493532 2.99228,1.917385 0.99742,0.785125 1.26945,0.518177 1.26945,0.332095 1.54148,0.512652 3.44565,1.717983 2.44822,0.410521 4.08038,0.08828 1.8135,0.466589 0.90675,-0.08866 0.81607,-0.02866 0.81608,0.227467 0.7254,0.134534 1.17877,-0.09714 1.63215,-0.523008 0.7254,-0.05876 0.72541,-0.107194 1.08809,-0.06416 0.81608,-0.297976 0.45337,-0.118174 0.99743,0.152272 0.7254,0.04075 1.36012,-0.308413 1.26945,-0.497448 1.90418,-0.434979 1.54147,-0.330707 1.0881,0.03894 1.4508,0.526572 0.81608,-0.02273 0.63472,-0.123078 0.90675,-0.01185 0.54405,-0.08316 1.36013,-0.284741 0.90675,0.04917 1.8135,0.610185 1.0881,0.462199 1.0881,0.326033 0.7254,0.22614 3.71767,0.330341 1.17878,0.289338 3.2643,1.158624 3.89902,0.768465 0.7254,0.253733 0.90675,0.288163 3.08295,0.641692 3.08295,0.08311 0.99743,0.04813 0.81607,0.01958 3.44565,0.517277 1.99485,0.197619 1.26946,0.349188 0.90674,-0.02812 2.99228,-0.582662 0.54405,0.07015 0.54405,0.07292 0.63472,0.105714 0.90675,0.367557 0.81608,0.0088 0.99742,0.06021 1.36013,0.493935 0.90675,-0.07521 0.99742,-0.111056 1.63215,0.11517 1.36013,-0.02951 0.81607,0.209968 0.7254,0.193852 2.72025,0.248913 5.0778,0.141704 0.90675,0.373481 1.17878,0.03264 1.17877,0.128367 2.81093,0.434739 2.35755,0.462152 6.25657,0.231397 4.53375,0.382892 1.0881,0.09922 1.0881,-0.04774 1.72283,0.218614 1.36012,-0.107678 0.81608,-0.06372 0.63472,-0.09792 0.81608,0.128997 0.81608,0.08816 0.90674,-4.5e-4 2.08553,0.250596 1.26945,-0.02538 0.99742,0.322375 0.54406,0.07966 0.99742,-0.04504 0.90675,0.113568 1.8135,-0.214645 0.7254,-0.0081 2.9016,0.237031 0.99742,-0.08225 2.44823,0.46128 0.81608,0.125391 1.26944,0.190296 2.44823,-0.04942 1.0881,0.114612 2.81092,0.199616 1.63215,0.08039 0.90676,0.07255 1.0881,-0.150426 0.72539,0.09848 0.7254,0.104477 1.72283,-0.03714 1.54148,0.230096 3.26429,0.266268 1.17878,0.09177 1.36013,0.0041 0.63472,-0.04068 0.99742,0.02694 1.0881,-0.0101 2.08553,0.23045 0.99742,-0.09897 1.26945,-0.04082 0.63473,-0.02754 1.4508,0.231541 6.43792,0.550643 0.7254,-0.01799 1.0881,0.08339 1.36013,-0.127579 0.63473,0.169002 0.54404,0.119484 2.08553,0.04912 6.07522,0.150397 2.35755,-0.04919 1.54148,0.180561 0.81607,0.162636 0.81608,0.124966 2.26687,-0.144778 1.26945,0.0018 2.72026,0.08229 1.0881,0.02717 2.08552,0.10598 1.63215,-0.02168 2.26688,0.02413 0.54404,0.0047 2.62958,0.479078 1.54147,0.188398 1.8135,0.01902 1.0881,-0.06518 1.17878,-0.0267 0.81607,0.168631 1.0881,0.168397 4.17106,0.10034 0.99742,0.0082 0.90675,-0.04525 0.90675,0.232483 1.0881,0.168068 1.72283,0.105764 0.90674,0.01788 1.90418,-0.05664 4.17105,-0.186158 0.90675,0.0257 2.26688,0.231262 0.90674,-0.10159 0.7254,-0.02725 1.26945,0.09619 1.54148,-0.05422 5.62185,0.129823 2.08552,0.04479 0.72541,0.09724 0.63472,0.03567 2.81093,0.09732 1.63214,-0.0087 1.90418,0.003 2.5389,0.311535 1.4508,0.07422 1.0881,0.03672 1.26945,0.174715 1.36013,-0.02559 2.08552,0.158916 1.0881,0.02127 0.90675,-0.09139 1.36012,-0.05466 0.27203,-0.0022 v 0"
           clip-path="url(#pb543b0dd3b)"
           style="fill:none;stroke:#008080;stroke-width:1.5;stroke-linecap:square"
           id="path4081" />
      </g>
      <g
         id="line2d_14">
        <path
           d="m 58.5,82.685016 0.3627,-2.060761 0.3627,-0.414231 0.453375,-0.0679 1.360125,0.01852 0.634725,0.361657 1.8135,1.222095 0.3627,-0.02393 0.3627,-0.27104 0.3627,-0.59951 0.453375,-1.23824 0.634725,-1.772138 0.18135,-0.104483 0.18135,0.229794 0.272025,0.91893 0.997425,3.779304 0.3627,0.566114 0.272025,0.101747 0.3627,-0.109684 0.634725,-0.48853 1.541475,-1.56997 3.2643,-3.673689 4.17105,-4.638511 2.266875,-2.177817 1.904175,-1.525583 1.722825,-1.112029 1.722825,-0.856237 1.8135,-0.647899 1.904175,-0.444539 2.266875,-0.294622 6.34725,-0.666606 0.90675,-0.441386 0.7254,-0.577858 0.7254,-0.870532 0.7254,-1.243041 0.7254,-1.748575 0.90675,-2.89834 0.90675,-3.687669 1.17878,-5.891968 3.80834,-19.847706 0.90675,-3.268405 0.99743,-2.661343 0.99742,-2.15903 1.81351,-2.719573 0.45337,-0.291767 0.45338,-0.07804 0.54405,0.109332 0.45337,0.331214 0.54405,0.700009 1.0881,1.723076 1.72283,3.098931 1.99485,4.741482 2.72024,7.744002 1.90418,5.476728 1.72282,4.342321 1.72283,3.543568 1.0881,1.801461 3.2643,4.894671 1.72282,2.218042 1.36013,1.356584 1.4508,1.198363 1.0881,0.670007 1.8135,0.886816 1.72282,0.320293 0.90676,-0.165307 3.71767,-1.023259 2.9016,-1.474658 0.90675,-0.859489 1.90417,-1.847609 1.0881,-0.792175 0.90675,-0.850594 1.8135,-1.968128 1.17878,-0.993073 1.90417,-1.447504 1.26945,-0.695546 0.81608,-0.256525 1.0881,-0.02379 2.1762,0.236196 1.36012,0.182521 1.54148,0.266131 2.1762,1.337354 0.81607,0.737863 0.90675,0.83563 1.0881,0.780566 0.90675,0.397774 1.0881,0.543496 1.4508,0.688412 1.72283,0.869719 2.35755,1.661159 1.72282,1.220595 1.90418,1.247952 0.7254,0.485388 3.627,1.608988 1.36012,0.091 0.81608,-0.06975 1.17877,-0.01161 1.26945,-0.01109 1.72283,-0.174448 1.17877,0.186927 2.72025,-0.282953 0.63473,-0.128408 2.81092,-0.312571 0.90675,-0.158532 2.81093,-0.289932 1.8135,0.162193 1.63215,-0.314651 1.99485,-0.602522 0.90675,0.12413 0.99742,0.0606 0.90675,0.03649 0.7254,0.249306 0.7254,0.228025 1.8135,0.194709 1.26945,0.207681 1.26945,0.374877 1.54148,0.523833 0.63472,0.101054 1.72283,-0.04971 0.90675,0.181301 1.17877,0.475343 3.08295,1.007365 1.26945,0.434949 1.99485,0.374052 1.8135,0.805984 1.4508,0.105177 2.35755,0.633398 1.0881,-0.0059 0.7254,0.02537 0.81608,0.146675 0.63472,0.09657 2.26688,-0.06172 0.90675,0.143009 1.36012,0.237679 1.26945,-0.01556 0.7254,-0.07181 1.8135,0.08328 1.54148,-0.244124 0.81607,-0.04789 0.99743,0.07075 1.0881,0.03301 2.1762,-0.309985 0.63473,-0.05179 0.63472,0.186935 0.54405,0.06705 3.08295,0.02303 0.7254,-0.03833 1.26945,-0.08315 0.7254,0.110268 0.90675,0.344362 0.81607,0.21569 0.81608,0.05249 0.7254,-0.07514 4.08037,0.522493 0.90675,0.134589 0.7254,0.166516 0.99743,0.0457 2.5389,0.310611 0.90675,0.295763 1.72282,0.101284 1.54148,0.09539 3.627,0.556546 1.26945,0.380487 0.90675,0.134926 1.26945,-0.0534 1.54148,0.256485 2.53889,0.194258 0.72541,0.02115 1.17877,0.130624 0.99742,0.02995 1.54148,0.342074 2.9016,-0.08695 2.08552,-0.110947 2.99228,0.177792 1.72282,-0.0165 2.1762,0.235505 0.99743,-0.124385 1.0881,0.240377 0.81608,0.130977 2.44822,-0.175634 1.26945,-0.248668 1.36012,0.02168 0.81608,0.02959 0.99743,0.241996 1.17877,0.29377 2.9016,0.283321 1.26945,0.186173 1.63215,0.31888 0.90675,0.02781 1.0881,0.355001 0.7254,0.179805 0.90675,-0.08874 1.17877,0.0069 1.99486,-0.02399 1.36012,0.06521 0.7254,0.139409 1.63215,0.360012 4.44307,-0.148837 0.99743,0.142768 3.2643,0.185113 0.63472,0.08057 2.08553,-0.01243 0.99742,0.161649 1.17878,0.142236 1.26945,0.08509 2.5389,0.366066 0.81607,0.01065 0.90676,0.120811 1.26944,0.254229 0.54405,0.03966 1.0881,-0.275933 0.90675,-0.173549 1.0881,-0.02256 0.72541,0.127846 0.99742,0.02773 2.35755,0.106169 0.99742,-0.03789 2.72025,-0.02927 0.99743,-0.08823 0.99743,0.08586 2.44822,0.379425 0.7254,0.03991 0.81607,0.106311 1.17878,0.299389 5.16848,0.534399 3.44565,0.109421 1.26945,0.131258 0.72539,-0.007 1.0881,0.0036 0.81608,0.247825 0.7254,0.144414 1.17878,-0.166198 1.26944,-0.302593 1.99486,0.132018 1.81349,0.125736 1.0881,0.113106 1.36013,0.346482 3.2643,-0.133224 1.4508,0.225937 1.8135,-0.112379 3.35497,0.644141 2.5389,0.06109 1.54148,-0.111532 1.36013,-0.1747 4.62442,0.301972 1.17878,0.270366 3.08294,-0.127212 0.99743,-0.05517 0.3627,-0.0074 v 0"
           clip-path="url(#pb543b0dd3b)"
           style="fill:none;stroke:#4b0082;stroke-width:1.5;stroke-linecap:square"
           id="path4084" />
      </g>
      <g
         id="patch_3">
        <path
           d="M 58.5,96.12 V 12.96"
           style="fill:none;stroke:#000000;stroke-width:0.8;stroke-linecap:square;stroke-linejoin:miter"
           id="path4087" />
      </g>
      <g
         id="patch_4">
        <path
           d="M 58.5,96.12 H 421.2"
           style="fill:none;stroke:#000000;stroke-width:0.8;stroke-linecap:square;stroke-linejoin:miter"
           id="path4090" />
      </g>
      <g
         id="legend_1">
        <g
           id="patch_5">
          <path
             d="M 218.77969,50.31625 H 414.2 q 2,0 2,-2 V 19.96 q 0,-2 -2,-2 H 218.77969 q -2,0 -2,2 v 28.35625 q 0,2 2,2 z"
             style="opacity:0.8;fill:#ffffff;stroke:#cccccc;stroke-linejoin:miter"
             id="path4093" />
        </g>
        <g
           id="line2d_15">
          <path
             d="m 220.77969,26.058437 h 10 10"
             style="fill:none;stroke:#800000;stroke-width:1.5;stroke-linecap:square"
             id="path4096" />
        </g>
        <g
           id="text_12">
          <!-- base -->
          <g
             transform="matrix(0.1,0,0,-0.1,248.77969,29.558437)"
             id="g4111">
            <defs
               id="defs4101">
              <path
                 id="DejaVuSans-62"
                 d="m 3116,1747 q 0,634 -261,995 -261,361 -717,361 -457,0 -718,-361 -261,-361 -261,-995 0,-634 261,-995 261,-361 718,-361 456,0 717,361 261,361 261,995 z M 1159,2969 q 182,312 458,463 277,152 661,152 638,0 1036,-506 399,-506 399,-1331 Q 3713,922 3314,415 2916,-91 2278,-91 1894,-91 1617,61 1341,213 1159,525 V 0 H 581 v 4863 h 578 z"
                 transform="scale(0.015625)" />
              <path
                 id="DejaVuSans-61"
                 d="m 2194,1759 q -697,0 -966,-159 -269,-159 -269,-544 0,-306 202,-486 202,-179 548,-179 479,0 768,339 289,339 289,901 v 128 z m 1147,238 V 0 H 2766 V 531 Q 2569,213 2275,61 1981,-91 1556,-91 q -537,0 -855,302 -317,302 -317,808 0,590 395,890 396,300 1180,300 h 807 v 57 q 0,397 -261,614 -261,217 -733,217 -300,0 -585,-72 -284,-72 -546,-216 v 532 q 315,122 612,182 297,61 578,61 760,0 1135,-394 375,-393 375,-1193 z"
                 transform="scale(0.015625)" />
            </defs>
            <use
               xlink:href="#DejaVuSans-62"
               id="use4103" />
            <use
               xlink:href="#DejaVuSans-61"
               x="63.476562"
               id="use4105" />
            <use
               xlink:href="#DejaVuSans-73"
               x="124.75586"
               id="use4107" />
            <use
               xlink:href="#DejaVuSans-65"
               x="176.85547"
               id="use4109" />
          </g>
        </g>
        <g
           id="line2d_16">
          <path
             d="m 220.77969,40.736562 h 10 10"
             style="fill:none;stroke:#ff4500;stroke-width:1.5;stroke-linecap:square"
             id="path4114" />
        </g>
        <g
           id="text_13">
          <!-- lw -->
          <g
             transform="matrix(0.1,0,0,-0.1,248.77969,44.236562)"
             id="g4125">
            <defs
               id="defs4119">
              <path
                 id="DejaVuSans-6c"
                 d="m 603,4863 h 575 V 0 H 603 Z"
                 transform="scale(0.015625)" />
              <path
                 id="DejaVuSans-77"
                 d="m 269,3500 h 575 l 719,-2731 715,2731 h 678 l 719,-2731 716,2731 h 575 L 4050,0 H 3372 L 2619,2869 1863,0 h -679 z"
                 transform="scale(0.015625)" />
            </defs>
            <use
               xlink:href="#DejaVuSans-6c"
               id="use4121" />
            <use
               xlink:href="#DejaVuSans-77"
               x="27.783203"
               id="use4123" />
          </g>
        </g>
        <g
           id="line2d_17">
          <path
             d="m 292.61875,26.058437 h 10 10"
             style="fill:none;stroke:#006400;stroke-width:1.5;stroke-linecap:square"
             id="path4128" />
        </g>
        <g
           id="text_14">
          <!-- lt -->
          <g
             transform="matrix(0.1,0,0,-0.1,320.61875,29.558437)"
             id="g4135">
            <use
               xlink:href="#DejaVuSans-6c"
               id="use4131" />
            <use
               xlink:href="#DejaVuSans-74"
               x="27.783203"
               id="use4133" />
          </g>
        </g>
        <g
           id="line2d_18">
          <path
             d="m 292.61875,40.736562 h 10 10"
             style="fill:none;stroke:#008080;stroke-width:1.5;stroke-linecap:square"
             id="path4138" />
        </g>
        <g
           id="text_15">
          <!-- lwlt -->
          <g
             transform="matrix(0.1,0,0,-0.1,320.61875,44.236562)"
             id="g4149">
            <use
               xlink:href="#DejaVuSans-6c"
               id="use4141" />
            <use
               xlink:href="#DejaVuSans-77"
               x="27.783203"
               id="use4143" />
            <use
               xlink:href="#DejaVuSans-6c"
               x="109.57031"
               id="use4145" />
            <use
               xlink:href="#DejaVuSans-74"
               x="137.35352"
               id="use4147" />
          </g>
        </g>
        <g
           id="line2d_19">
          <path
             d="m 358.27344,26.058437 h 10 10"
             style="fill:none;stroke:#4b0082;stroke-width:1.5;stroke-linecap:square"
             id="path4152" />
        </g>
        <g
           id="text_16">
          <!-- burst -->
          <g
             transform="matrix(0.1,0,0,-0.1,386.27344,29.558437)"
             id="g4165">
            <use
               xlink:href="#DejaVuSans-62"
               id="use4155" />
            <use
               xlink:href="#DejaVuSans-75"
               x="63.476562"
               id="use4157" />
            <use
               xlink:href="#DejaVuSans-72"
               x="126.85547"
               id="use4159" />
            <use
               xlink:href="#DejaVuSans-73"
               x="167.96875"
               id="use4161" />
            <use
               xlink:href="#DejaVuSans-74"
               x="220.06836"
               id="use4163" />
          </g>
        </g>
      </g>
    </g>
  </g>
  <defs
     id="defs4174">
    <clipPath
       id="pb543b0dd3b">
      <rect
         x="58.5"
         y="12.96"
         width="362.70001"
         height="83.160004"
         id="rect4171" />
    </clipPath>
  </defs>
</svg>
