<?xml version="1.0" encoding="utf-8" standalone="no"?>
<!DOCTYPE svg PUBLIC "-//W3C//DTD SVG 1.1//EN"
  "http://www.w3.org/Graphics/SVG/1.1/DTD/svg11.dtd">
<svg xmlns:xlink="http://www.w3.org/1999/xlink" width="468pt" height="216pt" viewBox="0 0 468 216" xmlns="http://www.w3.org/2000/svg" version="1.1">
 <metadata>
  <rdf:RDF xmlns:dc="http://purl.org/dc/elements/1.1/" xmlns:cc="http://creativecommons.org/ns#" xmlns:rdf="http://www.w3.org/1999/02/22-rdf-syntax-ns#">
   <cc:Work>
    <dc:type rdf:resource="http://purl.org/dc/dcmitype/StillImage"/>
    <dc:date>2023-06-14T12:30:06.930075</dc:date>
    <dc:format>image/svg+xml</dc:format>
    <dc:creator>
     <cc:Agent>
      <dc:title>Matplotlib v3.6.2, https://matplotlib.org/</dc:title>
     </cc:Agent>
    </dc:creator>
   </cc:Work>
  </rdf:RDF>
 </metadata>
 <defs>
  <style type="text/css">*{stroke-linejoin: round; stroke-linecap: butt}</style>
 </defs>
 <g id="figure_1">
  <g id="patch_1">
   <path d="M 0 216 
L 468 216 
L 468 0 
L 0 0 
z
" style="fill: #ffffff"/>
  </g>
  <g id="axes_1">
   <g id="patch_2">
    <path d="M 58.5 46.402759 
L 421.2 46.402759 
L 421.2 25.92 
L 58.5 25.92 
z
" style="fill: #ffffff"/>
   </g>
   <g id="matplotlib.axis_1">
    <g id="xtick_1">
     <g id="line2d_1">
      <defs>
       <path id="m7f0a26c737" d="M 0 0 
L 0 -3.5 
" style="stroke: #000000; stroke-width: 0.8"/>
      </defs>
      <g>
       <use xlink:href="#m7f0a26c737" x="85.708848" y="25.92" style="stroke: #000000; stroke-width: 0.8"/>
      </g>
     </g>
    </g>
    <g id="xtick_2">
     <g id="line2d_2">
      <g>
       <use xlink:href="#m7f0a26c737" x="131.046348" y="25.92" style="stroke: #000000; stroke-width: 0.8"/>
      </g>
     </g>
    </g>
    <g id="xtick_3">
     <g id="line2d_3">
      <g>
       <use xlink:href="#m7f0a26c737" x="176.383848" y="25.92" style="stroke: #000000; stroke-width: 0.8"/>
      </g>
     </g>
    </g>
    <g id="xtick_4">
     <g id="line2d_4">
      <g>
       <use xlink:href="#m7f0a26c737" x="221.721348" y="25.92" style="stroke: #000000; stroke-width: 0.8"/>
      </g>
     </g>
    </g>
    <g id="xtick_5">
     <g id="line2d_5">
      <g>
       <use xlink:href="#m7f0a26c737" x="267.058848" y="25.92" style="stroke: #000000; stroke-width: 0.8"/>
      </g>
     </g>
    </g>
    <g id="xtick_6">
     <g id="line2d_6">
      <g>
       <use xlink:href="#m7f0a26c737" x="312.396348" y="25.92" style="stroke: #000000; stroke-width: 0.8"/>
      </g>
     </g>
    </g>
    <g id="xtick_7">
     <g id="line2d_7">
      <g>
       <use xlink:href="#m7f0a26c737" x="357.733848" y="25.92" style="stroke: #000000; stroke-width: 0.8"/>
      </g>
     </g>
    </g>
    <g id="xtick_8">
     <g id="line2d_8">
      <g>
       <use xlink:href="#m7f0a26c737" x="403.071348" y="25.92" style="stroke: #000000; stroke-width: 0.8"/>
      </g>
     </g>
    </g>
   </g>
   <g id="matplotlib.axis_2"/>
   <g id="LineCollection_1">
    <path d="M 68.47425 35.126897 
L 68.47425 26.851034 
" clip-path="url(#p7468b27c1a)" style="fill: none; stroke: #ff0000; stroke-width: 1.5"/>
    <path d="M 85.7025 35.126897 
L 85.7025 26.851034 
" clip-path="url(#p7468b27c1a)" style="fill: none; stroke: #ff0000; stroke-width: 1.5"/>
    <path d="M 115.62525 35.126897 
L 115.62525 26.851034 
" clip-path="url(#p7468b27c1a)" style="fill: none; stroke: #ff0000; stroke-width: 1.5"/>
    <path d="M 129.045007 35.126897 
L 129.045007 26.851034 
" clip-path="url(#p7468b27c1a)" style="fill: none; stroke: #ff0000; stroke-width: 1.5"/>
    <path d="M 239.85 35.126897 
L 239.85 26.851034 
" clip-path="url(#p7468b27c1a)" style="fill: none; stroke: #ff0000; stroke-width: 1.5"/>
    <path d="M 248.9175 35.126897 
L 248.9175 26.851034 
" clip-path="url(#p7468b27c1a)" style="fill: none; stroke: #ff0000; stroke-width: 1.5"/>
    <path d="M 253.327729 35.126897 
L 253.327729 26.851034 
" clip-path="url(#p7468b27c1a)" style="fill: none; stroke: #ff0000; stroke-width: 1.5"/>
    <path d="M 267.058848 35.126897 
L 267.058848 26.851034 
" clip-path="url(#p7468b27c1a)" style="fill: none; stroke: #ff0000; stroke-width: 1.5"/>
    <path d="M 333.24525 35.126897 
L 333.24525 26.851034 
" clip-path="url(#p7468b27c1a)" style="fill: none; stroke: #ff0000; stroke-width: 1.5"/>
    <path d="M 358.101973 35.126897 
L 358.101973 26.851034 
" clip-path="url(#p7468b27c1a)" style="fill: none; stroke: #ff0000; stroke-width: 1.5"/>
    <path d="M 435.699766 35.126897 
L 435.699766 26.851034 
" clip-path="url(#p7468b27c1a)" style="fill: none; stroke: #ff0000; stroke-width: 1.5"/>
    <path d="M 452.977273 35.126897 
L 452.977273 26.851034 
" clip-path="url(#p7468b27c1a)" style="fill: none; stroke: #ff0000; stroke-width: 1.5"/>
   </g>
   <g id="LineCollection_2">
    <path d="M 158.248848 45.471724 
L 158.248848 37.195862 
" clip-path="url(#p7468b27c1a)" style="fill: none; stroke: #0000ff; stroke-width: 1.5"/>
    <path d="M 221.715 45.471724 
L 221.715 37.195862 
" clip-path="url(#p7468b27c1a)" style="fill: none; stroke: #0000ff; stroke-width: 1.5"/>
    <path d="M 241.6635 45.471724 
L 241.6635 37.195862 
" clip-path="url(#p7468b27c1a)" style="fill: none; stroke: #0000ff; stroke-width: 1.5"/>
    <path d="M 412.540468 45.471724 
L 412.540468 37.195862 
" clip-path="url(#p7468b27c1a)" style="fill: none; stroke: #0000ff; stroke-width: 1.5"/>
   </g>
   <g id="patch_3">
    <path d="M 58.5 46.402759 
L 58.5 25.92 
" style="fill: none; stroke: #000000; stroke-width: 0.8; stroke-linejoin: miter; stroke-linecap: square"/>
   </g>
   <g id="patch_4">
    <path d="M 421.2 46.402759 
L 421.2 25.92 
" style="fill: none; stroke: #000000; stroke-width: 0.8; stroke-linejoin: miter; stroke-linecap: square"/>
   </g>
   <g id="patch_5">
    <path d="M 58.5 46.402759 
L 421.2 46.402759 
" style="fill: none; stroke: #000000; stroke-width: 0.8; stroke-linejoin: miter; stroke-linecap: square"/>
   </g>
   <g id="patch_6">
    <path d="M 58.5 25.92 
L 421.2 25.92 
" style="fill: none; stroke: #000000; stroke-width: 0.8; stroke-linejoin: miter; stroke-linecap: square"/>
   </g>
  </g>
  <g id="axes_2">
   <g id="patch_7">
    <path d="M 58.5 93.103448 
L 421.2 93.103448 
L 421.2 52.137931 
L 58.5 52.137931 
z
" style="fill: #ffffff"/>
   </g>
   <g id="matplotlib.axis_3">
    <g id="xtick_9">
     <g id="line2d_9">
      <defs>
       <path id="m456fcb9ff8" d="M 0 0 
L 0 3.5 
" style="stroke: #000000; stroke-width: 0.8"/>
      </defs>
      <g>
       <use xlink:href="#m456fcb9ff8" x="85.708848" y="93.103448" style="stroke: #000000; stroke-width: 0.8"/>
      </g>
     </g>
    </g>
    <g id="xtick_10">
     <g id="line2d_10">
      <g>
       <use xlink:href="#m456fcb9ff8" x="131.046348" y="93.103448" style="stroke: #000000; stroke-width: 0.8"/>
      </g>
     </g>
    </g>
    <g id="xtick_11">
     <g id="line2d_11">
      <g>
       <use xlink:href="#m456fcb9ff8" x="176.383848" y="93.103448" style="stroke: #000000; stroke-width: 0.8"/>
      </g>
     </g>
    </g>
    <g id="xtick_12">
     <g id="line2d_12">
      <g>
       <use xlink:href="#m456fcb9ff8" x="221.721348" y="93.103448" style="stroke: #000000; stroke-width: 0.8"/>
      </g>
     </g>
    </g>
    <g id="xtick_13">
     <g id="line2d_13">
      <g>
       <use xlink:href="#m456fcb9ff8" x="267.058848" y="93.103448" style="stroke: #000000; stroke-width: 0.8"/>
      </g>
     </g>
    </g>
    <g id="xtick_14">
     <g id="line2d_14">
      <g>
       <use xlink:href="#m456fcb9ff8" x="312.396348" y="93.103448" style="stroke: #000000; stroke-width: 0.8"/>
      </g>
     </g>
    </g>
    <g id="xtick_15">
     <g id="line2d_15">
      <g>
       <use xlink:href="#m456fcb9ff8" x="357.733848" y="93.103448" style="stroke: #000000; stroke-width: 0.8"/>
      </g>
     </g>
    </g>
    <g id="xtick_16">
     <g id="line2d_16">
      <g>
       <use xlink:href="#m456fcb9ff8" x="403.071348" y="93.103448" style="stroke: #000000; stroke-width: 0.8"/>
      </g>
     </g>
    </g>
   </g>
   <g id="matplotlib.axis_4">
    <g id="ytick_1">
     <g id="line2d_17">
      <defs>
       <path id="m8956a1124e" d="M 0 0 
L -3.5 0 
" style="stroke: #000000; stroke-width: 0.8"/>
      </defs>
      <g>
       <use xlink:href="#m8956a1124e" x="58.5" y="82.688966" style="stroke: #000000; stroke-width: 0.8"/>
      </g>
     </g>
     <g id="text_1">
      <!-- −50 -->
      <g transform="translate(30.395312 86.488185) scale(0.1 -0.1)">
       <defs>
        <path id="DejaVuSans-2212" d="M 678 2272 
L 4684 2272 
L 4684 1741 
L 678 1741 
L 678 2272 
z
" transform="scale(0.015625)"/>
        <path id="DejaVuSans-35" d="M 691 4666 
L 3169 4666 
L 3169 4134 
L 1269 4134 
L 1269 2991 
Q 1406 3038 1543 3061 
Q 1681 3084 1819 3084 
Q 2600 3084 3056 2656 
Q 3513 2228 3513 1497 
Q 3513 744 3044 326 
Q 2575 -91 1722 -91 
Q 1428 -91 1123 -41 
Q 819 9 494 109 
L 494 744 
Q 775 591 1075 516 
Q 1375 441 1709 441 
Q 2250 441 2565 725 
Q 2881 1009 2881 1497 
Q 2881 1984 2565 2268 
Q 2250 2553 1709 2553 
Q 1456 2553 1204 2497 
Q 953 2441 691 2322 
L 691 4666 
z
" transform="scale(0.015625)"/>
        <path id="DejaVuSans-30" d="M 2034 4250 
Q 1547 4250 1301 3770 
Q 1056 3291 1056 2328 
Q 1056 1369 1301 889 
Q 1547 409 2034 409 
Q 2525 409 2770 889 
Q 3016 1369 3016 2328 
Q 3016 3291 2770 3770 
Q 2525 4250 2034 4250 
z
M 2034 4750 
Q 2819 4750 3233 4129 
Q 3647 3509 3647 2328 
Q 3647 1150 3233 529 
Q 2819 -91 2034 -91 
Q 1250 -91 836 529 
Q 422 1150 422 2328 
Q 422 3509 836 4129 
Q 1250 4750 2034 4750 
z
" transform="scale(0.015625)"/>
       </defs>
       <use xlink:href="#DejaVuSans-2212"/>
       <use xlink:href="#DejaVuSans-35" x="83.789062"/>
       <use xlink:href="#DejaVuSans-30" x="147.412109"/>
      </g>
     </g>
    </g>
    <g id="ytick_2">
     <g id="line2d_18">
      <g>
       <use xlink:href="#m8956a1124e" x="58.5" y="66.306581" style="stroke: #000000; stroke-width: 0.8"/>
      </g>
     </g>
     <g id="text_2">
      <!-- 0 -->
      <g transform="translate(45.1375 70.1058) scale(0.1 -0.1)">
       <use xlink:href="#DejaVuSans-30"/>
      </g>
     </g>
    </g>
   </g>
   <g id="line2d_19">
    <path d="M 58.5 87.603682 
L 69.154312 87.497725 
L 73.234687 87.050671 
L 78.901875 86.661359 
L 87.742688 86.096708 
L 95.450063 85.201271 
L 99.757125 84.567179 
L 102.250688 83.995061 
L 104.064188 83.348136 
L 105.197625 82.748236 
L 106.104375 82.075787 
L 107.011125 81.114828 
L 107.691188 80.082258 
L 108.37125 78.607317 
L 109.051313 76.407758 
L 109.731375 73.030584 
L 110.411438 67.999557 
L 111.771563 56.819468 
L 112.224938 55.074296 
L 112.678313 54.361666 
L 113.131688 54.270348 
L 113.585063 54.515913 
L 114.265125 55.215965 
L 115.171875 56.488494 
L 116.532 58.807229 
L 124.69275 73.435352 
L 128.999813 80.561776 
L 130.359938 83.259204 
L 133.080188 89.026861 
L 133.76025 89.896222 
L 134.440313 90.439718 
L 135.347063 90.81583 
L 136.4805 90.998993 
L 138.747375 91.06579 
L 147.3615 90.94477 
L 175.47075 90.31261 
L 207.660375 89.181916 
L 222.848437 88.745729 
L 230.102437 88.837457 
L 239.85 88.759213 
L 242.343562 88.437099 
L 248.01075 88.210848 
L 249.597562 88.07945 
L 252.997875 87.671269 
L 253.904625 87.498408 
L 256.851562 86.992974 
L 260.70525 86.575813 
L 265.919062 86.244111 
L 267.95925 86.043609 
L 272.719687 85.416833 
L 278.160187 84.651832 
L 280.880437 84.046101 
L 282.693937 83.40915 
L 284.054062 82.671808 
L 284.960812 81.949784 
L 285.867562 80.900086 
L 286.547625 79.751324 
L 287.227687 78.079436 
L 287.90775 75.538736 
L 288.587812 71.600591 
L 289.267875 65.897722 
L 290.174625 57.905953 
L 290.628 55.500689 
L 291.081375 54.342031 
L 291.53475 54 
L 291.988125 54.102564 
L 292.668187 54.670427 
L 293.574937 55.821803 
L 294.935062 58.002867 
L 297.428625 62.59157 
L 301.055625 69.197771 
L 304.002562 74.084437 
L 307.629562 80.066548 
L 308.989687 82.764376 
L 312.163312 89.529625 
L 312.843375 90.294532 
L 313.523437 90.749521 
L 314.430187 91.052215 
L 315.790312 91.207726 
L 318.73725 91.23531 
L 331.885125 91.002072 
L 333.925312 90.856232 
L 336.418875 90.604185 
L 341.406 90.382751 
L 359.087625 89.736605 
L 362.26125 89.332625 
L 366.568312 89.023556 
L 373.368937 88.778762 
L 387.876937 88.530741 
L 414.172688 88.266819 
L 420.973313 88.48882 
L 421.2 88.493043 
L 421.2 88.493043 
" clip-path="url(#p30f062ecbb)" style="fill: none; stroke: #800000; stroke-width: 1.5; stroke-linecap: square"/>
   </g>
   <g id="patch_8">
    <path d="M 58.5 93.103448 
L 58.5 52.137931 
" style="fill: none; stroke: #000000; stroke-width: 0.8; stroke-linejoin: miter; stroke-linecap: square"/>
   </g>
   <g id="patch_9">
    <path d="M 58.5 93.103448 
L 421.2 93.103448 
" style="fill: none; stroke: #000000; stroke-width: 0.8; stroke-linejoin: miter; stroke-linecap: square"/>
   </g>
   <g id="legend_1">
    <g id="patch_10">
     <path d="M 376.735 70.280431 
L 415.6 70.280431 
Q 417.2 70.280431 417.2 68.680431 
L 417.2 57.737931 
Q 417.2 56.137931 415.6 56.137931 
L 376.735 56.137931 
Q 375.135 56.137931 375.135 57.737931 
L 375.135 68.680431 
Q 375.135 70.280431 376.735 70.280431 
z
" style="fill: #ffffff; opacity: 0.8; stroke: #cccccc; stroke-linejoin: miter"/>
    </g>
    <g id="line2d_20">
     <path d="M 378.335 62.616681 
L 386.335 62.616681 
L 394.335 62.616681 
" style="fill: none; stroke: #800000; stroke-width: 1.5; stroke-linecap: square"/>
    </g>
    <g id="text_3">
     <!-- Vm -->
     <g transform="translate(400.735 65.416681) scale(0.08 -0.08)">
      <defs>
       <path id="DejaVuSans-56" d="M 1831 0 
L 50 4666 
L 709 4666 
L 2188 738 
L 3669 4666 
L 4325 4666 
L 2547 0 
L 1831 0 
z
" transform="scale(0.015625)"/>
       <path id="DejaVuSans-6d" d="M 3328 2828 
Q 3544 3216 3844 3400 
Q 4144 3584 4550 3584 
Q 5097 3584 5394 3201 
Q 5691 2819 5691 2113 
L 5691 0 
L 5113 0 
L 5113 2094 
Q 5113 2597 4934 2840 
Q 4756 3084 4391 3084 
Q 3944 3084 3684 2787 
Q 3425 2491 3425 1978 
L 3425 0 
L 2847 0 
L 2847 2094 
Q 2847 2600 2669 2842 
Q 2491 3084 2119 3084 
Q 1678 3084 1418 2786 
Q 1159 2488 1159 1978 
L 1159 0 
L 581 0 
L 581 3500 
L 1159 3500 
L 1159 2956 
Q 1356 3278 1631 3431 
Q 1906 3584 2284 3584 
Q 2666 3584 2933 3390 
Q 3200 3197 3328 2828 
z
" transform="scale(0.015625)"/>
      </defs>
      <use xlink:href="#DejaVuSans-56"/>
      <use xlink:href="#DejaVuSans-6d" x="68.408203"/>
     </g>
    </g>
   </g>
  </g>
  <g id="axes_3">
   <g id="patch_11">
    <path d="M 58.5 139.804138 
L 421.2 139.804138 
L 421.2 98.838621 
L 58.5 98.838621 
z
" style="fill: #ffffff"/>
   </g>
   <g id="matplotlib.axis_5">
    <g id="xtick_17">
     <g id="line2d_21">
      <g>
       <use xlink:href="#m456fcb9ff8" x="85.708848" y="139.804138" style="stroke: #000000; stroke-width: 0.8"/>
      </g>
     </g>
    </g>
    <g id="xtick_18">
     <g id="line2d_22">
      <g>
       <use xlink:href="#m456fcb9ff8" x="131.046348" y="139.804138" style="stroke: #000000; stroke-width: 0.8"/>
      </g>
     </g>
    </g>
    <g id="xtick_19">
     <g id="line2d_23">
      <g>
       <use xlink:href="#m456fcb9ff8" x="176.383848" y="139.804138" style="stroke: #000000; stroke-width: 0.8"/>
      </g>
     </g>
    </g>
    <g id="xtick_20">
     <g id="line2d_24">
      <g>
       <use xlink:href="#m456fcb9ff8" x="221.721348" y="139.804138" style="stroke: #000000; stroke-width: 0.8"/>
      </g>
     </g>
    </g>
    <g id="xtick_21">
     <g id="line2d_25">
      <g>
       <use xlink:href="#m456fcb9ff8" x="267.058848" y="139.804138" style="stroke: #000000; stroke-width: 0.8"/>
      </g>
     </g>
    </g>
    <g id="xtick_22">
     <g id="line2d_26">
      <g>
       <use xlink:href="#m456fcb9ff8" x="312.396348" y="139.804138" style="stroke: #000000; stroke-width: 0.8"/>
      </g>
     </g>
    </g>
    <g id="xtick_23">
     <g id="line2d_27">
      <g>
       <use xlink:href="#m456fcb9ff8" x="357.733848" y="139.804138" style="stroke: #000000; stroke-width: 0.8"/>
      </g>
     </g>
    </g>
    <g id="xtick_24">
     <g id="line2d_28">
      <g>
       <use xlink:href="#m456fcb9ff8" x="403.071348" y="139.804138" style="stroke: #000000; stroke-width: 0.8"/>
      </g>
     </g>
    </g>
   </g>
   <g id="matplotlib.axis_6">
    <g id="ytick_3">
     <g id="line2d_29">
      <g>
       <use xlink:href="#m8956a1124e" x="58.5" y="138.459566" style="stroke: #000000; stroke-width: 0.8"/>
      </g>
     </g>
     <g id="text_4">
      <!-- 0 -->
      <g transform="translate(45.1375 142.258785) scale(0.1 -0.1)">
       <use xlink:href="#DejaVuSans-30"/>
      </g>
     </g>
    </g>
    <g id="ytick_4">
     <g id="line2d_30">
      <g>
       <use xlink:href="#m8956a1124e" x="58.5" y="100.449572" style="stroke: #000000; stroke-width: 0.8"/>
      </g>
     </g>
     <g id="text_5">
      <!-- 1 -->
      <g transform="translate(45.1375 104.248791) scale(0.1 -0.1)">
       <defs>
        <path id="DejaVuSans-31" d="M 794 531 
L 1825 531 
L 1825 4091 
L 703 3866 
L 703 4441 
L 1819 4666 
L 2450 4666 
L 2450 531 
L 3481 531 
L 3481 0 
L 794 0 
L 794 531 
z
" transform="scale(0.015625)"/>
       </defs>
       <use xlink:href="#DejaVuSans-31"/>
      </g>
     </g>
    </g>
   </g>
   <g id="line2d_31">
    <path d="M 58.5 136.447602 
L 70.741125 136.348769 
L 90.689625 134.9651 
L 97.49025 133.988338 
L 100.663875 133.339142 
L 102.93075 132.652268 
L 104.517563 131.934229 
L 105.651 131.19389 
L 106.55775 130.364641 
L 107.4645 129.179558 
L 108.144563 127.906722 
L 108.824625 126.095279 
L 109.504688 123.436497 
L 110.18475 119.570715 
L 112.224938 105.783054 
L 112.905 103.485976 
L 113.585063 102.190541 
L 114.265125 101.477505 
L 114.945188 101.088108 
L 115.851938 100.834163 
L 117.212063 100.721447 
L 119.025563 100.802942 
L 120.839063 101.094172 
L 122.199188 101.503688 
L 123.332625 102.03159 
L 124.466063 102.797908 
L 125.372813 103.639256 
L 126.279563 104.742608 
L 127.186313 106.177288 
L 128.093063 108.033271 
L 128.999813 110.429945 
L 129.906563 113.493289 
L 130.813313 117.364295 
L 131.94675 123.269174 
L 133.306875 130.337322 
L 133.986938 132.981056 
L 134.667 134.845632 
L 135.347063 136.060417 
L 136.027125 136.814051 
L 136.707188 137.268549 
L 137.613938 137.60066 
L 138.974063 137.80996 
L 141.467625 137.898474 
L 151.89525 137.87409 
L 191.338875 137.577281 
L 233.729437 137.17758 
L 242.343562 137.056086 
L 255.718125 136.360393 
L 263.198812 135.579964 
L 271.132875 134.838903 
L 277.02675 133.898243 
L 279.973687 133.234744 
L 282.013875 132.558741 
L 283.374 131.903622 
L 284.507437 131.125969 
L 285.414187 130.242551 
L 286.09425 129.330353 
L 286.774312 128.077977 
L 287.454375 126.28775 
L 288.134437 123.641438 
L 288.8145 119.754561 
L 290.854687 105.756301 
L 291.53475 103.451464 
L 292.214812 102.159711 
L 292.894875 101.452023 
L 293.574937 101.06698 
L 294.481687 100.816312 
L 295.841812 100.702776 
L 297.882 100.794275 
L 299.6955 101.085217 
L 301.282312 101.577731 
L 302.41575 102.138281 
L 303.549187 102.948286 
L 304.455937 103.835119 
L 305.362687 104.996366 
L 306.269437 106.5057 
L 307.176187 108.45989 
L 308.082937 110.987995 
L 308.989687 114.250198 
L 309.896437 118.381012 
L 312.843375 133.164306 
L 313.523437 135.019023 
L 314.2035 136.207701 
L 314.883562 136.932784 
L 315.563625 137.362799 
L 316.470375 137.671217 
L 317.8305 137.860688 
L 320.55075 137.93897 
L 333.698625 137.894706 
L 351.606937 137.676689 
L 361.807875 137.48158 
L 370.422 137.223987 
L 385.383375 137.057699 
L 417.573 136.92035 
L 421.2 136.981617 
L 421.2 136.981617 
" clip-path="url(#p5952d45c9e)" style="fill: none; stroke: #1f77b4; stroke-width: 1.5; stroke-linecap: square"/>
   </g>
   <g id="line2d_32">
    <path d="M 58.5 115.80102 
L 74.141437 115.91171 
L 82.528875 116.303539 
L 90.23625 116.845762 
L 96.130125 117.513326 
L 100.890563 118.252037 
L 104.064188 118.940887 
L 106.104375 119.586728 
L 107.4645 120.233583 
L 108.37125 120.875533 
L 109.278 121.830298 
L 110.411438 123.505699 
L 112.224938 126.193428 
L 113.81175 128.159302 
L 115.398563 129.808469 
L 117.212063 131.367709 
L 119.025563 132.635326 
L 120.839063 133.65457 
L 122.87925 134.538722 
L 124.919438 135.162649 
L 126.959625 135.531615 
L 128.773125 135.646501 
L 130.586625 135.552873 
L 132.173438 135.266226 
L 133.76025 134.762771 
L 137.160563 133.36345 
L 143.507812 130.819537 
L 149.628375 128.618141 
L 155.748937 126.650168 
L 162.549562 124.706754 
L 169.350187 122.98879 
L 176.3775 121.446333 
L 183.6315 120.083204 
L 191.338875 118.866242 
L 199.499625 117.810665 
L 208.11375 116.926561 
L 217.407937 116.203682 
L 231.915937 115.358642 
L 243.477 114.836696 
L 252.317812 114.717435 
L 257.304937 114.862438 
L 263.878875 115.303482 
L 271.132875 115.992542 
L 276.573375 116.753141 
L 280.880437 117.560963 
L 283.600687 118.277026 
L 285.414187 118.983488 
L 286.547625 119.652462 
L 287.454375 120.458975 
L 288.361125 121.6565 
L 291.53475 126.512485 
L 293.121562 128.427081 
L 294.935062 130.239577 
L 296.748562 131.718005 
L 298.562062 132.916554 
L 300.375562 133.87399 
L 302.41575 134.691652 
L 304.455937 135.247532 
L 306.269437 135.524816 
L 308.082937 135.597579 
L 309.896437 135.449009 
L 311.48325 135.093384 
L 313.29675 134.43146 
L 325.764562 129.377142 
L 331.885125 127.262019 
L 336.87225 125.751711 
L 342.992812 124.156648 
L 350.020125 122.557839 
L 357.274125 121.132685 
L 362.487937 120.292749 
L 369.288562 119.449121 
L 378.58275 118.534373 
L 389.690437 117.667122 
L 401.931563 116.933939 
L 416.892938 116.280095 
L 421.2 116.077731 
L 421.2 116.077731 
" clip-path="url(#p5952d45c9e)" style="fill: none; stroke: #ff7f0e; stroke-width: 1.5; stroke-linecap: square"/>
   </g>
   <g id="line2d_33">
    <path d="M 58.5 126.384668 
L 75.501562 126.278212 
L 87.742688 125.855418 
L 95.450063 125.375682 
L 102.024 124.768335 
L 105.651 124.242105 
L 107.691188 123.747885 
L 108.824625 123.29625 
L 109.731375 122.719485 
L 110.411438 122.05734 
L 111.318188 120.765861 
L 114.491813 115.55436 
L 115.851938 113.887684 
L 117.212063 112.567666 
L 118.572188 111.541186 
L 120.159 110.649919 
L 121.745813 110.027629 
L 123.559313 109.582639 
L 125.372813 109.370711 
L 127.413 109.367929 
L 129.453188 109.595792 
L 131.493375 110.062735 
L 133.76025 110.833972 
L 143.054438 114.218505 
L 148.948312 116.075884 
L 155.295562 117.838463 
L 161.8695 119.432628 
L 168.896812 120.909514 
L 176.150812 122.205651 
L 183.858187 123.35424 
L 192.018937 124.342559 
L 200.633062 125.16304 
L 210.153937 125.841215 
L 220.581562 126.353924 
L 240.983437 127.03755 
L 250.957687 127.122943 
L 257.531625 126.981759 
L 267.0525 126.498372 
L 274.079812 125.980483 
L 280.880437 125.272915 
L 284.507437 124.695354 
L 286.547625 124.152363 
L 287.681062 123.64507 
L 288.587812 122.980694 
L 289.267875 122.21303 
L 290.174625 120.771648 
L 292.668187 116.457842 
L 294.028312 114.610022 
L 295.388437 113.131222 
L 296.748562 111.96987 
L 298.108687 111.07475 
L 299.6955 110.307612 
L 301.282312 109.784883 
L 303.095812 109.431743 
L 304.909312 109.295738 
L 306.9495 109.368453 
L 308.989687 109.673485 
L 311.029875 110.226823 
L 313.976812 111.321608 
L 320.55075 113.756259 
L 326.444625 115.689146 
L 332.565187 117.463554 
L 338.232375 118.886321 
L 344.806312 120.304586 
L 352.060312 121.640485 
L 359.541 122.793037 
L 365.88825 123.541215 
L 374.502375 124.320304 
L 385.156687 125.051605 
L 397.397812 125.663983 
L 410.999063 126.119834 
L 421.2 126.405578 
L 421.2 126.405578 
" clip-path="url(#p5952d45c9e)" style="fill: none; stroke: #2ca02c; stroke-width: 1.5; stroke-linecap: square"/>
   </g>
   <g id="patch_12">
    <path d="M 58.5 139.804138 
L 58.5 98.838621 
" style="fill: none; stroke: #000000; stroke-width: 0.8; stroke-linejoin: miter; stroke-linecap: square"/>
   </g>
   <g id="patch_13">
    <path d="M 58.5 139.804138 
L 421.2 139.804138 
" style="fill: none; stroke: #000000; stroke-width: 0.8; stroke-linejoin: miter; stroke-linecap: square"/>
   </g>
   <g id="legend_2">
    <g id="patch_14">
     <path d="M 382.2075 138.135129 
L 415.6 138.135129 
Q 417.2 138.135129 417.2 136.535129 
L 417.2 102.107629 
Q 417.2 100.507629 415.6 100.507629 
L 382.2075 100.507629 
Q 380.6075 100.507629 380.6075 102.107629 
L 380.6075 136.535129 
Q 380.6075 138.135129 382.2075 138.135129 
z
" style="fill: #ffffff; opacity: 0.8; stroke: #cccccc; stroke-linejoin: miter"/>
    </g>
    <g id="line2d_34">
     <path d="M 383.8075 106.986379 
L 391.8075 106.986379 
L 399.8075 106.986379 
" style="fill: none; stroke: #1f77b4; stroke-width: 1.5; stroke-linecap: square"/>
    </g>
    <g id="text_6">
     <!-- m -->
     <g transform="translate(406.2075 109.786379) scale(0.08 -0.08)">
      <use xlink:href="#DejaVuSans-6d"/>
     </g>
    </g>
    <g id="line2d_35">
     <path d="M 383.8075 118.728879 
L 391.8075 118.728879 
L 399.8075 118.728879 
" style="fill: none; stroke: #ff7f0e; stroke-width: 1.5; stroke-linecap: square"/>
    </g>
    <g id="text_7">
     <!-- h -->
     <g transform="translate(406.2075 121.528879) scale(0.08 -0.08)">
      <defs>
       <path id="DejaVuSans-68" d="M 3513 2113 
L 3513 0 
L 2938 0 
L 2938 2094 
Q 2938 2591 2744 2837 
Q 2550 3084 2163 3084 
Q 1697 3084 1428 2787 
Q 1159 2491 1159 1978 
L 1159 0 
L 581 0 
L 581 4863 
L 1159 4863 
L 1159 2956 
Q 1366 3272 1645 3428 
Q 1925 3584 2291 3584 
Q 2894 3584 3203 3211 
Q 3513 2838 3513 2113 
z
" transform="scale(0.015625)"/>
      </defs>
      <use xlink:href="#DejaVuSans-68"/>
     </g>
    </g>
    <g id="line2d_36">
     <path d="M 383.8075 130.471379 
L 391.8075 130.471379 
L 399.8075 130.471379 
" style="fill: none; stroke: #2ca02c; stroke-width: 1.5; stroke-linecap: square"/>
    </g>
    <g id="text_8">
     <!-- n -->
     <g transform="translate(406.2075 133.271379) scale(0.08 -0.08)">
      <defs>
       <path id="DejaVuSans-6e" d="M 3513 2113 
L 3513 0 
L 2938 0 
L 2938 2094 
Q 2938 2591 2744 2837 
Q 2550 3084 2163 3084 
Q 1697 3084 1428 2787 
Q 1159 2491 1159 1978 
L 1159 0 
L 581 0 
L 581 3500 
L 1159 3500 
L 1159 2956 
Q 1366 3272 1645 3428 
Q 1925 3584 2291 3584 
Q 2894 3584 3203 3211 
Q 3513 2838 3513 2113 
z
" transform="scale(0.015625)"/>
      </defs>
      <use xlink:href="#DejaVuSans-6e"/>
     </g>
    </g>
   </g>
  </g>
  <g id="axes_4">
   <g id="patch_15">
    <path d="M 58.5 166.022069 
L 421.2 166.022069 
L 421.2 145.53931 
L 58.5 145.53931 
z
" style="fill: #ffffff"/>
   </g>
   <g id="matplotlib.axis_7">
    <g id="xtick_25">
     <g id="line2d_37">
      <g>
       <use xlink:href="#m456fcb9ff8" x="85.708848" y="166.022069" style="stroke: #000000; stroke-width: 0.8"/>
      </g>
     </g>
    </g>
    <g id="xtick_26">
     <g id="line2d_38">
      <g>
       <use xlink:href="#m456fcb9ff8" x="131.046348" y="166.022069" style="stroke: #000000; stroke-width: 0.8"/>
      </g>
     </g>
    </g>
    <g id="xtick_27">
     <g id="line2d_39">
      <g>
       <use xlink:href="#m456fcb9ff8" x="176.383848" y="166.022069" style="stroke: #000000; stroke-width: 0.8"/>
      </g>
     </g>
    </g>
    <g id="xtick_28">
     <g id="line2d_40">
      <g>
       <use xlink:href="#m456fcb9ff8" x="221.721348" y="166.022069" style="stroke: #000000; stroke-width: 0.8"/>
      </g>
     </g>
    </g>
    <g id="xtick_29">
     <g id="line2d_41">
      <g>
       <use xlink:href="#m456fcb9ff8" x="267.058848" y="166.022069" style="stroke: #000000; stroke-width: 0.8"/>
      </g>
     </g>
    </g>
    <g id="xtick_30">
     <g id="line2d_42">
      <g>
       <use xlink:href="#m456fcb9ff8" x="312.396348" y="166.022069" style="stroke: #000000; stroke-width: 0.8"/>
      </g>
     </g>
    </g>
    <g id="xtick_31">
     <g id="line2d_43">
      <g>
       <use xlink:href="#m456fcb9ff8" x="357.733848" y="166.022069" style="stroke: #000000; stroke-width: 0.8"/>
      </g>
     </g>
    </g>
    <g id="xtick_32">
     <g id="line2d_44">
      <g>
       <use xlink:href="#m456fcb9ff8" x="403.071348" y="166.022069" style="stroke: #000000; stroke-width: 0.8"/>
      </g>
     </g>
    </g>
   </g>
   <g id="matplotlib.axis_8"/>
   <g id="LineCollection_3">
    <path d="M 110.638125 165.091034 
L 110.638125 146.470345 
" clip-path="url(#p97b829fbd0)" style="fill: none; stroke: #008000; stroke-width: 1.5"/>
    <path d="M 289.267875 165.091034 
L 289.267875 146.470345 
" clip-path="url(#p97b829fbd0)" style="fill: none; stroke: #008000; stroke-width: 1.5"/>
   </g>
   <g id="patch_16">
    <path d="M 58.5 166.022069 
L 58.5 145.53931 
" style="fill: none; stroke: #000000; stroke-width: 0.8; stroke-linejoin: miter; stroke-linecap: square"/>
   </g>
   <g id="patch_17">
    <path d="M 421.2 166.022069 
L 421.2 145.53931 
" style="fill: none; stroke: #000000; stroke-width: 0.8; stroke-linejoin: miter; stroke-linecap: square"/>
   </g>
   <g id="patch_18">
    <path d="M 58.5 166.022069 
L 421.2 166.022069 
" style="fill: none; stroke: #000000; stroke-width: 0.8; stroke-linejoin: miter; stroke-linecap: square"/>
   </g>
   <g id="patch_19">
    <path d="M 58.5 145.53931 
L 421.2 145.53931 
" style="fill: none; stroke: #000000; stroke-width: 0.8; stroke-linejoin: miter; stroke-linecap: square"/>
   </g>
  </g>
  <g id="axes_5">
   <g id="patch_20">
    <path d="M 58.5 192.24 
L 421.2 192.24 
L 421.2 171.757241 
L 58.5 171.757241 
z
" style="fill: #ffffff"/>
   </g>
   <g id="matplotlib.axis_9">
    <g id="xtick_33">
     <g id="line2d_45">
      <g>
       <use xlink:href="#m456fcb9ff8" x="85.708848" y="192.24" style="stroke: #000000; stroke-width: 0.8"/>
      </g>
     </g>
     <g id="text_9">
      <!-- −20 -->
      <g transform="translate(75.156504 206.838438) scale(0.1 -0.1)">
       <defs>
        <path id="DejaVuSans-32" d="M 1228 531 
L 3431 531 
L 3431 0 
L 469 0 
L 469 531 
Q 828 903 1448 1529 
Q 2069 2156 2228 2338 
Q 2531 2678 2651 2914 
Q 2772 3150 2772 3378 
Q 2772 3750 2511 3984 
Q 2250 4219 1831 4219 
Q 1534 4219 1204 4116 
Q 875 4013 500 3803 
L 500 4441 
Q 881 4594 1212 4672 
Q 1544 4750 1819 4750 
Q 2544 4750 2975 4387 
Q 3406 4025 3406 3419 
Q 3406 3131 3298 2873 
Q 3191 2616 2906 2266 
Q 2828 2175 2409 1742 
Q 1991 1309 1228 531 
z
" transform="scale(0.015625)"/>
       </defs>
       <use xlink:href="#DejaVuSans-2212"/>
       <use xlink:href="#DejaVuSans-32" x="83.789062"/>
       <use xlink:href="#DejaVuSans-30" x="147.412109"/>
      </g>
     </g>
    </g>
    <g id="xtick_34">
     <g id="line2d_46">
      <g>
       <use xlink:href="#m456fcb9ff8" x="131.046348" y="192.24" style="stroke: #000000; stroke-width: 0.8"/>
      </g>
     </g>
     <g id="text_10">
      <!-- −15 -->
      <g transform="translate(120.494004 206.838438) scale(0.1 -0.1)">
       <use xlink:href="#DejaVuSans-2212"/>
       <use xlink:href="#DejaVuSans-31" x="83.789062"/>
       <use xlink:href="#DejaVuSans-35" x="147.412109"/>
      </g>
     </g>
    </g>
    <g id="xtick_35">
     <g id="line2d_47">
      <g>
       <use xlink:href="#m456fcb9ff8" x="176.383848" y="192.24" style="stroke: #000000; stroke-width: 0.8"/>
      </g>
     </g>
     <g id="text_11">
      <!-- −10 -->
      <g transform="translate(165.831504 206.838438) scale(0.1 -0.1)">
       <use xlink:href="#DejaVuSans-2212"/>
       <use xlink:href="#DejaVuSans-31" x="83.789062"/>
       <use xlink:href="#DejaVuSans-30" x="147.412109"/>
      </g>
     </g>
    </g>
    <g id="xtick_36">
     <g id="line2d_48">
      <g>
       <use xlink:href="#m456fcb9ff8" x="221.721348" y="192.24" style="stroke: #000000; stroke-width: 0.8"/>
      </g>
     </g>
     <g id="text_12">
      <!-- −5 -->
      <g transform="translate(214.350254 206.838438) scale(0.1 -0.1)">
       <use xlink:href="#DejaVuSans-2212"/>
       <use xlink:href="#DejaVuSans-35" x="83.789062"/>
      </g>
     </g>
    </g>
    <g id="xtick_37">
     <g id="line2d_49">
      <g>
       <use xlink:href="#m456fcb9ff8" x="267.058848" y="192.24" style="stroke: #000000; stroke-width: 0.8"/>
      </g>
     </g>
     <g id="text_13">
      <!-- 0 -->
      <g transform="translate(263.877598 206.838438) scale(0.1 -0.1)">
       <use xlink:href="#DejaVuSans-30"/>
      </g>
     </g>
    </g>
    <g id="xtick_38">
     <g id="line2d_50">
      <g>
       <use xlink:href="#m456fcb9ff8" x="312.396348" y="192.24" style="stroke: #000000; stroke-width: 0.8"/>
      </g>
     </g>
     <g id="text_14">
      <!-- 5 -->
      <g transform="translate(309.215098 206.838438) scale(0.1 -0.1)">
       <use xlink:href="#DejaVuSans-35"/>
      </g>
     </g>
    </g>
    <g id="xtick_39">
     <g id="line2d_51">
      <g>
       <use xlink:href="#m456fcb9ff8" x="357.733848" y="192.24" style="stroke: #000000; stroke-width: 0.8"/>
      </g>
     </g>
     <g id="text_15">
      <!-- 10 -->
      <g transform="translate(351.371348 206.838438) scale(0.1 -0.1)">
       <use xlink:href="#DejaVuSans-31"/>
       <use xlink:href="#DejaVuSans-30" x="63.623047"/>
      </g>
     </g>
    </g>
    <g id="xtick_40">
     <g id="line2d_52">
      <g>
       <use xlink:href="#m456fcb9ff8" x="403.071348" y="192.24" style="stroke: #000000; stroke-width: 0.8"/>
      </g>
     </g>
     <g id="text_16">
      <!-- 15 -->
      <g transform="translate(396.708848 206.838438) scale(0.1 -0.1)">
       <use xlink:href="#DejaVuSans-31"/>
       <use xlink:href="#DejaVuSans-35" x="63.623047"/>
      </g>
     </g>
    </g>
    <g id="text_17">
     <!-- time (ms) -->
     <g transform="translate(215.588281 220.516563) scale(0.1 -0.1)">
      <defs>
       <path id="DejaVuSans-74" d="M 1172 4494 
L 1172 3500 
L 2356 3500 
L 2356 3053 
L 1172 3053 
L 1172 1153 
Q 1172 725 1289 603 
Q 1406 481 1766 481 
L 2356 481 
L 2356 0 
L 1766 0 
Q 1100 0 847 248 
Q 594 497 594 1153 
L 594 3053 
L 172 3053 
L 172 3500 
L 594 3500 
L 594 4494 
L 1172 4494 
z
" transform="scale(0.015625)"/>
       <path id="DejaVuSans-69" d="M 603 3500 
L 1178 3500 
L 1178 0 
L 603 0 
L 603 3500 
z
M 603 4863 
L 1178 4863 
L 1178 4134 
L 603 4134 
L 603 4863 
z
" transform="scale(0.015625)"/>
       <path id="DejaVuSans-65" d="M 3597 1894 
L 3597 1613 
L 953 1613 
Q 991 1019 1311 708 
Q 1631 397 2203 397 
Q 2534 397 2845 478 
Q 3156 559 3463 722 
L 3463 178 
Q 3153 47 2828 -22 
Q 2503 -91 2169 -91 
Q 1331 -91 842 396 
Q 353 884 353 1716 
Q 353 2575 817 3079 
Q 1281 3584 2069 3584 
Q 2775 3584 3186 3129 
Q 3597 2675 3597 1894 
z
M 3022 2063 
Q 3016 2534 2758 2815 
Q 2500 3097 2075 3097 
Q 1594 3097 1305 2825 
Q 1016 2553 972 2059 
L 3022 2063 
z
" transform="scale(0.015625)"/>
       <path id="DejaVuSans-20" transform="scale(0.015625)"/>
       <path id="DejaVuSans-28" d="M 1984 4856 
Q 1566 4138 1362 3434 
Q 1159 2731 1159 2009 
Q 1159 1288 1364 580 
Q 1569 -128 1984 -844 
L 1484 -844 
Q 1016 -109 783 600 
Q 550 1309 550 2009 
Q 550 2706 781 3412 
Q 1013 4119 1484 4856 
L 1984 4856 
z
" transform="scale(0.015625)"/>
       <path id="DejaVuSans-73" d="M 2834 3397 
L 2834 2853 
Q 2591 2978 2328 3040 
Q 2066 3103 1784 3103 
Q 1356 3103 1142 2972 
Q 928 2841 928 2578 
Q 928 2378 1081 2264 
Q 1234 2150 1697 2047 
L 1894 2003 
Q 2506 1872 2764 1633 
Q 3022 1394 3022 966 
Q 3022 478 2636 193 
Q 2250 -91 1575 -91 
Q 1294 -91 989 -36 
Q 684 19 347 128 
L 347 722 
Q 666 556 975 473 
Q 1284 391 1588 391 
Q 1994 391 2212 530 
Q 2431 669 2431 922 
Q 2431 1156 2273 1281 
Q 2116 1406 1581 1522 
L 1381 1569 
Q 847 1681 609 1914 
Q 372 2147 372 2553 
Q 372 3047 722 3315 
Q 1072 3584 1716 3584 
Q 2034 3584 2315 3537 
Q 2597 3491 2834 3397 
z
" transform="scale(0.015625)"/>
       <path id="DejaVuSans-29" d="M 513 4856 
L 1013 4856 
Q 1481 4119 1714 3412 
Q 1947 2706 1947 2009 
Q 1947 1309 1714 600 
Q 1481 -109 1013 -844 
L 513 -844 
Q 928 -128 1133 580 
Q 1338 1288 1338 2009 
Q 1338 2731 1133 3434 
Q 928 4138 513 4856 
z
" transform="scale(0.015625)"/>
      </defs>
      <use xlink:href="#DejaVuSans-74"/>
      <use xlink:href="#DejaVuSans-69" x="39.208984"/>
      <use xlink:href="#DejaVuSans-6d" x="66.992188"/>
      <use xlink:href="#DejaVuSans-65" x="164.404297"/>
      <use xlink:href="#DejaVuSans-20" x="225.927734"/>
      <use xlink:href="#DejaVuSans-28" x="257.714844"/>
      <use xlink:href="#DejaVuSans-6d" x="296.728516"/>
      <use xlink:href="#DejaVuSans-73" x="394.140625"/>
      <use xlink:href="#DejaVuSans-29" x="446.240234"/>
     </g>
    </g>
   </g>
   <g id="matplotlib.axis_10">
    <g id="ytick_5">
     <g id="line2d_53">
      <g>
       <use xlink:href="#m8956a1124e" x="58.5" y="192.24" style="stroke: #000000; stroke-width: 0.8"/>
      </g>
     </g>
     <g id="text_18">
      <!-- 0 -->
      <g transform="translate(45.1375 196.039219) scale(0.1 -0.1)">
       <use xlink:href="#DejaVuSans-30"/>
      </g>
     </g>
    </g>
    <g id="ytick_6">
     <g id="line2d_54">
      <g>
       <use xlink:href="#m8956a1124e" x="58.5" y="171.757241" style="stroke: #000000; stroke-width: 0.8"/>
      </g>
     </g>
     <g id="text_19">
      <!-- 1 -->
      <g transform="translate(45.1375 175.55646) scale(0.1 -0.1)">
       <use xlink:href="#DejaVuSans-31"/>
      </g>
     </g>
    </g>
   </g>
   <g id="patch_21">
    <path d="M 58.5 192.24 
L 58.5 171.757241 
" style="fill: none; stroke: #000000; stroke-width: 0.8; stroke-linejoin: miter; stroke-linecap: square"/>
   </g>
   <g id="patch_22">
    <path d="M 421.2 192.24 
L 421.2 171.757241 
" style="fill: none; stroke: #000000; stroke-width: 0.8; stroke-linejoin: miter; stroke-linecap: square"/>
   </g>
   <g id="patch_23">
    <path d="M 58.5 192.24 
L 421.2 192.24 
" style="fill: none; stroke: #000000; stroke-width: 0.8; stroke-linejoin: miter; stroke-linecap: square"/>
   </g>
   <g id="patch_24">
    <path d="M 58.5 171.757241 
L 421.2 171.757241 
" style="fill: none; stroke: #000000; stroke-width: 0.8; stroke-linejoin: miter; stroke-linecap: square"/>
   </g>
  </g>
 </g>
 <defs>
  <clipPath id="p7468b27c1a">
   <rect x="58.5" y="25.92" width="362.7" height="20.482759"/>
  </clipPath>
  <clipPath id="p30f062ecbb">
   <rect x="58.5" y="52.137931" width="362.7" height="40.965517"/>
  </clipPath>
  <clipPath id="p5952d45c9e">
   <rect x="58.5" y="98.838621" width="362.7" height="40.965517"/>
  </clipPath>
  <clipPath id="p97b829fbd0">
   <rect x="58.5" y="145.53931" width="362.7" height="20.482759"/>
  </clipPath>
 </defs>
</svg>
