<?xml version="1.0" encoding="utf-8" standalone="no"?>
<!DOCTYPE svg PUBLIC "-//W3C//DTD SVG 1.1//EN"
  "http://www.w3.org/Graphics/SVG/1.1/DTD/svg11.dtd">
<svg xmlns:xlink="http://www.w3.org/1999/xlink" width="720pt" height="432pt" viewBox="0 0 720 432" xmlns="http://www.w3.org/2000/svg" version="1.1">
 <metadata>
  <rdf:RDF xmlns:dc="http://purl.org/dc/elements/1.1/" xmlns:cc="http://creativecommons.org/ns#" xmlns:rdf="http://www.w3.org/1999/02/22-rdf-syntax-ns#">
   <cc:Work>
    <dc:type rdf:resource="http://purl.org/dc/dcmitype/StillImage"/>
    <dc:date>2023-03-09T17:48:44.352616</dc:date>
    <dc:format>image/svg+xml</dc:format>
    <dc:creator>
     <cc:Agent>
      <dc:title>Matplotlib v3.6.2, https://matplotlib.org/</dc:title>
     </cc:Agent>
    </dc:creator>
   </cc:Work>
  </rdf:RDF>
 </metadata>
 <defs>
  <style type="text/css">*{stroke-linejoin: round; stroke-linecap: butt}</style>
 </defs>
 <g id="figure_1">
  <g id="patch_1">
   <path d="M 0 432 
L 720 432 
L 720 0 
L 0 0 
z
" style="fill: #ffffff"/>
  </g>
  <g id="axes_1">
   <g id="patch_2">
    <path d="M 90 384.48 
L 648 384.48 
L 648 51.84 
L 90 51.84 
z
" style="fill: #ffffff"/>
   </g>
   <g id="matplotlib.axis_1">
    <g id="xtick_1">
     <g id="line2d_1">
      <defs>
       <path id="m5458db0ad5" d="M 0 0 
L 0 3.5 
" style="stroke: #000000; stroke-width: 0.8"/>
      </defs>
      <g>
       <use xlink:href="#m5458db0ad5" x="131.333333" y="384.48" style="stroke: #000000; stroke-width: 0.8"/>
      </g>
     </g>
     <g id="text_1">
      <!-- 5 -->
      <g transform="translate(126.879583 402.117813) scale(0.14 -0.14)">
       <defs>
        <path id="DejaVuSans-35" d="M 691 4666 
L 3169 4666 
L 3169 4134 
L 1269 4134 
L 1269 2991 
Q 1406 3038 1543 3061 
Q 1681 3084 1819 3084 
Q 2600 3084 3056 2656 
Q 3513 2228 3513 1497 
Q 3513 744 3044 326 
Q 2575 -91 1722 -91 
Q 1428 -91 1123 -41 
Q 819 9 494 109 
L 494 744 
Q 775 591 1075 516 
Q 1375 441 1709 441 
Q 2250 441 2565 725 
Q 2881 1009 2881 1497 
Q 2881 1984 2565 2268 
Q 2250 2553 1709 2553 
Q 1456 2553 1204 2497 
Q 953 2441 691 2322 
L 691 4666 
z
" transform="scale(0.015625)"/>
       </defs>
       <use xlink:href="#DejaVuSans-35"/>
      </g>
     </g>
    </g>
    <g id="xtick_2">
     <g id="line2d_2">
      <g>
       <use xlink:href="#m5458db0ad5" x="234.666667" y="384.48" style="stroke: #000000; stroke-width: 0.8"/>
      </g>
     </g>
     <g id="text_2">
      <!-- 10 -->
      <g transform="translate(225.759167 402.117813) scale(0.14 -0.14)">
       <defs>
        <path id="DejaVuSans-31" d="M 794 531 
L 1825 531 
L 1825 4091 
L 703 3866 
L 703 4441 
L 1819 4666 
L 2450 4666 
L 2450 531 
L 3481 531 
L 3481 0 
L 794 0 
L 794 531 
z
" transform="scale(0.015625)"/>
        <path id="DejaVuSans-30" d="M 2034 4250 
Q 1547 4250 1301 3770 
Q 1056 3291 1056 2328 
Q 1056 1369 1301 889 
Q 1547 409 2034 409 
Q 2525 409 2770 889 
Q 3016 1369 3016 2328 
Q 3016 3291 2770 3770 
Q 2525 4250 2034 4250 
z
M 2034 4750 
Q 2819 4750 3233 4129 
Q 3647 3509 3647 2328 
Q 3647 1150 3233 529 
Q 2819 -91 2034 -91 
Q 1250 -91 836 529 
Q 422 1150 422 2328 
Q 422 3509 836 4129 
Q 1250 4750 2034 4750 
z
" transform="scale(0.015625)"/>
       </defs>
       <use xlink:href="#DejaVuSans-31"/>
       <use xlink:href="#DejaVuSans-30" x="63.623047"/>
      </g>
     </g>
    </g>
    <g id="xtick_3">
     <g id="line2d_3">
      <g>
       <use xlink:href="#m5458db0ad5" x="338" y="384.48" style="stroke: #000000; stroke-width: 0.8"/>
      </g>
     </g>
     <g id="text_3">
      <!-- 15 -->
      <g transform="translate(329.0925 402.117813) scale(0.14 -0.14)">
       <use xlink:href="#DejaVuSans-31"/>
       <use xlink:href="#DejaVuSans-35" x="63.623047"/>
      </g>
     </g>
    </g>
    <g id="xtick_4">
     <g id="line2d_4">
      <g>
       <use xlink:href="#m5458db0ad5" x="441.333333" y="384.48" style="stroke: #000000; stroke-width: 0.8"/>
      </g>
     </g>
     <g id="text_4">
      <!-- 20 -->
      <g transform="translate(432.425833 402.117813) scale(0.14 -0.14)">
       <defs>
        <path id="DejaVuSans-32" d="M 1228 531 
L 3431 531 
L 3431 0 
L 469 0 
L 469 531 
Q 828 903 1448 1529 
Q 2069 2156 2228 2338 
Q 2531 2678 2651 2914 
Q 2772 3150 2772 3378 
Q 2772 3750 2511 3984 
Q 2250 4219 1831 4219 
Q 1534 4219 1204 4116 
Q 875 4013 500 3803 
L 500 4441 
Q 881 4594 1212 4672 
Q 1544 4750 1819 4750 
Q 2544 4750 2975 4387 
Q 3406 4025 3406 3419 
Q 3406 3131 3298 2873 
Q 3191 2616 2906 2266 
Q 2828 2175 2409 1742 
Q 1991 1309 1228 531 
z
" transform="scale(0.015625)"/>
       </defs>
       <use xlink:href="#DejaVuSans-32"/>
       <use xlink:href="#DejaVuSans-30" x="63.623047"/>
      </g>
     </g>
    </g>
    <g id="xtick_5">
     <g id="line2d_5">
      <g>
       <use xlink:href="#m5458db0ad5" x="544.666667" y="384.48" style="stroke: #000000; stroke-width: 0.8"/>
      </g>
     </g>
     <g id="text_5">
      <!-- 25 -->
      <g transform="translate(535.759167 402.117813) scale(0.14 -0.14)">
       <use xlink:href="#DejaVuSans-32"/>
       <use xlink:href="#DejaVuSans-35" x="63.623047"/>
      </g>
     </g>
    </g>
    <g id="xtick_6">
     <g id="line2d_6">
      <g>
       <use xlink:href="#m5458db0ad5" x="648" y="384.48" style="stroke: #000000; stroke-width: 0.8"/>
      </g>
     </g>
     <g id="text_6">
      <!-- 30 -->
      <g transform="translate(639.0925 402.117813) scale(0.14 -0.14)">
       <defs>
        <path id="DejaVuSans-33" d="M 2597 2516 
Q 3050 2419 3304 2112 
Q 3559 1806 3559 1356 
Q 3559 666 3084 287 
Q 2609 -91 1734 -91 
Q 1441 -91 1130 -33 
Q 819 25 488 141 
L 488 750 
Q 750 597 1062 519 
Q 1375 441 1716 441 
Q 2309 441 2620 675 
Q 2931 909 2931 1356 
Q 2931 1769 2642 2001 
Q 2353 2234 1838 2234 
L 1294 2234 
L 1294 2753 
L 1863 2753 
Q 2328 2753 2575 2939 
Q 2822 3125 2822 3475 
Q 2822 3834 2567 4026 
Q 2313 4219 1838 4219 
Q 1578 4219 1281 4162 
Q 984 4106 628 3988 
L 628 4550 
Q 988 4650 1302 4700 
Q 1616 4750 1894 4750 
Q 2613 4750 3031 4423 
Q 3450 4097 3450 3541 
Q 3450 3153 3228 2886 
Q 3006 2619 2597 2516 
z
" transform="scale(0.015625)"/>
       </defs>
       <use xlink:href="#DejaVuSans-33"/>
       <use xlink:href="#DejaVuSans-30" x="63.623047"/>
      </g>
     </g>
    </g>
    <g id="text_7">
     <!-- n inputs -->
     <g transform="translate(336.6425 421.186875) scale(0.16 -0.16)">
      <defs>
       <path id="DejaVuSans-6e" d="M 3513 2113 
L 3513 0 
L 2938 0 
L 2938 2094 
Q 2938 2591 2744 2837 
Q 2550 3084 2163 3084 
Q 1697 3084 1428 2787 
Q 1159 2491 1159 1978 
L 1159 0 
L 581 0 
L 581 3500 
L 1159 3500 
L 1159 2956 
Q 1366 3272 1645 3428 
Q 1925 3584 2291 3584 
Q 2894 3584 3203 3211 
Q 3513 2838 3513 2113 
z
" transform="scale(0.015625)"/>
       <path id="DejaVuSans-20" transform="scale(0.015625)"/>
       <path id="DejaVuSans-69" d="M 603 3500 
L 1178 3500 
L 1178 0 
L 603 0 
L 603 3500 
z
M 603 4863 
L 1178 4863 
L 1178 4134 
L 603 4134 
L 603 4863 
z
" transform="scale(0.015625)"/>
       <path id="DejaVuSans-70" d="M 1159 525 
L 1159 -1331 
L 581 -1331 
L 581 3500 
L 1159 3500 
L 1159 2969 
Q 1341 3281 1617 3432 
Q 1894 3584 2278 3584 
Q 2916 3584 3314 3078 
Q 3713 2572 3713 1747 
Q 3713 922 3314 415 
Q 2916 -91 2278 -91 
Q 1894 -91 1617 61 
Q 1341 213 1159 525 
z
M 3116 1747 
Q 3116 2381 2855 2742 
Q 2594 3103 2138 3103 
Q 1681 3103 1420 2742 
Q 1159 2381 1159 1747 
Q 1159 1113 1420 752 
Q 1681 391 2138 391 
Q 2594 391 2855 752 
Q 3116 1113 3116 1747 
z
" transform="scale(0.015625)"/>
       <path id="DejaVuSans-75" d="M 544 1381 
L 544 3500 
L 1119 3500 
L 1119 1403 
Q 1119 906 1312 657 
Q 1506 409 1894 409 
Q 2359 409 2629 706 
Q 2900 1003 2900 1516 
L 2900 3500 
L 3475 3500 
L 3475 0 
L 2900 0 
L 2900 538 
Q 2691 219 2414 64 
Q 2138 -91 1772 -91 
Q 1169 -91 856 284 
Q 544 659 544 1381 
z
M 1991 3584 
L 1991 3584 
z
" transform="scale(0.015625)"/>
       <path id="DejaVuSans-74" d="M 1172 4494 
L 1172 3500 
L 2356 3500 
L 2356 3053 
L 1172 3053 
L 1172 1153 
Q 1172 725 1289 603 
Q 1406 481 1766 481 
L 2356 481 
L 2356 0 
L 1766 0 
Q 1100 0 847 248 
Q 594 497 594 1153 
L 594 3053 
L 172 3053 
L 172 3500 
L 594 3500 
L 594 4494 
L 1172 4494 
z
" transform="scale(0.015625)"/>
       <path id="DejaVuSans-73" d="M 2834 3397 
L 2834 2853 
Q 2591 2978 2328 3040 
Q 2066 3103 1784 3103 
Q 1356 3103 1142 2972 
Q 928 2841 928 2578 
Q 928 2378 1081 2264 
Q 1234 2150 1697 2047 
L 1894 2003 
Q 2506 1872 2764 1633 
Q 3022 1394 3022 966 
Q 3022 478 2636 193 
Q 2250 -91 1575 -91 
Q 1294 -91 989 -36 
Q 684 19 347 128 
L 347 722 
Q 666 556 975 473 
Q 1284 391 1588 391 
Q 1994 391 2212 530 
Q 2431 669 2431 922 
Q 2431 1156 2273 1281 
Q 2116 1406 1581 1522 
L 1381 1569 
Q 847 1681 609 1914 
Q 372 2147 372 2553 
Q 372 3047 722 3315 
Q 1072 3584 1716 3584 
Q 2034 3584 2315 3537 
Q 2597 3491 2834 3397 
z
" transform="scale(0.015625)"/>
      </defs>
      <use xlink:href="#DejaVuSans-6e"/>
      <use xlink:href="#DejaVuSans-20" x="63.378906"/>
      <use xlink:href="#DejaVuSans-69" x="95.166016"/>
      <use xlink:href="#DejaVuSans-6e" x="122.949219"/>
      <use xlink:href="#DejaVuSans-70" x="186.328125"/>
      <use xlink:href="#DejaVuSans-75" x="249.804688"/>
      <use xlink:href="#DejaVuSans-74" x="313.183594"/>
      <use xlink:href="#DejaVuSans-73" x="352.392578"/>
     </g>
    </g>
   </g>
   <g id="matplotlib.axis_2">
    <g id="ytick_1">
     <g id="line2d_7">
      <defs>
       <path id="mf940f65de3" d="M 0 0 
L -3.5 0 
" style="stroke: #000000; stroke-width: 0.8"/>
      </defs>
      <g>
       <use xlink:href="#mf940f65de3" x="90" y="369.436017" style="stroke: #000000; stroke-width: 0.8"/>
      </g>
     </g>
     <g id="text_8">
      <!-- 0 -->
      <g transform="translate(74.0925 374.754924) scale(0.14 -0.14)">
       <use xlink:href="#DejaVuSans-30"/>
      </g>
     </g>
    </g>
    <g id="ytick_2">
     <g id="line2d_8">
      <g>
       <use xlink:href="#mf940f65de3" x="90" y="324.035331" style="stroke: #000000; stroke-width: 0.8"/>
      </g>
     </g>
     <g id="text_9">
      <!-- 5 -->
      <g transform="translate(74.0925 329.354238) scale(0.14 -0.14)">
       <use xlink:href="#DejaVuSans-35"/>
      </g>
     </g>
    </g>
    <g id="ytick_3">
     <g id="line2d_9">
      <g>
       <use xlink:href="#mf940f65de3" x="90" y="278.634645" style="stroke: #000000; stroke-width: 0.8"/>
      </g>
     </g>
     <g id="text_10">
      <!-- 10 -->
      <g transform="translate(65.185 283.953552) scale(0.14 -0.14)">
       <use xlink:href="#DejaVuSans-31"/>
       <use xlink:href="#DejaVuSans-30" x="63.623047"/>
      </g>
     </g>
    </g>
    <g id="ytick_4">
     <g id="line2d_10">
      <g>
       <use xlink:href="#mf940f65de3" x="90" y="233.23396" style="stroke: #000000; stroke-width: 0.8"/>
      </g>
     </g>
     <g id="text_11">
      <!-- 15 -->
      <g transform="translate(65.185 238.552866) scale(0.14 -0.14)">
       <use xlink:href="#DejaVuSans-31"/>
       <use xlink:href="#DejaVuSans-35" x="63.623047"/>
      </g>
     </g>
    </g>
    <g id="ytick_5">
     <g id="line2d_11">
      <g>
       <use xlink:href="#mf940f65de3" x="90" y="187.833274" style="stroke: #000000; stroke-width: 0.8"/>
      </g>
     </g>
     <g id="text_12">
      <!-- 20 -->
      <g transform="translate(65.185 193.15218) scale(0.14 -0.14)">
       <use xlink:href="#DejaVuSans-32"/>
       <use xlink:href="#DejaVuSans-30" x="63.623047"/>
      </g>
     </g>
    </g>
    <g id="ytick_6">
     <g id="line2d_12">
      <g>
       <use xlink:href="#mf940f65de3" x="90" y="142.432588" style="stroke: #000000; stroke-width: 0.8"/>
      </g>
     </g>
     <g id="text_13">
      <!-- 25 -->
      <g transform="translate(65.185 147.751494) scale(0.14 -0.14)">
       <use xlink:href="#DejaVuSans-32"/>
       <use xlink:href="#DejaVuSans-35" x="63.623047"/>
      </g>
     </g>
    </g>
    <g id="ytick_7">
     <g id="line2d_13">
      <g>
       <use xlink:href="#mf940f65de3" x="90" y="97.031902" style="stroke: #000000; stroke-width: 0.8"/>
      </g>
     </g>
     <g id="text_14">
      <!-- 30 -->
      <g transform="translate(65.185 102.350808) scale(0.14 -0.14)">
       <use xlink:href="#DejaVuSans-33"/>
       <use xlink:href="#DejaVuSans-30" x="63.623047"/>
      </g>
     </g>
    </g>
    <g id="text_15">
     <!-- van Rossum distance (normalized) -->
     <g transform="translate(57.8575 356.38125) rotate(-90) scale(0.16 -0.16)">
      <defs>
       <path id="DejaVuSans-76" d="M 191 3500 
L 800 3500 
L 1894 563 
L 2988 3500 
L 3597 3500 
L 2284 0 
L 1503 0 
L 191 3500 
z
" transform="scale(0.015625)"/>
       <path id="DejaVuSans-61" d="M 2194 1759 
Q 1497 1759 1228 1600 
Q 959 1441 959 1056 
Q 959 750 1161 570 
Q 1363 391 1709 391 
Q 2188 391 2477 730 
Q 2766 1069 2766 1631 
L 2766 1759 
L 2194 1759 
z
M 3341 1997 
L 3341 0 
L 2766 0 
L 2766 531 
Q 2569 213 2275 61 
Q 1981 -91 1556 -91 
Q 1019 -91 701 211 
Q 384 513 384 1019 
Q 384 1609 779 1909 
Q 1175 2209 1959 2209 
L 2766 2209 
L 2766 2266 
Q 2766 2663 2505 2880 
Q 2244 3097 1772 3097 
Q 1472 3097 1187 3025 
Q 903 2953 641 2809 
L 641 3341 
Q 956 3463 1253 3523 
Q 1550 3584 1831 3584 
Q 2591 3584 2966 3190 
Q 3341 2797 3341 1997 
z
" transform="scale(0.015625)"/>
       <path id="DejaVuSans-52" d="M 2841 2188 
Q 3044 2119 3236 1894 
Q 3428 1669 3622 1275 
L 4263 0 
L 3584 0 
L 2988 1197 
Q 2756 1666 2539 1819 
Q 2322 1972 1947 1972 
L 1259 1972 
L 1259 0 
L 628 0 
L 628 4666 
L 2053 4666 
Q 2853 4666 3247 4331 
Q 3641 3997 3641 3322 
Q 3641 2881 3436 2590 
Q 3231 2300 2841 2188 
z
M 1259 4147 
L 1259 2491 
L 2053 2491 
Q 2509 2491 2742 2702 
Q 2975 2913 2975 3322 
Q 2975 3731 2742 3939 
Q 2509 4147 2053 4147 
L 1259 4147 
z
" transform="scale(0.015625)"/>
       <path id="DejaVuSans-6f" d="M 1959 3097 
Q 1497 3097 1228 2736 
Q 959 2375 959 1747 
Q 959 1119 1226 758 
Q 1494 397 1959 397 
Q 2419 397 2687 759 
Q 2956 1122 2956 1747 
Q 2956 2369 2687 2733 
Q 2419 3097 1959 3097 
z
M 1959 3584 
Q 2709 3584 3137 3096 
Q 3566 2609 3566 1747 
Q 3566 888 3137 398 
Q 2709 -91 1959 -91 
Q 1206 -91 779 398 
Q 353 888 353 1747 
Q 353 2609 779 3096 
Q 1206 3584 1959 3584 
z
" transform="scale(0.015625)"/>
       <path id="DejaVuSans-6d" d="M 3328 2828 
Q 3544 3216 3844 3400 
Q 4144 3584 4550 3584 
Q 5097 3584 5394 3201 
Q 5691 2819 5691 2113 
L 5691 0 
L 5113 0 
L 5113 2094 
Q 5113 2597 4934 2840 
Q 4756 3084 4391 3084 
Q 3944 3084 3684 2787 
Q 3425 2491 3425 1978 
L 3425 0 
L 2847 0 
L 2847 2094 
Q 2847 2600 2669 2842 
Q 2491 3084 2119 3084 
Q 1678 3084 1418 2786 
Q 1159 2488 1159 1978 
L 1159 0 
L 581 0 
L 581 3500 
L 1159 3500 
L 1159 2956 
Q 1356 3278 1631 3431 
Q 1906 3584 2284 3584 
Q 2666 3584 2933 3390 
Q 3200 3197 3328 2828 
z
" transform="scale(0.015625)"/>
       <path id="DejaVuSans-64" d="M 2906 2969 
L 2906 4863 
L 3481 4863 
L 3481 0 
L 2906 0 
L 2906 525 
Q 2725 213 2448 61 
Q 2172 -91 1784 -91 
Q 1150 -91 751 415 
Q 353 922 353 1747 
Q 353 2572 751 3078 
Q 1150 3584 1784 3584 
Q 2172 3584 2448 3432 
Q 2725 3281 2906 2969 
z
M 947 1747 
Q 947 1113 1208 752 
Q 1469 391 1925 391 
Q 2381 391 2643 752 
Q 2906 1113 2906 1747 
Q 2906 2381 2643 2742 
Q 2381 3103 1925 3103 
Q 1469 3103 1208 2742 
Q 947 2381 947 1747 
z
" transform="scale(0.015625)"/>
       <path id="DejaVuSans-63" d="M 3122 3366 
L 3122 2828 
Q 2878 2963 2633 3030 
Q 2388 3097 2138 3097 
Q 1578 3097 1268 2742 
Q 959 2388 959 1747 
Q 959 1106 1268 751 
Q 1578 397 2138 397 
Q 2388 397 2633 464 
Q 2878 531 3122 666 
L 3122 134 
Q 2881 22 2623 -34 
Q 2366 -91 2075 -91 
Q 1284 -91 818 406 
Q 353 903 353 1747 
Q 353 2603 823 3093 
Q 1294 3584 2113 3584 
Q 2378 3584 2631 3529 
Q 2884 3475 3122 3366 
z
" transform="scale(0.015625)"/>
       <path id="DejaVuSans-65" d="M 3597 1894 
L 3597 1613 
L 953 1613 
Q 991 1019 1311 708 
Q 1631 397 2203 397 
Q 2534 397 2845 478 
Q 3156 559 3463 722 
L 3463 178 
Q 3153 47 2828 -22 
Q 2503 -91 2169 -91 
Q 1331 -91 842 396 
Q 353 884 353 1716 
Q 353 2575 817 3079 
Q 1281 3584 2069 3584 
Q 2775 3584 3186 3129 
Q 3597 2675 3597 1894 
z
M 3022 2063 
Q 3016 2534 2758 2815 
Q 2500 3097 2075 3097 
Q 1594 3097 1305 2825 
Q 1016 2553 972 2059 
L 3022 2063 
z
" transform="scale(0.015625)"/>
       <path id="DejaVuSans-28" d="M 1984 4856 
Q 1566 4138 1362 3434 
Q 1159 2731 1159 2009 
Q 1159 1288 1364 580 
Q 1569 -128 1984 -844 
L 1484 -844 
Q 1016 -109 783 600 
Q 550 1309 550 2009 
Q 550 2706 781 3412 
Q 1013 4119 1484 4856 
L 1984 4856 
z
" transform="scale(0.015625)"/>
       <path id="DejaVuSans-72" d="M 2631 2963 
Q 2534 3019 2420 3045 
Q 2306 3072 2169 3072 
Q 1681 3072 1420 2755 
Q 1159 2438 1159 1844 
L 1159 0 
L 581 0 
L 581 3500 
L 1159 3500 
L 1159 2956 
Q 1341 3275 1631 3429 
Q 1922 3584 2338 3584 
Q 2397 3584 2469 3576 
Q 2541 3569 2628 3553 
L 2631 2963 
z
" transform="scale(0.015625)"/>
       <path id="DejaVuSans-6c" d="M 603 4863 
L 1178 4863 
L 1178 0 
L 603 0 
L 603 4863 
z
" transform="scale(0.015625)"/>
       <path id="DejaVuSans-7a" d="M 353 3500 
L 3084 3500 
L 3084 2975 
L 922 459 
L 3084 459 
L 3084 0 
L 275 0 
L 275 525 
L 2438 3041 
L 353 3041 
L 353 3500 
z
" transform="scale(0.015625)"/>
       <path id="DejaVuSans-29" d="M 513 4856 
L 1013 4856 
Q 1481 4119 1714 3412 
Q 1947 2706 1947 2009 
Q 1947 1309 1714 600 
Q 1481 -109 1013 -844 
L 513 -844 
Q 928 -128 1133 580 
Q 1338 1288 1338 2009 
Q 1338 2731 1133 3434 
Q 928 4138 513 4856 
z
" transform="scale(0.015625)"/>
      </defs>
      <use xlink:href="#DejaVuSans-76"/>
      <use xlink:href="#DejaVuSans-61" x="59.179688"/>
      <use xlink:href="#DejaVuSans-6e" x="120.458984"/>
      <use xlink:href="#DejaVuSans-20" x="183.837891"/>
      <use xlink:href="#DejaVuSans-52" x="215.625"/>
      <use xlink:href="#DejaVuSans-6f" x="280.607422"/>
      <use xlink:href="#DejaVuSans-73" x="341.789062"/>
      <use xlink:href="#DejaVuSans-73" x="393.888672"/>
      <use xlink:href="#DejaVuSans-75" x="445.988281"/>
      <use xlink:href="#DejaVuSans-6d" x="509.367188"/>
      <use xlink:href="#DejaVuSans-20" x="606.779297"/>
      <use xlink:href="#DejaVuSans-64" x="638.566406"/>
      <use xlink:href="#DejaVuSans-69" x="702.042969"/>
      <use xlink:href="#DejaVuSans-73" x="729.826172"/>
      <use xlink:href="#DejaVuSans-74" x="781.925781"/>
      <use xlink:href="#DejaVuSans-61" x="821.134766"/>
      <use xlink:href="#DejaVuSans-6e" x="882.414062"/>
      <use xlink:href="#DejaVuSans-63" x="945.792969"/>
      <use xlink:href="#DejaVuSans-65" x="1000.773438"/>
      <use xlink:href="#DejaVuSans-20" x="1062.296875"/>
      <use xlink:href="#DejaVuSans-28" x="1094.083984"/>
      <use xlink:href="#DejaVuSans-6e" x="1133.097656"/>
      <use xlink:href="#DejaVuSans-6f" x="1196.476562"/>
      <use xlink:href="#DejaVuSans-72" x="1257.658203"/>
      <use xlink:href="#DejaVuSans-6d" x="1297.021484"/>
      <use xlink:href="#DejaVuSans-61" x="1394.433594"/>
      <use xlink:href="#DejaVuSans-6c" x="1455.712891"/>
      <use xlink:href="#DejaVuSans-69" x="1483.496094"/>
      <use xlink:href="#DejaVuSans-7a" x="1511.279297"/>
      <use xlink:href="#DejaVuSans-65" x="1563.769531"/>
      <use xlink:href="#DejaVuSans-64" x="1625.292969"/>
      <use xlink:href="#DejaVuSans-29" x="1688.769531"/>
     </g>
    </g>
   </g>
   <g id="line2d_14">
    <path d="M 90 292.915031 
L 110.666667 269.510956 
L 131.333333 249.437644 
L 152 233.857365 
L 172.666667 242.479794 
L 193.333333 249.164969 
L 214 269.523723 
L 234.666667 285.288094 
L 255.333333 290.671175 
L 276 305.942484 
L 296.666667 328.305619 
L 317.333333 335.813512 
L 338 344.748659 
L 358.666667 349.724684 
L 379.333333 352.182459 
L 400 357.552167 
L 420.666667 360.426787 
L 441.333333 362.897006 
L 462 365.889923 
L 482.666667 366.894409 
L 503.333333 364.977766 
L 524 364.09696 
L 544.666667 366.083841 
L 565.333333 366.081221 
L 586 365.17071 
L 606.666667 365.145771 
L 627.333333 365.150862 
L 648 364.266458 
" clip-path="url(#p7ab78b450c)" style="fill: none; stroke: #28d7ff; stroke-width: 1.5; stroke-linecap: square"/>
   </g>
   <g id="line2d_15">
    <path d="M 90 315.233131 
L 110.666667 328.788091 
L 131.333333 343.680868 
L 152 352.71925 
L 172.666667 356.666259 
L 193.333333 359.531918 
L 214 361.168774 
L 234.666667 362.71155 
L 255.333333 363.402492 
L 276 364.259674 
L 296.666667 364.858986 
L 317.333333 366.328676 
L 338 366.754997 
L 358.666667 366.909558 
L 379.333333 367.263122 
L 400 367.200385 
L 420.666667 368.506277 
L 441.333333 368.73878 
L 462 368.461877 
L 482.666667 368.471168 
L 503.333333 368.63678 
L 524 368.656701 
L 544.666667 368.899966 
L 565.333333 368.910342 
L 586 369.076465 
L 606.666667 369.074993 
L 627.333333 368.746178 
L 648 368.758723 
" clip-path="url(#p7ab78b450c)" style="fill: none; stroke: #f30cff; stroke-width: 1.5; stroke-linecap: square"/>
   </g>
   <g id="line2d_16">
    <path d="M 90 331.094097 
L 110.666667 334.939619 
L 131.333333 342.082524 
L 152 348.716448 
L 172.666667 354.031525 
L 193.333333 360.19877 
L 214 361.415786 
L 234.666667 364.116472 
L 255.333333 366.048482 
L 276 366.581905 
L 296.666667 366.987469 
L 317.333333 366.553249 
L 338 367.042381 
L 358.666667 367.76383 
L 379.333333 367.907685 
L 400 368.047417 
L 420.666667 368.450127 
L 441.333333 368.460675 
L 462 368.18458 
L 482.666667 368.51312 
L 503.333333 368.855001 
L 524 368.875424 
L 544.666667 368.905919 
L 565.333333 368.900455 
L 586 368.934294 
L 606.666667 368.939828 
L 627.333333 368.942853 
L 648 368.969724 
" clip-path="url(#p7ab78b450c)" style="fill: none; stroke: #6f90ff; stroke-width: 1.5; stroke-linecap: square"/>
   </g>
   <g id="line2d_17">
    <path d="M 90 274.270989 
L 110.666667 286.046109 
L 131.333333 303.428681 
L 152 321.697066 
L 172.666667 335.362041 
L 193.333333 344.914159 
L 214 350.140172 
L 234.666667 355.159412 
L 255.333333 357.402911 
L 276 359.121912 
L 296.666667 359.833278 
L 317.333333 361.375489 
L 338 362.499331 
L 358.666667 363.973298 
L 379.333333 364.830063 
L 400 366.24813 
L 420.666667 366.88534 
L 441.333333 366.905649 
L 462 366.719799 
L 482.666667 366.941365 
L 503.333333 367.329338 
L 524 367.725835 
L 544.666667 368.309378 
L 565.333333 368.292155 
L 586 367.821818 
L 606.666667 368.353711 
L 627.333333 368.561702 
L 648 368.760718 
" clip-path="url(#p7ab78b450c)" style="fill: none; stroke: #d827ff; stroke-width: 1.5; stroke-linecap: square"/>
   </g>
   <g id="line2d_18">
    <path d="M 90 233.960243 
L 110.666667 235.900183 
L 131.333333 247.51638 
L 152 258.507261 
L 172.666667 274.457932 
L 193.333333 287.843194 
L 214 299.77211 
L 234.666667 310.534133 
L 255.333333 324.070288 
L 276 330.265508 
L 296.666667 335.219371 
L 317.333333 345.328899 
L 338 351.585355 
L 358.666667 352.637184 
L 379.333333 354.190541 
L 400 358.743167 
L 420.666667 359.656798 
L 441.333333 360.403654 
L 462 362.513982 
L 482.666667 363.099692 
L 503.333333 362.541986 
L 524 364.455982 
L 544.666667 365.140399 
L 565.333333 365.91463 
L 586 365.915567 
L 606.666667 365.950619 
L 627.333333 365.977695 
L 648 365.969326 
" clip-path="url(#p7ab78b450c)" style="fill: none; stroke: #3dc2ff; stroke-width: 1.5; stroke-linecap: square"/>
   </g>
   <g id="line2d_19">
    <path d="M 90 279.913756 
L 110.666667 291.022985 
L 131.333333 305.929832 
L 152 325.016543 
L 172.666667 333.461503 
L 193.333333 340.036886 
L 214 346.366112 
L 234.666667 350.192103 
L 255.333333 354.201788 
L 276 355.686791 
L 296.666667 356.809047 
L 317.333333 358.803047 
L 338 360.443668 
L 358.666667 362.101181 
L 379.333333 362.617883 
L 400 363.141893 
L 420.666667 363.230161 
L 441.333333 363.824186 
L 462 363.412778 
L 482.666667 363.449491 
L 503.333333 363.998172 
L 524 363.999835 
L 544.666667 364.049352 
L 565.333333 364.07834 
L 586 364.107296 
L 606.666667 364.109118 
L 627.333333 364.120246 
L 648 364.125671 
" clip-path="url(#p7ab78b450c)" style="fill: none; stroke: #4bb4ff; stroke-width: 1.5; stroke-linecap: square"/>
   </g>
   <g id="line2d_20">
    <path d="M 90 345.379421 
L 110.666667 351.765878 
L 131.333333 355.528036 
L 152 359.975101 
L 172.666667 361.261441 
L 193.333333 362.781274 
L 214 365.205479 
L 234.666667 365.942301 
L 255.333333 366.785113 
L 276 367.525306 
L 296.666667 367.55068 
L 317.333333 367.667953 
L 338 367.770582 
L 358.666667 367.844527 
L 379.333333 367.899688 
L 400 368.216557 
L 420.666667 368.237168 
L 441.333333 368.097766 
L 462 368.398026 
L 482.666667 368.404562 
L 503.333333 368.410354 
L 524 368.423683 
L 544.666667 368.419887 
L 565.333333 368.432894 
L 586 368.428821 
L 606.666667 368.727537 
L 627.333333 368.754632 
L 648 368.757492 
" clip-path="url(#p7ab78b450c)" style="fill: none; stroke: #817eff; stroke-width: 1.5; stroke-linecap: square"/>
   </g>
   <g id="line2d_21">
    <path d="M 90 336.880532 
L 110.666667 346.140455 
L 131.333333 352.82709 
L 152 356.833415 
L 172.666667 360.452807 
L 193.333333 363.891168 
L 214 365.354204 
L 234.666667 364.94681 
L 255.333333 366.772315 
L 276 366.921934 
L 296.666667 367.271146 
L 317.333333 367.191209 
L 338 367.861881 
L 358.666667 367.900537 
L 379.333333 368.658831 
L 400 368.83499 
L 420.666667 369.055233 
L 441.333333 369.262942 
L 462 369.120184 
L 482.666667 368.954865 
L 503.333333 369.157811 
L 524 369.159831 
L 544.666667 368.982488 
L 565.333333 369.164473 
L 586 369.343699 
L 606.666667 369.348025 
L 627.333333 368.982708 
L 648 368.986778 
" clip-path="url(#p7ab78b450c)" style="fill: none; stroke: #d32cff; stroke-width: 1.5; stroke-linecap: square"/>
   </g>
   <g id="line2d_22">
    <path d="M 90 337.554091 
L 110.666667 338.474417 
L 131.333333 345.918493 
L 152 350.823366 
L 172.666667 355.006092 
L 193.333333 357.908047 
L 214 359.445484 
L 234.666667 360.751159 
L 255.333333 361.856832 
L 276 363.859855 
L 296.666667 364.447849 
L 317.333333 365.451358 
L 338 365.207351 
L 358.666667 365.546646 
L 379.333333 365.287854 
L 400 364.99468 
L 420.666667 365.662458 
L 441.333333 365.955755 
L 462 365.379588 
L 482.666667 365.442756 
L 503.333333 365.124586 
L 524 365.71676 
L 544.666667 365.415741 
L 565.333333 365.745162 
L 586 366.111926 
L 606.666667 365.795143 
L 627.333333 365.781477 
L 648 365.799944 
" clip-path="url(#p7ab78b450c)" style="fill: none; stroke: #7887ff; stroke-width: 1.5; stroke-linecap: square"/>
   </g>
   <g id="line2d_23">
    <path d="M 90 337.436048 
L 110.666667 343.111476 
L 131.333333 347.423452 
L 152 348.695765 
L 172.666667 352.861367 
L 193.333333 357.836576 
L 214 357.736405 
L 234.666667 360.578561 
L 255.333333 362.384933 
L 276 363.321597 
L 296.666667 365.605422 
L 317.333333 365.86741 
L 338 366.606315 
L 358.666667 367.806438 
L 379.333333 367.595089 
L 400 368.490955 
L 420.666667 368.528775 
L 441.333333 368.553105 
L 462 368.865994 
L 482.666667 368.557089 
L 503.333333 368.582664 
L 524 368.605297 
L 544.666667 368.450827 
L 565.333333 368.446715 
L 586 368.450492 
L 606.666667 368.448106 
L 627.333333 368.458268 
L 648 368.762858 
" clip-path="url(#p7ab78b450c)" style="fill: none; stroke: #8679ff; stroke-width: 1.5; stroke-linecap: square"/>
   </g>
   <g id="line2d_24">
    <path d="M 90 294.57701 
L 110.666667 303.22648 
L 131.333333 313.555052 
L 152 327.409481 
L 172.666667 338.765872 
L 193.333333 347.639986 
L 214 352.835236 
L 234.666667 356.486125 
L 255.333333 358.94905 
L 276 359.578009 
L 296.666667 360.450585 
L 317.333333 362.546094 
L 338 364.041929 
L 358.666667 365.066164 
L 379.333333 366.16509 
L 400 367.009437 
L 420.666667 367.738921 
L 441.333333 367.980779 
L 462 368.405896 
L 482.666667 368.450124 
L 503.333333 368.689628 
L 524 368.812946 
L 544.666667 369.193481 
L 565.333333 369.102136 
L 586 369.259022 
L 606.666667 369.080704 
L 627.333333 368.952032 
L 648 368.973026 
" clip-path="url(#p7ab78b450c)" style="fill: none; stroke: #d728ff; stroke-width: 1.5; stroke-linecap: square"/>
   </g>
   <g id="line2d_25">
    <path d="M 90 173.766776 
L 110.666667 137.347266 
L 131.333333 142.927133 
L 152 166.399606 
L 172.666667 186.897999 
L 193.333333 214.122438 
L 214 233.968404 
L 234.666667 267.090619 
L 255.333333 281.330298 
L 276 304.440121 
L 296.666667 315.875549 
L 317.333333 324.062942 
L 338 326.412215 
L 358.666667 334.745153 
L 379.333333 338.423327 
L 400 340.819751 
L 420.666667 343.439635 
L 441.333333 341.821164 
L 462 345.543791 
L 482.666667 346.832543 
L 503.333333 346.967359 
L 524 348.283166 
L 544.666667 347.584881 
L 565.333333 346.547799 
L 586 347.869117 
L 606.666667 348.218187 
L 627.333333 349.418032 
L 648 351.662018 
" clip-path="url(#p7ab78b450c)" style="fill: none; stroke: #1fe0ff; stroke-width: 1.5; stroke-linecap: square"/>
   </g>
   <g id="line2d_26">
    <path d="M 90 289.793715 
L 110.666667 303.094436 
L 131.333333 317.788522 
L 152 329.795422 
L 172.666667 338.715783 
L 193.333333 344.027596 
L 214 347.997214 
L 234.666667 352.846478 
L 255.333333 354.029133 
L 276 355.558311 
L 296.666667 356.118232 
L 317.333333 357.707977 
L 338 358.988559 
L 358.666667 360.042722 
L 379.333333 360.855126 
L 400 361.248555 
L 420.666667 361.955969 
L 441.333333 363.18042 
L 462 363.01305 
L 482.666667 363.796691 
L 503.333333 363.556848 
L 524 364.037856 
L 544.666667 363.739878 
L 565.333333 364.054948 
L 586 364.058616 
L 606.666667 364.527099 
L 627.333333 364.553743 
L 648 364.737181 
" clip-path="url(#p7ab78b450c)" style="fill: none; stroke: #ac53ff; stroke-width: 1.5; stroke-linecap: square"/>
   </g>
   <g id="line2d_27">
    <path d="M 90 118.023728 
L 110.666667 157.86642 
L 131.333333 194.43249 
L 152 229.032524 
L 172.666667 255.613353 
L 193.333333 272.580483 
L 214 295.685291 
L 234.666667 311.641741 
L 255.333333 321.132273 
L 276 328.931872 
L 296.666667 331.593813 
L 317.333333 335.450338 
L 338 336.195572 
L 358.666667 341.382574 
L 379.333333 344.676685 
L 400 345.869654 
L 420.666667 346.109126 
L 441.333333 347.832986 
L 462 348.619975 
L 482.666667 351.391357 
L 503.333333 351.398568 
L 524 353.157716 
L 544.666667 353.251558 
L 565.333333 353.818086 
L 586 353.345087 
L 606.666667 353.867892 
L 627.333333 353.880293 
L 648 353.431169 
" clip-path="url(#p7ab78b450c)" style="fill: none; stroke: #49b6ff; stroke-width: 1.5; stroke-linecap: square"/>
   </g>
   <g id="line2d_28">
    <path d="M 90 351.105658 
L 110.666667 356.709281 
L 131.333333 360.68427 
L 152 362.651961 
L 172.666667 364.36965 
L 193.333333 365.470854 
L 214 366.20065 
L 234.666667 366.122004 
L 255.333333 366.475751 
L 276 367.015472 
L 296.666667 366.714631 
L 317.333333 367.044169 
L 338 367.020888 
L 358.666667 367.043018 
L 379.333333 367.364513 
L 400 367.674295 
L 420.666667 368.022703 
L 441.333333 368.038181 
L 462 368.364438 
L 482.666667 368.673868 
L 503.333333 368.692285 
L 524 368.716277 
L 544.666667 368.729223 
L 565.333333 368.723911 
L 586 368.723948 
L 606.666667 368.73886 
L 627.333333 368.733099 
L 648 368.734623 
" clip-path="url(#p7ab78b450c)" style="fill: none; stroke: #7d82ff; stroke-width: 1.5; stroke-linecap: square"/>
   </g>
   <g id="line2d_29">
    <path d="M 90 249.679756 
L 110.666667 237.574413 
L 131.333333 237.404064 
L 152 248.292552 
L 172.666667 270.437168 
L 193.333333 283.660094 
L 214 298.006535 
L 234.666667 310.44192 
L 255.333333 322.961898 
L 276 339.89071 
L 296.666667 339.341121 
L 317.333333 348.046081 
L 338 349.520095 
L 358.666667 353.206726 
L 379.333333 351.756166 
L 400 355.014099 
L 420.666667 355.351794 
L 441.333333 354.606942 
L 462 355.576414 
L 482.666667 356.457543 
L 503.333333 357.338568 
L 524 358.216258 
L 544.666667 360.515929 
L 565.333333 358.949276 
L 586 358.941037 
L 606.666667 358.971001 
L 627.333333 359.787937 
L 648 359.814503 
" clip-path="url(#p7ab78b450c)" style="fill: none; stroke: #2dd2ff; stroke-width: 1.5; stroke-linecap: square"/>
   </g>
   <g id="line2d_30">
    <path d="M 90 270.004616 
L 110.666667 282.611231 
L 131.333333 303.45551 
L 152 321.540684 
L 172.666667 335.310935 
L 193.333333 342.57955 
L 214 346.495664 
L 234.666667 351.86226 
L 255.333333 355.910388 
L 276 358.959789 
L 296.666667 360.59798 
L 317.333333 361.569467 
L 338 362.701231 
L 358.666667 363.67695 
L 379.333333 362.962017 
L 400 364.622226 
L 420.666667 364.589319 
L 441.333333 364.960071 
L 462 365.841709 
L 482.666667 365.93467 
L 503.333333 365.97376 
L 524 366.254944 
L 544.666667 366.26133 
L 565.333333 366.29065 
L 586 366.569154 
L 606.666667 367.115825 
L 627.333333 367.117107 
L 648 367.127906 
" clip-path="url(#p7ab78b450c)" style="fill: none; stroke: #8e71ff; stroke-width: 1.5; stroke-linecap: square"/>
   </g>
   <g id="line2d_31">
    <path d="M 90 332.264496 
L 110.666667 331.432415 
L 131.333333 332.880005 
L 152 334.982443 
L 172.666667 336.531249 
L 193.333333 341.609893 
L 214 347.334966 
L 234.666667 348.578847 
L 255.333333 352.179605 
L 276 355.811644 
L 296.666667 359.927065 
L 317.333333 362.778402 
L 338 363.803251 
L 358.666667 364.554379 
L 379.333333 365.888527 
L 400 366.317544 
L 420.666667 366.805381 
L 441.333333 366.65907 
L 462 366.464975 
L 482.666667 366.898864 
L 503.333333 367.6111 
L 524 367.642378 
L 544.666667 367.923597 
L 565.333333 368.408787 
L 586 368.727949 
L 606.666667 368.794155 
L 627.333333 368.795002 
L 648 368.812713 
" clip-path="url(#p7ab78b450c)" style="fill: none; stroke: #9966ff; stroke-width: 1.5; stroke-linecap: square"/>
   </g>
   <g id="line2d_32">
    <path d="M 90 277.294279 
L 110.666667 249.479382 
L 131.333333 238.713601 
L 152 216.45066 
L 172.666667 200.652961 
L 193.333333 191.851106 
L 214 196.15228 
L 234.666667 202.729227 
L 255.333333 242.67998 
L 276 263.649388 
L 296.666667 272.518333 
L 317.333333 300.325677 
L 338 307.346275 
L 358.666667 316.182366 
L 379.333333 333.699484 
L 400 340.210651 
L 420.666667 340.374956 
L 441.333333 342.84434 
L 462 348.768062 
L 482.666667 351.340428 
L 503.333333 349.684363 
L 524 356.056068 
L 544.666667 356.090979 
L 565.333333 353.975976 
L 586 356.121442 
L 606.666667 356.289114 
L 627.333333 358.415593 
L 648 358.4166 
" clip-path="url(#p7ab78b450c)" style="fill: none; stroke: #12edff; stroke-width: 1.5; stroke-linecap: square"/>
   </g>
   <g id="line2d_33">
    <path d="M 90 354.039202 
L 110.666667 355.913314 
L 131.333333 359.148308 
L 152 360.870887 
L 172.666667 362.652464 
L 193.333333 366.160214 
L 214 367.04599 
L 234.666667 366.712143 
L 255.333333 367.777525 
L 276 368.466881 
L 296.666667 368.597171 
L 317.333333 369.236014 
L 338 369.282341 
L 358.666667 369.285072 
L 379.333333 369.30007 
L 400 369.30988 
L 420.666667 369.3247 
L 441.333333 369.334881 
L 462 369.335343 
L 482.666667 369.338069 
L 503.333333 369.345083 
L 524 369.347093 
L 544.666667 369.34852 
L 565.333333 369.344266 
L 586 369.348777 
L 606.666667 369.34567 
L 627.333333 369.345766 
L 648 369.348064 
" clip-path="url(#p7ab78b450c)" style="fill: none; stroke: #7e81ff; stroke-width: 1.5; stroke-linecap: square"/>
   </g>
   <g id="line2d_34">
    <path d="M 90 353.982124 
L 110.666667 359.984821 
L 131.333333 363.900751 
L 152 365.031596 
L 172.666667 366.561644 
L 193.333333 367.614396 
L 214 368.614907 
L 234.666667 368.740974 
L 255.333333 368.835031 
L 276 368.615279 
L 296.666667 368.924852 
L 317.333333 368.992914 
L 338 368.997042 
L 358.666667 369.031414 
L 379.333333 369.044432 
L 400 369.344777 
L 420.666667 369.351117 
L 441.333333 369.343499 
L 462 369.347588 
L 482.666667 369.352059 
L 503.333333 369.354039 
L 524 369.350853 
L 544.666667 369.355034 
L 565.333333 369.344408 
L 586 369.353244 
L 606.666667 369.348484 
L 627.333333 369.358791 
L 648 369.0687 
" clip-path="url(#p7ab78b450c)" style="fill: none; stroke: #857aff; stroke-width: 1.5; stroke-linecap: square"/>
   </g>
   <g id="line2d_35">
    <path d="M 90 181.140767 
L 110.666667 168.872439 
L 131.333333 176.447772 
L 152 189.609699 
L 172.666667 194.722837 
L 193.333333 222.457645 
L 214 253.501836 
L 234.666667 286.257706 
L 255.333333 304.602468 
L 276 317.447762 
L 296.666667 330.183259 
L 317.333333 337.89357 
L 338 339.8463 
L 358.666667 339.286599 
L 379.333333 342.036279 
L 400 345.53363 
L 420.666667 352.914117 
L 441.333333 351.18348 
L 462 353.036296 
L 482.666667 355.067361 
L 503.333333 356.989774 
L 524 357.046979 
L 544.666667 357.114719 
L 565.333333 357.178453 
L 586 357.166671 
L 606.666667 357.164097 
L 627.333333 357.173917 
L 648 357.158964 
" clip-path="url(#p7ab78b450c)" style="fill: none; stroke: #16e9ff; stroke-width: 1.5; stroke-linecap: square"/>
   </g>
   <g id="line2d_36">
    <path d="M 90 349.489901 
L 110.666667 354.800525 
L 131.333333 358.810225 
L 152 361.622978 
L 172.666667 363.997841 
L 193.333333 365.305673 
L 214 365.830673 
L 234.666667 366.218299 
L 255.333333 366.918432 
L 276 367.179501 
L 296.666667 367.864049 
L 317.333333 368.229964 
L 338 368.342699 
L 358.666667 368.331668 
L 379.333333 368.367546 
L 400 368.378815 
L 420.666667 368.955219 
L 441.333333 368.955009 
L 462 369.021155 
L 482.666667 369.042084 
L 503.333333 368.748091 
L 524 369.050388 
L 544.666667 369.352129 
L 565.333333 369.334337 
L 586 369.332803 
L 606.666667 369.043289 
L 627.333333 369.035731 
L 648 369.343747 
" clip-path="url(#p7ab78b450c)" style="fill: none; stroke: #817eff; stroke-width: 1.5; stroke-linecap: square"/>
   </g>
   <g id="line2d_37">
    <path d="M 90 324.488048 
L 110.666667 329.609652 
L 131.333333 339.093391 
L 152 345.371204 
L 172.666667 349.509155 
L 193.333333 353.800578 
L 214 354.734816 
L 234.666667 357.414083 
L 255.333333 361.800855 
L 276 362.833091 
L 296.666667 363.64196 
L 317.333333 364.774926 
L 338 365.462061 
L 358.666667 365.920548 
L 379.333333 366.957255 
L 400 367.019991 
L 420.666667 367.08126 
L 441.333333 368.155528 
L 462 368.481787 
L 482.666667 368.539937 
L 503.333333 368.584924 
L 524 368.556623 
L 544.666667 368.576813 
L 565.333333 368.579575 
L 586 368.596698 
L 606.666667 368.58379 
L 627.333333 368.605415 
L 648 368.618505 
" clip-path="url(#p7ab78b450c)" style="fill: none; stroke: #758aff; stroke-width: 1.5; stroke-linecap: square"/>
   </g>
   <g id="line2d_38">
    <path d="M 90 139.721059 
L 110.666667 97.319743 
L 131.333333 66.96 
L 152 119.941288 
L 172.666667 170.055443 
L 193.333333 196.307891 
L 214 224.91216 
L 234.666667 253.326193 
L 255.333333 284.044742 
L 276 296.330416 
L 296.666667 308.759935 
L 317.333333 316.259266 
L 338 326.542875 
L 358.666667 331.585738 
L 379.333333 341.674018 
L 400 344.440332 
L 420.666667 349.49982 
L 441.333333 349.614243 
L 462 349.631227 
L 482.666667 349.815553 
L 503.333333 349.691652 
L 524 349.48251 
L 544.666667 349.573217 
L 565.333333 349.578032 
L 586 349.822503 
L 606.666667 349.961253 
L 627.333333 349.965773 
L 648 350.049835 
" clip-path="url(#p7ab78b450c)" style="fill: none; stroke: #10efff; stroke-width: 1.5; stroke-linecap: square"/>
   </g>
   <g id="line2d_39">
    <path d="M 90 353.754976 
L 110.666667 358.755138 
L 131.333333 361.598379 
L 152 363.562703 
L 172.666667 365.429194 
L 193.333333 366.480286 
L 214 367.600381 
L 234.666667 368.064578 
L 255.333333 368.541795 
L 276 368.941962 
L 296.666667 368.929558 
L 317.333333 368.945668 
L 338 368.989898 
L 358.666667 369.313346 
L 379.333333 369.31629 
L 400 369.319715 
L 420.666667 369.336384 
L 441.333333 369.33993 
L 462 369.346226 
L 482.666667 369.350421 
L 503.333333 369.345816 
L 524 369.349926 
L 544.666667 369.353097 
L 565.333333 369.354451 
L 586 369.357748 
L 606.666667 369.36 
L 627.333333 369.356879 
L 648 369.357655 
" clip-path="url(#p7ab78b450c)" style="fill: none; stroke: #807fff; stroke-width: 1.5; stroke-linecap: square"/>
   </g>
   <g id="patch_3">
    <path d="M 90 384.48 
L 90 51.84 
" style="fill: none; stroke: #000000; stroke-width: 0.8; stroke-linejoin: miter; stroke-linecap: square"/>
   </g>
   <g id="patch_4">
    <path d="M 90 384.48 
L 648 384.48 
" style="fill: none; stroke: #000000; stroke-width: 0.8; stroke-linejoin: miter; stroke-linecap: square"/>
   </g>
  </g>
 </g>
 <defs>
  <clipPath id="p7ab78b450c">
   <rect x="90" y="51.84" width="558" height="332.64"/>
  </clipPath>
 </defs>
</svg>
