<?xml version="1.0" encoding="utf-8" standalone="no"?>
<!DOCTYPE svg PUBLIC "-//W3C//DTD SVG 1.1//EN"
  "http://www.w3.org/Graphics/SVG/1.1/DTD/svg11.dtd">
<svg xmlns:xlink="http://www.w3.org/1999/xlink" width="468pt" height="216pt" viewBox="0 0 468 216" xmlns="http://www.w3.org/2000/svg" version="1.1">
 <metadata>
  <rdf:RDF xmlns:dc="http://purl.org/dc/elements/1.1/" xmlns:cc="http://creativecommons.org/ns#" xmlns:rdf="http://www.w3.org/1999/02/22-rdf-syntax-ns#">
   <cc:Work>
    <dc:type rdf:resource="http://purl.org/dc/dcmitype/StillImage"/>
    <dc:date>2023-04-04T13:26:48.875314</dc:date>
    <dc:format>image/svg+xml</dc:format>
    <dc:creator>
     <cc:Agent>
      <dc:title>Matplotlib v3.6.2, https://matplotlib.org/</dc:title>
     </cc:Agent>
    </dc:creator>
   </cc:Work>
  </rdf:RDF>
 </metadata>
 <defs>
  <style type="text/css">*{stroke-linejoin: round; stroke-linecap: butt}</style>
 </defs>
 <g id="figure_1">
  <g id="patch_1">
   <path d="M 0 216 
L 468 216 
L 468 0 
L 0 0 
z
" style="fill: #ffffff"/>
  </g>
  <g id="axes_1">
   <g id="patch_2">
    <path d="M 58.5 192.24 
L 421.2 192.24 
L 421.2 25.92 
L 58.5 25.92 
z
" style="fill: #ffffff"/>
   </g>
   <g id="matplotlib.axis_1">
    <g id="xtick_1">
     <g id="line2d_1">
      <defs>
       <path id="me515198a74" d="M 0 0 
L 0 3.5 
" style="stroke: #000000; stroke-width: 0.8"/>
      </defs>
      <g>
       <use xlink:href="#me515198a74" x="85.366667" y="192.24" style="stroke: #000000; stroke-width: 0.8"/>
      </g>
     </g>
     <g id="text_1">
      <!-- 5 -->
      <g transform="translate(82.185417 206.838437) scale(0.1 -0.1)">
       <defs>
        <path id="DejaVuSans-35" d="M 691 4666 
L 3169 4666 
L 3169 4134 
L 1269 4134 
L 1269 2991 
Q 1406 3038 1543 3061 
Q 1681 3084 1819 3084 
Q 2600 3084 3056 2656 
Q 3513 2228 3513 1497 
Q 3513 744 3044 326 
Q 2575 -91 1722 -91 
Q 1428 -91 1123 -41 
Q 819 9 494 109 
L 494 744 
Q 775 591 1075 516 
Q 1375 441 1709 441 
Q 2250 441 2565 725 
Q 2881 1009 2881 1497 
Q 2881 1984 2565 2268 
Q 2250 2553 1709 2553 
Q 1456 2553 1204 2497 
Q 953 2441 691 2322 
L 691 4666 
z
" transform="scale(0.015625)"/>
       </defs>
       <use xlink:href="#DejaVuSans-35"/>
      </g>
     </g>
    </g>
    <g id="xtick_2">
     <g id="line2d_2">
      <g>
       <use xlink:href="#me515198a74" x="152.533333" y="192.24" style="stroke: #000000; stroke-width: 0.8"/>
      </g>
     </g>
     <g id="text_2">
      <!-- 10 -->
      <g transform="translate(146.170833 206.838437) scale(0.1 -0.1)">
       <defs>
        <path id="DejaVuSans-31" d="M 794 531 
L 1825 531 
L 1825 4091 
L 703 3866 
L 703 4441 
L 1819 4666 
L 2450 4666 
L 2450 531 
L 3481 531 
L 3481 0 
L 794 0 
L 794 531 
z
" transform="scale(0.015625)"/>
        <path id="DejaVuSans-30" d="M 2034 4250 
Q 1547 4250 1301 3770 
Q 1056 3291 1056 2328 
Q 1056 1369 1301 889 
Q 1547 409 2034 409 
Q 2525 409 2770 889 
Q 3016 1369 3016 2328 
Q 3016 3291 2770 3770 
Q 2525 4250 2034 4250 
z
M 2034 4750 
Q 2819 4750 3233 4129 
Q 3647 3509 3647 2328 
Q 3647 1150 3233 529 
Q 2819 -91 2034 -91 
Q 1250 -91 836 529 
Q 422 1150 422 2328 
Q 422 3509 836 4129 
Q 1250 4750 2034 4750 
z
" transform="scale(0.015625)"/>
       </defs>
       <use xlink:href="#DejaVuSans-31"/>
       <use xlink:href="#DejaVuSans-30" x="63.623047"/>
      </g>
     </g>
    </g>
    <g id="xtick_3">
     <g id="line2d_3">
      <g>
       <use xlink:href="#me515198a74" x="219.7" y="192.24" style="stroke: #000000; stroke-width: 0.8"/>
      </g>
     </g>
     <g id="text_3">
      <!-- 15 -->
      <g transform="translate(213.3375 206.838437) scale(0.1 -0.1)">
       <use xlink:href="#DejaVuSans-31"/>
       <use xlink:href="#DejaVuSans-35" x="63.623047"/>
      </g>
     </g>
    </g>
    <g id="xtick_4">
     <g id="line2d_4">
      <g>
       <use xlink:href="#me515198a74" x="286.866667" y="192.24" style="stroke: #000000; stroke-width: 0.8"/>
      </g>
     </g>
     <g id="text_4">
      <!-- 20 -->
      <g transform="translate(280.504167 206.838437) scale(0.1 -0.1)">
       <defs>
        <path id="DejaVuSans-32" d="M 1228 531 
L 3431 531 
L 3431 0 
L 469 0 
L 469 531 
Q 828 903 1448 1529 
Q 2069 2156 2228 2338 
Q 2531 2678 2651 2914 
Q 2772 3150 2772 3378 
Q 2772 3750 2511 3984 
Q 2250 4219 1831 4219 
Q 1534 4219 1204 4116 
Q 875 4013 500 3803 
L 500 4441 
Q 881 4594 1212 4672 
Q 1544 4750 1819 4750 
Q 2544 4750 2975 4387 
Q 3406 4025 3406 3419 
Q 3406 3131 3298 2873 
Q 3191 2616 2906 2266 
Q 2828 2175 2409 1742 
Q 1991 1309 1228 531 
z
" transform="scale(0.015625)"/>
       </defs>
       <use xlink:href="#DejaVuSans-32"/>
       <use xlink:href="#DejaVuSans-30" x="63.623047"/>
      </g>
     </g>
    </g>
    <g id="xtick_5">
     <g id="line2d_5">
      <g>
       <use xlink:href="#me515198a74" x="354.033333" y="192.24" style="stroke: #000000; stroke-width: 0.8"/>
      </g>
     </g>
     <g id="text_5">
      <!-- 25 -->
      <g transform="translate(347.670833 206.838437) scale(0.1 -0.1)">
       <use xlink:href="#DejaVuSans-32"/>
       <use xlink:href="#DejaVuSans-35" x="63.623047"/>
      </g>
     </g>
    </g>
    <g id="xtick_6">
     <g id="line2d_6">
      <g>
       <use xlink:href="#me515198a74" x="421.2" y="192.24" style="stroke: #000000; stroke-width: 0.8"/>
      </g>
     </g>
     <g id="text_6">
      <!-- 30 -->
      <g transform="translate(414.8375 206.838437) scale(0.1 -0.1)">
       <defs>
        <path id="DejaVuSans-33" d="M 2597 2516 
Q 3050 2419 3304 2112 
Q 3559 1806 3559 1356 
Q 3559 666 3084 287 
Q 2609 -91 1734 -91 
Q 1441 -91 1130 -33 
Q 819 25 488 141 
L 488 750 
Q 750 597 1062 519 
Q 1375 441 1716 441 
Q 2309 441 2620 675 
Q 2931 909 2931 1356 
Q 2931 1769 2642 2001 
Q 2353 2234 1838 2234 
L 1294 2234 
L 1294 2753 
L 1863 2753 
Q 2328 2753 2575 2939 
Q 2822 3125 2822 3475 
Q 2822 3834 2567 4026 
Q 2313 4219 1838 4219 
Q 1578 4219 1281 4162 
Q 984 4106 628 3988 
L 628 4550 
Q 988 4650 1302 4700 
Q 1616 4750 1894 4750 
Q 2613 4750 3031 4423 
Q 3450 4097 3450 3541 
Q 3450 3153 3228 2886 
Q 3006 2619 2597 2516 
z
" transform="scale(0.015625)"/>
       </defs>
       <use xlink:href="#DejaVuSans-33"/>
       <use xlink:href="#DejaVuSans-30" x="63.623047"/>
      </g>
     </g>
    </g>
    <g id="text_7">
     <!-- n inputs -->
     <g transform="translate(219.626562 220.516562) scale(0.1 -0.1)">
      <defs>
       <path id="DejaVuSans-6e" d="M 3513 2113 
L 3513 0 
L 2938 0 
L 2938 2094 
Q 2938 2591 2744 2837 
Q 2550 3084 2163 3084 
Q 1697 3084 1428 2787 
Q 1159 2491 1159 1978 
L 1159 0 
L 581 0 
L 581 3500 
L 1159 3500 
L 1159 2956 
Q 1366 3272 1645 3428 
Q 1925 3584 2291 3584 
Q 2894 3584 3203 3211 
Q 3513 2838 3513 2113 
z
" transform="scale(0.015625)"/>
       <path id="DejaVuSans-20" transform="scale(0.015625)"/>
       <path id="DejaVuSans-69" d="M 603 3500 
L 1178 3500 
L 1178 0 
L 603 0 
L 603 3500 
z
M 603 4863 
L 1178 4863 
L 1178 4134 
L 603 4134 
L 603 4863 
z
" transform="scale(0.015625)"/>
       <path id="DejaVuSans-70" d="M 1159 525 
L 1159 -1331 
L 581 -1331 
L 581 3500 
L 1159 3500 
L 1159 2969 
Q 1341 3281 1617 3432 
Q 1894 3584 2278 3584 
Q 2916 3584 3314 3078 
Q 3713 2572 3713 1747 
Q 3713 922 3314 415 
Q 2916 -91 2278 -91 
Q 1894 -91 1617 61 
Q 1341 213 1159 525 
z
M 3116 1747 
Q 3116 2381 2855 2742 
Q 2594 3103 2138 3103 
Q 1681 3103 1420 2742 
Q 1159 2381 1159 1747 
Q 1159 1113 1420 752 
Q 1681 391 2138 391 
Q 2594 391 2855 752 
Q 3116 1113 3116 1747 
z
" transform="scale(0.015625)"/>
       <path id="DejaVuSans-75" d="M 544 1381 
L 544 3500 
L 1119 3500 
L 1119 1403 
Q 1119 906 1312 657 
Q 1506 409 1894 409 
Q 2359 409 2629 706 
Q 2900 1003 2900 1516 
L 2900 3500 
L 3475 3500 
L 3475 0 
L 2900 0 
L 2900 538 
Q 2691 219 2414 64 
Q 2138 -91 1772 -91 
Q 1169 -91 856 284 
Q 544 659 544 1381 
z
M 1991 3584 
L 1991 3584 
z
" transform="scale(0.015625)"/>
       <path id="DejaVuSans-74" d="M 1172 4494 
L 1172 3500 
L 2356 3500 
L 2356 3053 
L 1172 3053 
L 1172 1153 
Q 1172 725 1289 603 
Q 1406 481 1766 481 
L 2356 481 
L 2356 0 
L 1766 0 
Q 1100 0 847 248 
Q 594 497 594 1153 
L 594 3053 
L 172 3053 
L 172 3500 
L 594 3500 
L 594 4494 
L 1172 4494 
z
" transform="scale(0.015625)"/>
       <path id="DejaVuSans-73" d="M 2834 3397 
L 2834 2853 
Q 2591 2978 2328 3040 
Q 2066 3103 1784 3103 
Q 1356 3103 1142 2972 
Q 928 2841 928 2578 
Q 928 2378 1081 2264 
Q 1234 2150 1697 2047 
L 1894 2003 
Q 2506 1872 2764 1633 
Q 3022 1394 3022 966 
Q 3022 478 2636 193 
Q 2250 -91 1575 -91 
Q 1294 -91 989 -36 
Q 684 19 347 128 
L 347 722 
Q 666 556 975 473 
Q 1284 391 1588 391 
Q 1994 391 2212 530 
Q 2431 669 2431 922 
Q 2431 1156 2273 1281 
Q 2116 1406 1581 1522 
L 1381 1569 
Q 847 1681 609 1914 
Q 372 2147 372 2553 
Q 372 3047 722 3315 
Q 1072 3584 1716 3584 
Q 2034 3584 2315 3537 
Q 2597 3491 2834 3397 
z
" transform="scale(0.015625)"/>
      </defs>
      <use xlink:href="#DejaVuSans-6e"/>
      <use xlink:href="#DejaVuSans-20" x="63.378906"/>
      <use xlink:href="#DejaVuSans-69" x="95.166016"/>
      <use xlink:href="#DejaVuSans-6e" x="122.949219"/>
      <use xlink:href="#DejaVuSans-70" x="186.328125"/>
      <use xlink:href="#DejaVuSans-75" x="249.804688"/>
      <use xlink:href="#DejaVuSans-74" x="313.183594"/>
      <use xlink:href="#DejaVuSans-73" x="352.392578"/>
     </g>
    </g>
   </g>
   <g id="matplotlib.axis_2">
    <g id="ytick_1">
     <g id="line2d_7">
      <defs>
       <path id="m0eb0c6e3f2" d="M 0 0 
L -3.5 0 
" style="stroke: #000000; stroke-width: 0.8"/>
      </defs>
      <g>
       <use xlink:href="#m0eb0c6e3f2" x="58.5" y="184.751219" style="stroke: #000000; stroke-width: 0.8"/>
      </g>
     </g>
     <g id="text_8">
      <!-- 0 -->
      <g transform="translate(45.1375 188.550438) scale(0.1 -0.1)">
       <use xlink:href="#DejaVuSans-30"/>
      </g>
     </g>
    </g>
    <g id="ytick_2">
     <g id="line2d_8">
      <g>
       <use xlink:href="#m0eb0c6e3f2" x="58.5" y="156.394658" style="stroke: #000000; stroke-width: 0.8"/>
      </g>
     </g>
     <g id="text_9">
      <!-- 100 -->
      <g transform="translate(32.4125 160.193877) scale(0.1 -0.1)">
       <use xlink:href="#DejaVuSans-31"/>
       <use xlink:href="#DejaVuSans-30" x="63.623047"/>
       <use xlink:href="#DejaVuSans-30" x="127.246094"/>
      </g>
     </g>
    </g>
    <g id="ytick_3">
     <g id="line2d_9">
      <g>
       <use xlink:href="#m0eb0c6e3f2" x="58.5" y="128.038097" style="stroke: #000000; stroke-width: 0.8"/>
      </g>
     </g>
     <g id="text_10">
      <!-- 200 -->
      <g transform="translate(32.4125 131.837316) scale(0.1 -0.1)">
       <use xlink:href="#DejaVuSans-32"/>
       <use xlink:href="#DejaVuSans-30" x="63.623047"/>
       <use xlink:href="#DejaVuSans-30" x="127.246094"/>
      </g>
     </g>
    </g>
    <g id="ytick_4">
     <g id="line2d_10">
      <g>
       <use xlink:href="#m0eb0c6e3f2" x="58.5" y="99.681537" style="stroke: #000000; stroke-width: 0.8"/>
      </g>
     </g>
     <g id="text_11">
      <!-- 300 -->
      <g transform="translate(32.4125 103.480756) scale(0.1 -0.1)">
       <use xlink:href="#DejaVuSans-33"/>
       <use xlink:href="#DejaVuSans-30" x="63.623047"/>
       <use xlink:href="#DejaVuSans-30" x="127.246094"/>
      </g>
     </g>
    </g>
    <g id="ytick_5">
     <g id="line2d_11">
      <g>
       <use xlink:href="#m0eb0c6e3f2" x="58.5" y="71.324976" style="stroke: #000000; stroke-width: 0.8"/>
      </g>
     </g>
     <g id="text_12">
      <!-- 400 -->
      <g transform="translate(32.4125 75.124195) scale(0.1 -0.1)">
       <defs>
        <path id="DejaVuSans-34" d="M 2419 4116 
L 825 1625 
L 2419 1625 
L 2419 4116 
z
M 2253 4666 
L 3047 4666 
L 3047 1625 
L 3713 1625 
L 3713 1100 
L 3047 1100 
L 3047 0 
L 2419 0 
L 2419 1100 
L 313 1100 
L 313 1709 
L 2253 4666 
z
" transform="scale(0.015625)"/>
       </defs>
       <use xlink:href="#DejaVuSans-34"/>
       <use xlink:href="#DejaVuSans-30" x="63.623047"/>
       <use xlink:href="#DejaVuSans-30" x="127.246094"/>
      </g>
     </g>
    </g>
    <g id="ytick_6">
     <g id="line2d_12">
      <g>
       <use xlink:href="#m0eb0c6e3f2" x="58.5" y="42.968415" style="stroke: #000000; stroke-width: 0.8"/>
      </g>
     </g>
     <g id="text_13">
      <!-- 500 -->
      <g transform="translate(32.4125 46.767634) scale(0.1 -0.1)">
       <use xlink:href="#DejaVuSans-35"/>
       <use xlink:href="#DejaVuSans-30" x="63.623047"/>
       <use xlink:href="#DejaVuSans-30" x="127.246094"/>
      </g>
     </g>
    </g>
    <g id="text_14">
     <!-- van Rossum distance -->
     <g transform="translate(26.332812 162.194062) rotate(-90) scale(0.1 -0.1)">
      <defs>
       <path id="DejaVuSans-76" d="M 191 3500 
L 800 3500 
L 1894 563 
L 2988 3500 
L 3597 3500 
L 2284 0 
L 1503 0 
L 191 3500 
z
" transform="scale(0.015625)"/>
       <path id="DejaVuSans-61" d="M 2194 1759 
Q 1497 1759 1228 1600 
Q 959 1441 959 1056 
Q 959 750 1161 570 
Q 1363 391 1709 391 
Q 2188 391 2477 730 
Q 2766 1069 2766 1631 
L 2766 1759 
L 2194 1759 
z
M 3341 1997 
L 3341 0 
L 2766 0 
L 2766 531 
Q 2569 213 2275 61 
Q 1981 -91 1556 -91 
Q 1019 -91 701 211 
Q 384 513 384 1019 
Q 384 1609 779 1909 
Q 1175 2209 1959 2209 
L 2766 2209 
L 2766 2266 
Q 2766 2663 2505 2880 
Q 2244 3097 1772 3097 
Q 1472 3097 1187 3025 
Q 903 2953 641 2809 
L 641 3341 
Q 956 3463 1253 3523 
Q 1550 3584 1831 3584 
Q 2591 3584 2966 3190 
Q 3341 2797 3341 1997 
z
" transform="scale(0.015625)"/>
       <path id="DejaVuSans-52" d="M 2841 2188 
Q 3044 2119 3236 1894 
Q 3428 1669 3622 1275 
L 4263 0 
L 3584 0 
L 2988 1197 
Q 2756 1666 2539 1819 
Q 2322 1972 1947 1972 
L 1259 1972 
L 1259 0 
L 628 0 
L 628 4666 
L 2053 4666 
Q 2853 4666 3247 4331 
Q 3641 3997 3641 3322 
Q 3641 2881 3436 2590 
Q 3231 2300 2841 2188 
z
M 1259 4147 
L 1259 2491 
L 2053 2491 
Q 2509 2491 2742 2702 
Q 2975 2913 2975 3322 
Q 2975 3731 2742 3939 
Q 2509 4147 2053 4147 
L 1259 4147 
z
" transform="scale(0.015625)"/>
       <path id="DejaVuSans-6f" d="M 1959 3097 
Q 1497 3097 1228 2736 
Q 959 2375 959 1747 
Q 959 1119 1226 758 
Q 1494 397 1959 397 
Q 2419 397 2687 759 
Q 2956 1122 2956 1747 
Q 2956 2369 2687 2733 
Q 2419 3097 1959 3097 
z
M 1959 3584 
Q 2709 3584 3137 3096 
Q 3566 2609 3566 1747 
Q 3566 888 3137 398 
Q 2709 -91 1959 -91 
Q 1206 -91 779 398 
Q 353 888 353 1747 
Q 353 2609 779 3096 
Q 1206 3584 1959 3584 
z
" transform="scale(0.015625)"/>
       <path id="DejaVuSans-6d" d="M 3328 2828 
Q 3544 3216 3844 3400 
Q 4144 3584 4550 3584 
Q 5097 3584 5394 3201 
Q 5691 2819 5691 2113 
L 5691 0 
L 5113 0 
L 5113 2094 
Q 5113 2597 4934 2840 
Q 4756 3084 4391 3084 
Q 3944 3084 3684 2787 
Q 3425 2491 3425 1978 
L 3425 0 
L 2847 0 
L 2847 2094 
Q 2847 2600 2669 2842 
Q 2491 3084 2119 3084 
Q 1678 3084 1418 2786 
Q 1159 2488 1159 1978 
L 1159 0 
L 581 0 
L 581 3500 
L 1159 3500 
L 1159 2956 
Q 1356 3278 1631 3431 
Q 1906 3584 2284 3584 
Q 2666 3584 2933 3390 
Q 3200 3197 3328 2828 
z
" transform="scale(0.015625)"/>
       <path id="DejaVuSans-64" d="M 2906 2969 
L 2906 4863 
L 3481 4863 
L 3481 0 
L 2906 0 
L 2906 525 
Q 2725 213 2448 61 
Q 2172 -91 1784 -91 
Q 1150 -91 751 415 
Q 353 922 353 1747 
Q 353 2572 751 3078 
Q 1150 3584 1784 3584 
Q 2172 3584 2448 3432 
Q 2725 3281 2906 2969 
z
M 947 1747 
Q 947 1113 1208 752 
Q 1469 391 1925 391 
Q 2381 391 2643 752 
Q 2906 1113 2906 1747 
Q 2906 2381 2643 2742 
Q 2381 3103 1925 3103 
Q 1469 3103 1208 2742 
Q 947 2381 947 1747 
z
" transform="scale(0.015625)"/>
       <path id="DejaVuSans-63" d="M 3122 3366 
L 3122 2828 
Q 2878 2963 2633 3030 
Q 2388 3097 2138 3097 
Q 1578 3097 1268 2742 
Q 959 2388 959 1747 
Q 959 1106 1268 751 
Q 1578 397 2138 397 
Q 2388 397 2633 464 
Q 2878 531 3122 666 
L 3122 134 
Q 2881 22 2623 -34 
Q 2366 -91 2075 -91 
Q 1284 -91 818 406 
Q 353 903 353 1747 
Q 353 2603 823 3093 
Q 1294 3584 2113 3584 
Q 2378 3584 2631 3529 
Q 2884 3475 3122 3366 
z
" transform="scale(0.015625)"/>
       <path id="DejaVuSans-65" d="M 3597 1894 
L 3597 1613 
L 953 1613 
Q 991 1019 1311 708 
Q 1631 397 2203 397 
Q 2534 397 2845 478 
Q 3156 559 3463 722 
L 3463 178 
Q 3153 47 2828 -22 
Q 2503 -91 2169 -91 
Q 1331 -91 842 396 
Q 353 884 353 1716 
Q 353 2575 817 3079 
Q 1281 3584 2069 3584 
Q 2775 3584 3186 3129 
Q 3597 2675 3597 1894 
z
M 3022 2063 
Q 3016 2534 2758 2815 
Q 2500 3097 2075 3097 
Q 1594 3097 1305 2825 
Q 1016 2553 972 2059 
L 3022 2063 
z
" transform="scale(0.015625)"/>
      </defs>
      <use xlink:href="#DejaVuSans-76"/>
      <use xlink:href="#DejaVuSans-61" x="59.179688"/>
      <use xlink:href="#DejaVuSans-6e" x="120.458984"/>
      <use xlink:href="#DejaVuSans-20" x="183.837891"/>
      <use xlink:href="#DejaVuSans-52" x="215.625"/>
      <use xlink:href="#DejaVuSans-6f" x="280.607422"/>
      <use xlink:href="#DejaVuSans-73" x="341.789062"/>
      <use xlink:href="#DejaVuSans-73" x="393.888672"/>
      <use xlink:href="#DejaVuSans-75" x="445.988281"/>
      <use xlink:href="#DejaVuSans-6d" x="509.367188"/>
      <use xlink:href="#DejaVuSans-20" x="606.779297"/>
      <use xlink:href="#DejaVuSans-64" x="638.566406"/>
      <use xlink:href="#DejaVuSans-69" x="702.042969"/>
      <use xlink:href="#DejaVuSans-73" x="729.826172"/>
      <use xlink:href="#DejaVuSans-74" x="781.925781"/>
      <use xlink:href="#DejaVuSans-61" x="821.134766"/>
      <use xlink:href="#DejaVuSans-6e" x="882.414062"/>
      <use xlink:href="#DejaVuSans-63" x="945.792969"/>
      <use xlink:href="#DejaVuSans-65" x="1000.773438"/>
     </g>
    </g>
   </g>
   <g id="line2d_13">
    <path d="M 58.5 162.288126 
L 71.933333 155.41775 
L 85.366667 149.525135 
L 98.8 144.951472 
L 112.233333 147.482626 
L 125.666667 149.445091 
L 139.1 155.421498 
L 152.533333 160.049203 
L 165.966667 161.629431 
L 179.4 166.112395 
L 192.833333 172.677198 
L 206.266667 174.881175 
L 219.7 177.504129 
L 233.133333 178.964865 
L 246.566667 179.686356 
L 260 181.262659 
L 273.433333 182.106517 
L 286.866667 182.831661 
L 300.3 183.710246 
L 313.733333 184.005118 
L 327.166667 183.442478 
L 340.6 183.183914 
L 354.033333 183.767172 
L 367.466667 183.766403 
L 380.9 183.499118 
L 394.333333 183.491797 
L 407.766667 183.493291 
L 421.2 183.233671 
" clip-path="url(#p18910839c1)" style="fill: none; stroke: #28d7ff; stroke-width: 1.5; stroke-linecap: square"/>
   </g>
   <g id="line2d_14">
    <path d="M 58.5 88.097255 
L 71.933333 112.268304 
L 85.366667 138.824933 
L 98.8 154.942072 
L 112.233333 161.980334 
L 125.666667 167.090343 
L 139.1 170.009166 
L 152.533333 172.760225 
L 165.966667 173.992306 
L 179.4 175.520823 
L 192.833333 176.58951 
L 206.266667 179.210243 
L 219.7 179.970454 
L 233.133333 180.246065 
L 246.566667 180.876537 
L 260 180.764666 
L 273.433333 183.093317 
L 286.866667 183.507913 
L 300.3 183.014144 
L 313.733333 183.030711 
L 327.166667 183.326028 
L 340.6 183.361551 
L 354.033333 183.795339 
L 367.466667 183.81384 
L 380.9 184.11007 
L 394.333333 184.107444 
L 407.766667 183.521105 
L 421.2 183.543475 
" clip-path="url(#p18910839c1)" style="fill: none; stroke: #f30cff; stroke-width: 1.5; stroke-linecap: square"/>
   </g>
   <g id="line2d_15">
    <path d="M 58.5 153.499384 
L 71.933333 156.633803 
L 85.366667 162.455861 
L 98.8 167.863057 
L 112.233333 172.195285 
L 125.666667 177.222099 
L 139.1 178.214068 
L 152.533333 180.41535 
L 165.966667 181.990097 
L 179.4 182.424881 
L 192.833333 182.75545 
L 206.266667 182.401524 
L 219.7 182.800207 
L 233.133333 183.388248 
L 246.566667 183.505501 
L 260 183.619394 
L 273.433333 183.947636 
L 286.866667 183.956234 
L 300.3 183.731194 
L 313.733333 183.998981 
L 327.166667 184.277643 
L 340.6 184.294289 
L 354.033333 184.319145 
L 367.466667 184.314691 
L 380.9 184.342273 
L 394.333333 184.346784 
L 407.766667 184.349249 
L 421.2 184.371152 
" clip-path="url(#p18910839c1)" style="fill: none; stroke: #6f90ff; stroke-width: 1.5; stroke-linecap: square"/>
   </g>
   <g id="line2d_16">
    <path d="M 58.5 33.48 
L 71.933333 52.197345 
L 85.366667 79.828114 
L 98.8 108.866941 
L 112.233333 130.58834 
L 125.666667 145.772074 
L 139.1 154.079174 
L 152.533333 162.057594 
L 165.966667 165.623786 
L 179.4 168.356254 
L 192.833333 169.487018 
L 206.266667 171.938466 
L 219.7 173.724889 
L 233.133333 176.067858 
L 246.566667 177.429745 
L 260 179.683858 
L 273.433333 180.696745 
L 286.866667 180.729029 
L 300.3 180.433607 
L 313.733333 180.785802 
L 327.166667 181.40251 
L 340.6 182.032769 
L 354.033333 182.960349 
L 367.466667 182.932973 
L 380.9 182.18534 
L 394.333333 183.03082 
L 407.766667 183.361436 
L 421.2 183.677785 
" clip-path="url(#p18910839c1)" style="fill: none; stroke: #d827ff; stroke-width: 1.5; stroke-linecap: square"/>
   </g>
   <g id="line2d_17">
    <path d="M 58.5 123.827658 
L 71.933333 124.70005 
L 85.366667 129.923863 
L 98.8 134.866471 
L 112.233333 142.0395 
L 125.666667 148.058863 
L 139.1 153.423306 
L 152.533333 158.262996 
L 165.966667 164.350215 
L 179.4 167.13621 
L 192.833333 169.363966 
L 206.266667 173.910229 
L 219.7 176.723762 
L 233.133333 177.19677 
L 246.566667 177.895316 
L 260 179.942636 
L 273.433333 180.353496 
L 286.866667 180.689358 
L 300.3 181.638374 
L 313.733333 181.901768 
L 327.166667 181.650967 
L 340.6 182.511693 
L 354.033333 182.819476 
L 367.466667 183.167648 
L 380.9 183.16807 
L 394.333333 183.183833 
L 407.766667 183.196009 
L 421.2 183.192245 
" clip-path="url(#p18910839c1)" style="fill: none; stroke: #3dc2ff; stroke-width: 1.5; stroke-linecap: square"/>
   </g>
   <g id="line2d_18">
    <path d="M 58.5 135.546715 
L 71.933333 141.652728 
L 85.366667 149.846042 
L 98.8 160.336753 
L 112.233333 164.978393 
L 125.666667 168.592448 
L 139.1 172.071208 
L 152.533333 174.174104 
L 165.966667 176.377964 
L 179.4 177.194173 
L 192.833333 177.811003 
L 206.266667 178.906974 
L 219.7 179.808716 
L 233.133333 180.719741 
L 246.566667 181.003738 
L 260 181.291753 
L 273.433333 181.340268 
L 286.866667 181.666764 
L 300.3 181.44064 
L 313.733333 181.460819 
L 327.166667 181.762393 
L 340.6 181.763307 
L 354.033333 181.790523 
L 367.466667 181.806456 
L 380.9 181.822371 
L 394.333333 181.823372 
L 407.766667 181.829489 
L 421.2 181.832471 
" clip-path="url(#p18910839c1)" style="fill: none; stroke: #4bb4ff; stroke-width: 1.5; stroke-linecap: square"/>
   </g>
   <g id="line2d_19">
    <path d="M 58.5 161.987776 
L 71.933333 168.030931 
L 85.366667 171.590856 
L 98.8 175.79887 
L 112.233333 177.016064 
L 125.666667 178.454199 
L 139.1 180.748091 
L 152.533333 181.445306 
L 165.966667 182.242813 
L 179.4 182.943217 
L 192.833333 182.967227 
L 206.266667 183.078196 
L 219.7 183.175308 
L 233.133333 183.245278 
L 246.566667 183.297474 
L 260 183.59731 
L 273.433333 183.616813 
L 286.866667 183.484905 
L 300.3 183.769024 
L 313.733333 183.775209 
L 327.166667 183.78069 
L 340.6 183.793302 
L 354.033333 183.789711 
L 367.466667 183.802018 
L 380.9 183.798164 
L 394.333333 184.080823 
L 407.766667 184.106461 
L 421.2 184.109168 
" clip-path="url(#p18910839c1)" style="fill: none; stroke: #817eff; stroke-width: 1.5; stroke-linecap: square"/>
   </g>
   <g id="line2d_20">
    <path d="M 58.5 134.32377 
L 71.933333 148.667106 
L 85.366667 159.0245 
L 98.8 165.230174 
L 112.233333 170.836502 
L 125.666667 176.162417 
L 139.1 178.428615 
L 152.533333 177.797575 
L 165.966667 180.625226 
L 179.4 180.856981 
L 192.833333 181.3979 
L 206.266667 181.27408 
L 219.7 182.31293 
L 233.133333 182.372807 
L 246.566667 183.547381 
L 260 183.820247 
L 273.433333 184.161396 
L 286.866667 184.483131 
L 300.3 184.262003 
L 313.733333 184.005929 
L 327.166667 184.320286 
L 340.6 184.323415 
L 354.033333 184.048716 
L 367.466667 184.330606 
L 380.9 184.608221 
L 394.333333 184.614921 
L 407.766667 184.049057 
L 421.2 184.055361 
" clip-path="url(#p18910839c1)" style="fill: none; stroke: #d32cff; stroke-width: 1.5; stroke-linecap: square"/>
   </g>
   <g id="line2d_21">
    <path d="M 58.5 156.574389 
L 71.933333 157.387761 
L 85.366667 163.966738 
L 98.8 168.301601 
L 112.233333 171.998239 
L 125.666667 174.56295 
L 139.1 175.921716 
L 152.533333 177.075654 
L 165.966667 178.052833 
L 179.4 179.82308 
L 192.833333 180.342741 
L 206.266667 181.229629 
L 219.7 181.013979 
L 233.133333 181.313843 
L 246.566667 181.085127 
L 260 180.826023 
L 273.433333 181.416197 
L 286.866667 181.675408 
L 300.3 181.1662 
L 313.733333 181.222026 
L 327.166667 180.940832 
L 340.6 181.464188 
L 354.033333 181.198151 
L 367.466667 181.489289 
L 380.9 181.81343 
L 394.333333 181.533462 
L 407.766667 181.521384 
L 421.2 181.537705 
" clip-path="url(#p18910839c1)" style="fill: none; stroke: #7887ff; stroke-width: 1.5; stroke-linecap: square"/>
   </g>
   <g id="line2d_22">
    <path d="M 58.5 153.272195 
L 71.933333 158.855229 
L 85.366667 163.097008 
L 98.8 164.348608 
L 112.233333 168.446397 
L 125.666667 173.340612 
L 139.1 173.242071 
L 152.533333 176.037958 
L 165.966667 177.814923 
L 179.4 178.736338 
L 192.833333 180.982984 
L 206.266667 181.240707 
L 219.7 181.967583 
L 233.133333 183.148168 
L 246.566667 182.94026 
L 260 183.821542 
L 273.433333 183.858746 
L 286.866667 183.88268 
L 300.3 184.190475 
L 313.733333 183.886599 
L 327.166667 183.911758 
L 340.6 183.934022 
L 354.033333 183.782067 
L 367.466667 183.778022 
L 380.9 183.781738 
L 394.333333 183.77939 
L 407.766667 183.789387 
L 421.2 184.089018 
" clip-path="url(#p18910839c1)" style="fill: none; stroke: #8679ff; stroke-width: 1.5; stroke-linecap: square"/>
   </g>
   <g id="line2d_23">
    <path d="M 58.5 66.459123 
L 71.933333 80.127003 
L 85.366667 96.448197 
L 98.8 118.340947 
L 112.233333 136.2863 
L 125.666667 150.309161 
L 139.1 158.518688 
L 152.533333 164.287818 
L 165.966667 168.179729 
L 179.4 169.173609 
L 192.833333 170.552451 
L 206.266667 173.863772 
L 219.7 176.227488 
L 233.133333 177.845984 
L 246.566667 179.582504 
L 260 180.91674 
L 273.433333 182.06947 
L 286.866667 182.451654 
L 300.3 183.123423 
L 313.733333 183.193312 
L 327.166667 183.571776 
L 340.6 183.766642 
L 354.033333 184.367963 
L 367.466667 184.223621 
L 380.9 184.471531 
L 394.333333 184.189754 
L 407.766667 183.986426 
L 421.2 184.019601 
" clip-path="url(#p18910839c1)" style="fill: none; stroke: #d728ff; stroke-width: 1.5; stroke-linecap: square"/>
   </g>
   <g id="line2d_24">
    <path d="M 58.5 139.532794 
L 71.933333 131.116383 
L 85.366667 132.405869 
L 98.8 137.830269 
L 112.233333 142.567371 
L 125.666667 148.858836 
L 139.1 153.445164 
L 152.533333 161.099583 
L 165.966667 164.390319 
L 179.4 169.730912 
L 192.833333 172.373596 
L 206.266667 174.265672 
L 219.7 174.80858 
L 233.133333 176.734291 
L 246.566667 177.584303 
L 260 178.138108 
L 273.433333 178.743553 
L 286.866667 178.36953 
L 300.3 179.229815 
L 313.733333 179.527641 
L 327.166667 179.558797 
L 340.6 179.862875 
L 354.033333 179.701503 
L 367.466667 179.461838 
L 380.9 179.767189 
L 394.333333 179.847858 
L 407.766667 180.125138 
L 421.2 180.643715 
" clip-path="url(#p18910839c1)" style="fill: none; stroke: #1fe0ff; stroke-width: 1.5; stroke-linecap: square"/>
   </g>
   <g id="line2d_25">
    <path d="M 58.5 84.518388 
L 71.933333 101.257845 
L 85.366667 119.750904 
L 98.8 134.86204 
L 112.233333 146.088649 
L 125.666667 152.773766 
L 139.1 157.76968 
L 152.533333 163.872661 
L 165.966667 165.361075 
L 179.4 167.285604 
L 192.833333 167.990286 
L 206.266667 169.991039 
L 219.7 171.602699 
L 233.133333 172.929403 
L 246.566667 173.951845 
L 260 174.44699 
L 273.433333 175.337297 
L 286.866667 176.878314 
L 300.3 176.667673 
L 313.733333 177.653914 
L 327.166667 177.352064 
L 340.6 177.95743 
L 354.033333 177.582413 
L 367.466667 177.97894 
L 380.9 177.983557 
L 394.333333 178.573161 
L 407.766667 178.606693 
L 421.2 178.837556 
" clip-path="url(#p18910839c1)" style="fill: none; stroke: #ac53ff; stroke-width: 1.5; stroke-linecap: square"/>
   </g>
   <g id="line2d_26">
    <path d="M 58.5 48.921829 
L 71.933333 70.447461 
L 85.366667 90.202848 
L 98.8 108.896053 
L 112.233333 123.256758 
L 125.666667 132.423514 
L 139.1 144.906245 
L 152.533333 153.526965 
L 165.966667 158.654372 
L 179.4 162.868226 
L 192.833333 164.306381 
L 206.266667 166.389928 
L 219.7 166.792552 
L 233.133333 169.594911 
L 246.566667 171.374605 
L 260 172.019125 
L 273.433333 172.148504 
L 286.866667 173.079846 
L 300.3 173.505029 
L 313.733333 175.002311 
L 327.166667 175.006207 
L 340.6 175.956614 
L 354.033333 176.007314 
L 367.466667 176.313389 
L 380.9 176.057844 
L 394.333333 176.340298 
L 407.766667 176.346997 
L 421.2 176.104351 
" clip-path="url(#p18910839c1)" style="fill: none; stroke: #49b6ff; stroke-width: 1.5; stroke-linecap: square"/>
   </g>
   <g id="line2d_27">
    <path d="M 58.5 167.864155 
L 71.933333 173.026561 
L 85.366667 176.688567 
L 98.8 178.501325 
L 112.233333 180.083767 
L 125.666667 181.098264 
L 139.1 181.770598 
L 152.533333 181.698144 
L 165.966667 182.024038 
L 179.4 182.521263 
L 192.833333 182.244109 
L 206.266667 182.5477 
L 219.7 182.526252 
L 233.133333 182.54664 
L 246.566667 182.842821 
L 260 183.128211 
L 273.433333 183.449186 
L 286.866667 183.463445 
L 300.3 183.764013 
L 313.733333 184.049079 
L 327.166667 184.066046 
L 340.6 184.088149 
L 354.033333 184.100077 
L 367.466667 184.095182 
L 380.9 184.095217 
L 394.333333 184.108954 
L 407.766667 184.103647 
L 421.2 184.105051 
" clip-path="url(#p18910839c1)" style="fill: none; stroke: #7d82ff; stroke-width: 1.5; stroke-linecap: square"/>
   </g>
   <g id="line2d_28">
    <path d="M 58.5 144.734346 
L 71.933333 140.689313 
L 85.366667 140.63239 
L 98.8 144.270808 
L 112.233333 151.67049 
L 125.666667 156.088966 
L 139.1 160.882867 
L 152.533333 165.038184 
L 165.966667 169.221768 
L 179.4 174.878576 
L 192.833333 174.694929 
L 206.266667 177.603715 
L 219.7 178.09626 
L 233.133333 179.328158 
L 246.566667 178.843449 
L 260 179.932096 
L 273.433333 180.044938 
L 286.866667 179.796044 
L 300.3 180.119996 
L 313.733333 180.414427 
L 327.166667 180.708824 
L 340.6 181.002106 
L 354.033333 181.770547 
L 367.466667 181.247046 
L 380.9 181.244293 
L 394.333333 181.254306 
L 407.766667 181.527287 
L 421.2 181.536164 
" clip-path="url(#p18910839c1)" style="fill: none; stroke: #2dd2ff; stroke-width: 1.5; stroke-linecap: square"/>
   </g>
   <g id="line2d_29">
    <path d="M 58.5 81.349219 
L 71.933333 94.459255 
L 85.366667 116.135909 
L 98.8 134.943279 
L 112.233333 149.263418 
L 125.666667 156.822291 
L 139.1 160.894787 
L 152.533333 166.475688 
L 165.966667 170.68547 
L 179.4 173.856643 
L 192.833333 175.560252 
L 206.266667 176.570533 
L 219.7 177.747492 
L 233.133333 178.762175 
L 246.566667 178.018692 
L 260 179.745199 
L 273.433333 179.710978 
L 286.866667 180.096535 
L 300.3 181.013379 
L 313.733333 181.110052 
L 327.166667 181.150703 
L 340.6 181.443116 
L 354.033333 181.449756 
L 367.466667 181.480247 
L 380.9 181.769873 
L 394.333333 182.338375 
L 407.766667 182.339707 
L 421.2 182.350937 
" clip-path="url(#p18910839c1)" style="fill: none; stroke: #8e71ff; stroke-width: 1.5; stroke-linecap: square"/>
   </g>
   <g id="line2d_30">
    <path d="M 58.5 142.84498 
L 71.933333 141.906913 
L 85.366667 143.538889 
L 98.8 145.909125 
L 112.233333 147.65521 
L 125.666667 153.380746 
L 139.1 159.835049 
L 152.533333 161.237369 
L 165.966667 165.296774 
L 179.4 169.391443 
L 192.833333 174.031065 
L 206.266667 177.245591 
L 219.7 178.400979 
L 233.133333 179.247782 
L 246.566667 180.751868 
L 260 181.235531 
L 273.433333 181.785505 
L 286.866667 181.620559 
L 300.3 181.401741 
L 313.733333 181.890896 
L 327.166667 182.693852 
L 340.6 182.729115 
L 354.033333 183.046155 
L 367.466667 183.593145 
L 380.9 183.95296 
L 394.333333 184.0276 
L 407.766667 184.028554 
L 421.2 184.048522 
" clip-path="url(#p18910839c1)" style="fill: none; stroke: #9966ff; stroke-width: 1.5; stroke-linecap: square"/>
   </g>
   <g id="line2d_31">
    <path d="M 58.5 172.377906 
L 71.933333 168.642764 
L 85.366667 167.197074 
L 98.8 164.207481 
L 112.233333 162.086077 
L 125.666667 160.904114 
L 139.1 161.4817 
L 152.533333 162.364889 
L 165.966667 167.729702 
L 179.4 170.545593 
L 192.833333 171.736565 
L 206.266667 175.470692 
L 219.7 176.413457 
L 233.133333 177.600018 
L 246.566667 179.952315 
L 260 180.826672 
L 273.433333 180.848735 
L 286.866667 181.180338 
L 300.3 181.975809 
L 313.733333 182.321241 
L 327.166667 182.098855 
L 340.6 182.954484 
L 354.033333 182.959172 
L 367.466667 182.675157 
L 380.9 182.963262 
L 394.333333 182.985778 
L 407.766667 183.271334 
L 421.2 183.271469 
" clip-path="url(#p18910839c1)" style="fill: none; stroke: #12edff; stroke-width: 1.5; stroke-linecap: square"/>
   </g>
   <g id="line2d_32">
    <path d="M 58.5 170.470552 
L 71.933333 172.208806 
L 85.366667 175.209287 
L 98.8 176.806994 
L 112.233333 178.45942 
L 125.666667 181.712886 
L 139.1 182.53445 
L 152.533333 182.224804 
L 165.966667 183.212954 
L 179.4 183.852337 
L 192.833333 183.973182 
L 206.266667 184.565715 
L 219.7 184.608683 
L 233.133333 184.611215 
L 246.566667 184.625127 
L 260 184.634225 
L 273.433333 184.647971 
L 286.866667 184.657414 
L 300.3 184.657842 
L 313.733333 184.660371 
L 327.166667 184.666876 
L 340.6 184.668741 
L 354.033333 184.670065 
L 367.466667 184.666119 
L 380.9 184.670303 
L 394.333333 184.667421 
L 407.766667 184.66751 
L 421.2 184.669641 
" clip-path="url(#p18910839c1)" style="fill: none; stroke: #7e81ff; stroke-width: 1.5; stroke-linecap: square"/>
   </g>
   <g id="line2d_33">
    <path d="M 58.5 169.645431 
L 71.933333 175.512915 
L 85.366667 179.340637 
L 98.8 180.446009 
L 112.233333 181.941592 
L 125.666667 182.97063 
L 139.1 183.948605 
L 152.533333 184.071832 
L 165.966667 184.16377 
L 179.4 183.948968 
L 192.833333 184.251568 
L 206.266667 184.318097 
L 219.7 184.322132 
L 233.133333 184.355729 
L 246.566667 184.368454 
L 260 184.662033 
L 273.433333 184.668231 
L 286.866667 184.660785 
L 300.3 184.664781 
L 313.733333 184.669152 
L 327.166667 184.671087 
L 340.6 184.667973 
L 354.033333 184.672059 
L 367.466667 184.661673 
L 380.9 184.67031 
L 394.333333 184.665657 
L 407.766667 184.675732 
L 421.2 184.392175 
" clip-path="url(#p18910839c1)" style="fill: none; stroke: #857aff; stroke-width: 1.5; stroke-linecap: square"/>
   </g>
   <g id="line2d_34">
    <path d="M 58.5 153.585555 
L 71.933333 151.554964 
L 85.366667 152.808795 
L 98.8 154.987289 
L 112.233333 155.83359 
L 125.666667 160.424113 
L 139.1 165.562388 
L 152.533333 170.983971 
L 165.966667 174.020302 
L 179.4 176.14639 
L 192.833333 178.254304 
L 206.266667 179.530475 
L 219.7 179.853681 
L 233.133333 179.761042 
L 246.566667 180.216155 
L 260 180.795018 
L 273.433333 182.016599 
L 286.866667 181.730152 
L 300.3 182.036821 
L 313.733333 182.372993 
L 327.166667 182.691181 
L 340.6 182.700649 
L 354.033333 182.711861 
L 367.466667 182.72241 
L 380.9 182.72046 
L 394.333333 182.720033 
L 407.766667 182.721659 
L 421.2 182.719184 
" clip-path="url(#p18910839c1)" style="fill: none; stroke: #16e9ff; stroke-width: 1.5; stroke-linecap: square"/>
   </g>
   <g id="line2d_35">
    <path d="M 58.5 165.877298 
L 71.933333 170.902452 
L 85.366667 174.696612 
L 98.8 177.358166 
L 112.233333 179.605369 
L 125.666667 180.842899 
L 139.1 181.339679 
L 152.533333 181.706468 
L 165.966667 182.368965 
L 179.4 182.616 
L 192.833333 183.263751 
L 206.266667 183.609997 
L 219.7 183.716671 
L 233.133333 183.706233 
L 246.566667 183.740183 
L 260 183.750847 
L 273.433333 184.296265 
L 286.866667 184.296067 
L 300.3 184.358657 
L 313.733333 184.378461 
L 327.166667 184.100271 
L 340.6 184.386318 
L 354.033333 184.67184 
L 367.466667 184.655004 
L 380.9 184.653553 
L 394.333333 184.379601 
L 407.766667 184.37245 
L 421.2 184.663908 
" clip-path="url(#p18910839c1)" style="fill: none; stroke: #817eff; stroke-width: 1.5; stroke-linecap: square"/>
   </g>
   <g id="line2d_36">
    <path d="M 58.5 146.149743 
L 71.933333 150.548194 
L 85.366667 158.692863 
L 98.8 164.084272 
L 112.233333 167.637959 
L 125.666667 171.323448 
L 139.1 172.125775 
L 152.533333 174.426739 
L 165.966667 178.194114 
L 179.4 179.080603 
L 192.833333 179.775262 
L 206.266667 180.748257 
L 219.7 181.338371 
L 233.133333 181.732121 
L 246.566667 182.622449 
L 260 182.676327 
L 273.433333 182.728945 
L 286.866667 183.65153 
L 300.3 183.931722 
L 313.733333 183.981662 
L 327.166667 184.020296 
L 340.6 183.995992 
L 354.033333 184.013331 
L 367.466667 184.015703 
L 380.9 184.030408 
L 394.333333 184.019323 
L 407.766667 184.037895 
L 421.2 184.049137 
" clip-path="url(#p18910839c1)" style="fill: none; stroke: #758aff; stroke-width: 1.5; stroke-linecap: square"/>
   </g>
   <g id="line2d_37">
    <path d="M 58.5 157.490706 
L 71.933333 152.458898 
L 85.366667 148.856076 
L 98.8 155.14342 
L 112.233333 161.090519 
L 125.666667 164.205924 
L 139.1 167.600423 
L 152.533333 170.972345 
L 165.966667 174.617748 
L 179.4 176.075701 
L 192.833333 177.550725 
L 206.266667 178.440678 
L 219.7 179.661045 
L 233.133333 180.259487 
L 246.566667 181.456674 
L 260 181.784955 
L 273.433333 182.38537 
L 286.866667 182.398948 
L 300.3 182.400964 
L 313.733333 182.422838 
L 327.166667 182.408135 
L 340.6 182.383315 
L 354.033333 182.39408 
L 367.466667 182.394651 
L 380.9 182.423663 
L 394.333333 182.440128 
L 407.766667 182.440665 
L 421.2 182.45064 
" clip-path="url(#p18910839c1)" style="fill: none; stroke: #10efff; stroke-width: 1.5; stroke-linecap: square"/>
   </g>
   <g id="line2d_38">
    <path d="M 58.5 170.060018 
L 71.933333 174.744553 
L 85.366667 177.408318 
L 98.8 179.248648 
L 112.233333 180.99732 
L 125.666667 181.982063 
L 139.1 183.031454 
L 152.533333 183.46635 
L 165.966667 183.913443 
L 179.4 184.28835 
L 192.833333 184.276729 
L 206.266667 184.291822 
L 219.7 184.33326 
L 233.133333 184.636291 
L 246.566667 184.63905 
L 260 184.642258 
L 273.433333 184.657875 
L 286.866667 184.661197 
L 300.3 184.667096 
L 313.733333 184.671026 
L 327.166667 184.666712 
L 340.6 184.670561 
L 354.033333 184.673533 
L 367.466667 184.674801 
L 380.9 184.67789 
L 394.333333 184.68 
L 407.766667 184.677076 
L 421.2 184.677803 
" clip-path="url(#p18910839c1)" style="fill: none; stroke: #807fff; stroke-width: 1.5; stroke-linecap: square"/>
   </g>
   <g id="patch_3">
    <path d="M 58.5 192.24 
L 58.5 25.92 
" style="fill: none; stroke: #000000; stroke-width: 0.8; stroke-linejoin: miter; stroke-linecap: square"/>
   </g>
   <g id="patch_4">
    <path d="M 58.5 192.24 
L 421.2 192.24 
" style="fill: none; stroke: #000000; stroke-width: 0.8; stroke-linejoin: miter; stroke-linecap: square"/>
   </g>
  </g>
 </g>
 <defs>
  <clipPath id="p18910839c1">
   <rect x="58.5" y="25.92" width="362.7" height="166.32"/>
  </clipPath>
 </defs>
</svg>
