<?xml version="1.0" encoding="utf-8" standalone="no"?>
<!DOCTYPE svg PUBLIC "-//W3C//DTD SVG 1.1//EN"
  "http://www.w3.org/Graphics/SVG/1.1/DTD/svg11.dtd">
<svg xmlns:xlink="http://www.w3.org/1999/xlink" width="180pt" height="180pt" viewBox="0 0 180 180" xmlns="http://www.w3.org/2000/svg" version="1.1">
 <metadata>
  <rdf:RDF xmlns:dc="http://purl.org/dc/elements/1.1/" xmlns:cc="http://creativecommons.org/ns#" xmlns:rdf="http://www.w3.org/1999/02/22-rdf-syntax-ns#">
   <cc:Work>
    <dc:type rdf:resource="http://purl.org/dc/dcmitype/StillImage"/>
    <dc:date>2023-03-29T15:37:29.377548</dc:date>
    <dc:format>image/svg+xml</dc:format>
    <dc:creator>
     <cc:Agent>
      <dc:title>Matplotlib v3.6.2, https://matplotlib.org/</dc:title>
     </cc:Agent>
    </dc:creator>
   </cc:Work>
  </rdf:RDF>
 </metadata>
 <defs>
  <style type="text/css">*{stroke-linejoin: round; stroke-linecap: butt}</style>
 </defs>
 <g id="figure_1">
  <g id="patch_1">
   <path d="M 0 180 
L 180 180 
L 180 0 
L 0 0 
z
" style="fill: #ffffff"/>
  </g>
  <g id="axes_1">
   <g id="patch_2">
    <path d="M 6.50024 53.64327 
L 117.299855 53.64327 
L 117.299855 3.00024 
L 6.50024 3.00024 
z
" style="fill: #ffffff"/>
   </g>
   <g id="matplotlib.axis_1">
    <g id="xtick_1">
     <g id="line2d_1">
      <defs>
       <path id="m6d7d813b3b" d="M 0 0 
L 0 3.5 
" style="stroke: #000000; stroke-width: 0.8"/>
      </defs>
      <g>
       <use xlink:href="#m6d7d813b3b" x="11.536586" y="53.64327" style="stroke: #000000; stroke-width: 0.8"/>
      </g>
     </g>
     <g id="text_1">
      <!-- 0 -->
      <g transform="translate(8.355336 68.241708) scale(0.1 -0.1)">
       <defs>
        <path id="DejaVuSans-30" d="M 2034 4250 
Q 1547 4250 1301 3770 
Q 1056 3291 1056 2328 
Q 1056 1369 1301 889 
Q 1547 409 2034 409 
Q 2525 409 2770 889 
Q 3016 1369 3016 2328 
Q 3016 3291 2770 3770 
Q 2525 4250 2034 4250 
z
M 2034 4750 
Q 2819 4750 3233 4129 
Q 3647 3509 3647 2328 
Q 3647 1150 3233 529 
Q 2819 -91 2034 -91 
Q 1250 -91 836 529 
Q 422 1150 422 2328 
Q 422 3509 836 4129 
Q 1250 4750 2034 4750 
z
" transform="scale(0.015625)"/>
       </defs>
       <use xlink:href="#DejaVuSans-30"/>
      </g>
     </g>
    </g>
    <g id="xtick_2">
     <g id="line2d_2">
      <g>
       <use xlink:href="#m6d7d813b3b" x="69.094827" y="53.64327" style="stroke: #000000; stroke-width: 0.8"/>
      </g>
     </g>
     <g id="text_2">
      <!-- 20 -->
      <g transform="translate(62.732327 68.241708) scale(0.1 -0.1)">
       <defs>
        <path id="DejaVuSans-32" d="M 1228 531 
L 3431 531 
L 3431 0 
L 469 0 
L 469 531 
Q 828 903 1448 1529 
Q 2069 2156 2228 2338 
Q 2531 2678 2651 2914 
Q 2772 3150 2772 3378 
Q 2772 3750 2511 3984 
Q 2250 4219 1831 4219 
Q 1534 4219 1204 4116 
Q 875 4013 500 3803 
L 500 4441 
Q 881 4594 1212 4672 
Q 1544 4750 1819 4750 
Q 2544 4750 2975 4387 
Q 3406 4025 3406 3419 
Q 3406 3131 3298 2873 
Q 3191 2616 2906 2266 
Q 2828 2175 2409 1742 
Q 1991 1309 1228 531 
z
" transform="scale(0.015625)"/>
       </defs>
       <use xlink:href="#DejaVuSans-32"/>
       <use xlink:href="#DejaVuSans-30" x="63.623047"/>
      </g>
     </g>
    </g>
    <g id="text_3">
     <!-- inter-stimuli intervals (ms) -->
     <g transform="translate(-4.228078 81.919833) scale(0.1 -0.1)">
      <defs>
       <path id="DejaVuSans-69" d="M 603 3500 
L 1178 3500 
L 1178 0 
L 603 0 
L 603 3500 
z
M 603 4863 
L 1178 4863 
L 1178 4134 
L 603 4134 
L 603 4863 
z
" transform="scale(0.015625)"/>
       <path id="DejaVuSans-6e" d="M 3513 2113 
L 3513 0 
L 2938 0 
L 2938 2094 
Q 2938 2591 2744 2837 
Q 2550 3084 2163 3084 
Q 1697 3084 1428 2787 
Q 1159 2491 1159 1978 
L 1159 0 
L 581 0 
L 581 3500 
L 1159 3500 
L 1159 2956 
Q 1366 3272 1645 3428 
Q 1925 3584 2291 3584 
Q 2894 3584 3203 3211 
Q 3513 2838 3513 2113 
z
" transform="scale(0.015625)"/>
       <path id="DejaVuSans-74" d="M 1172 4494 
L 1172 3500 
L 2356 3500 
L 2356 3053 
L 1172 3053 
L 1172 1153 
Q 1172 725 1289 603 
Q 1406 481 1766 481 
L 2356 481 
L 2356 0 
L 1766 0 
Q 1100 0 847 248 
Q 594 497 594 1153 
L 594 3053 
L 172 3053 
L 172 3500 
L 594 3500 
L 594 4494 
L 1172 4494 
z
" transform="scale(0.015625)"/>
       <path id="DejaVuSans-65" d="M 3597 1894 
L 3597 1613 
L 953 1613 
Q 991 1019 1311 708 
Q 1631 397 2203 397 
Q 2534 397 2845 478 
Q 3156 559 3463 722 
L 3463 178 
Q 3153 47 2828 -22 
Q 2503 -91 2169 -91 
Q 1331 -91 842 396 
Q 353 884 353 1716 
Q 353 2575 817 3079 
Q 1281 3584 2069 3584 
Q 2775 3584 3186 3129 
Q 3597 2675 3597 1894 
z
M 3022 2063 
Q 3016 2534 2758 2815 
Q 2500 3097 2075 3097 
Q 1594 3097 1305 2825 
Q 1016 2553 972 2059 
L 3022 2063 
z
" transform="scale(0.015625)"/>
       <path id="DejaVuSans-72" d="M 2631 2963 
Q 2534 3019 2420 3045 
Q 2306 3072 2169 3072 
Q 1681 3072 1420 2755 
Q 1159 2438 1159 1844 
L 1159 0 
L 581 0 
L 581 3500 
L 1159 3500 
L 1159 2956 
Q 1341 3275 1631 3429 
Q 1922 3584 2338 3584 
Q 2397 3584 2469 3576 
Q 2541 3569 2628 3553 
L 2631 2963 
z
" transform="scale(0.015625)"/>
       <path id="DejaVuSans-2d" d="M 313 2009 
L 1997 2009 
L 1997 1497 
L 313 1497 
L 313 2009 
z
" transform="scale(0.015625)"/>
       <path id="DejaVuSans-73" d="M 2834 3397 
L 2834 2853 
Q 2591 2978 2328 3040 
Q 2066 3103 1784 3103 
Q 1356 3103 1142 2972 
Q 928 2841 928 2578 
Q 928 2378 1081 2264 
Q 1234 2150 1697 2047 
L 1894 2003 
Q 2506 1872 2764 1633 
Q 3022 1394 3022 966 
Q 3022 478 2636 193 
Q 2250 -91 1575 -91 
Q 1294 -91 989 -36 
Q 684 19 347 128 
L 347 722 
Q 666 556 975 473 
Q 1284 391 1588 391 
Q 1994 391 2212 530 
Q 2431 669 2431 922 
Q 2431 1156 2273 1281 
Q 2116 1406 1581 1522 
L 1381 1569 
Q 847 1681 609 1914 
Q 372 2147 372 2553 
Q 372 3047 722 3315 
Q 1072 3584 1716 3584 
Q 2034 3584 2315 3537 
Q 2597 3491 2834 3397 
z
" transform="scale(0.015625)"/>
       <path id="DejaVuSans-6d" d="M 3328 2828 
Q 3544 3216 3844 3400 
Q 4144 3584 4550 3584 
Q 5097 3584 5394 3201 
Q 5691 2819 5691 2113 
L 5691 0 
L 5113 0 
L 5113 2094 
Q 5113 2597 4934 2840 
Q 4756 3084 4391 3084 
Q 3944 3084 3684 2787 
Q 3425 2491 3425 1978 
L 3425 0 
L 2847 0 
L 2847 2094 
Q 2847 2600 2669 2842 
Q 2491 3084 2119 3084 
Q 1678 3084 1418 2786 
Q 1159 2488 1159 1978 
L 1159 0 
L 581 0 
L 581 3500 
L 1159 3500 
L 1159 2956 
Q 1356 3278 1631 3431 
Q 1906 3584 2284 3584 
Q 2666 3584 2933 3390 
Q 3200 3197 3328 2828 
z
" transform="scale(0.015625)"/>
       <path id="DejaVuSans-75" d="M 544 1381 
L 544 3500 
L 1119 3500 
L 1119 1403 
Q 1119 906 1312 657 
Q 1506 409 1894 409 
Q 2359 409 2629 706 
Q 2900 1003 2900 1516 
L 2900 3500 
L 3475 3500 
L 3475 0 
L 2900 0 
L 2900 538 
Q 2691 219 2414 64 
Q 2138 -91 1772 -91 
Q 1169 -91 856 284 
Q 544 659 544 1381 
z
M 1991 3584 
L 1991 3584 
z
" transform="scale(0.015625)"/>
       <path id="DejaVuSans-6c" d="M 603 4863 
L 1178 4863 
L 1178 0 
L 603 0 
L 603 4863 
z
" transform="scale(0.015625)"/>
       <path id="DejaVuSans-20" transform="scale(0.015625)"/>
       <path id="DejaVuSans-76" d="M 191 3500 
L 800 3500 
L 1894 563 
L 2988 3500 
L 3597 3500 
L 2284 0 
L 1503 0 
L 191 3500 
z
" transform="scale(0.015625)"/>
       <path id="DejaVuSans-61" d="M 2194 1759 
Q 1497 1759 1228 1600 
Q 959 1441 959 1056 
Q 959 750 1161 570 
Q 1363 391 1709 391 
Q 2188 391 2477 730 
Q 2766 1069 2766 1631 
L 2766 1759 
L 2194 1759 
z
M 3341 1997 
L 3341 0 
L 2766 0 
L 2766 531 
Q 2569 213 2275 61 
Q 1981 -91 1556 -91 
Q 1019 -91 701 211 
Q 384 513 384 1019 
Q 384 1609 779 1909 
Q 1175 2209 1959 2209 
L 2766 2209 
L 2766 2266 
Q 2766 2663 2505 2880 
Q 2244 3097 1772 3097 
Q 1472 3097 1187 3025 
Q 903 2953 641 2809 
L 641 3341 
Q 956 3463 1253 3523 
Q 1550 3584 1831 3584 
Q 2591 3584 2966 3190 
Q 3341 2797 3341 1997 
z
" transform="scale(0.015625)"/>
       <path id="DejaVuSans-28" d="M 1984 4856 
Q 1566 4138 1362 3434 
Q 1159 2731 1159 2009 
Q 1159 1288 1364 580 
Q 1569 -128 1984 -844 
L 1484 -844 
Q 1016 -109 783 600 
Q 550 1309 550 2009 
Q 550 2706 781 3412 
Q 1013 4119 1484 4856 
L 1984 4856 
z
" transform="scale(0.015625)"/>
       <path id="DejaVuSans-29" d="M 513 4856 
L 1013 4856 
Q 1481 4119 1714 3412 
Q 1947 2706 1947 2009 
Q 1947 1309 1714 600 
Q 1481 -109 1013 -844 
L 513 -844 
Q 928 -128 1133 580 
Q 1338 1288 1338 2009 
Q 1338 2731 1133 3434 
Q 928 4138 513 4856 
z
" transform="scale(0.015625)"/>
      </defs>
      <use xlink:href="#DejaVuSans-69"/>
      <use xlink:href="#DejaVuSans-6e" x="27.783203"/>
      <use xlink:href="#DejaVuSans-74" x="91.162109"/>
      <use xlink:href="#DejaVuSans-65" x="130.371094"/>
      <use xlink:href="#DejaVuSans-72" x="191.894531"/>
      <use xlink:href="#DejaVuSans-2d" x="226.632812"/>
      <use xlink:href="#DejaVuSans-73" x="262.716797"/>
      <use xlink:href="#DejaVuSans-74" x="314.816406"/>
      <use xlink:href="#DejaVuSans-69" x="354.025391"/>
      <use xlink:href="#DejaVuSans-6d" x="381.808594"/>
      <use xlink:href="#DejaVuSans-75" x="479.220703"/>
      <use xlink:href="#DejaVuSans-6c" x="542.599609"/>
      <use xlink:href="#DejaVuSans-69" x="570.382812"/>
      <use xlink:href="#DejaVuSans-20" x="598.166016"/>
      <use xlink:href="#DejaVuSans-69" x="629.953125"/>
      <use xlink:href="#DejaVuSans-6e" x="657.736328"/>
      <use xlink:href="#DejaVuSans-74" x="721.115234"/>
      <use xlink:href="#DejaVuSans-65" x="760.324219"/>
      <use xlink:href="#DejaVuSans-72" x="821.847656"/>
      <use xlink:href="#DejaVuSans-76" x="862.960938"/>
      <use xlink:href="#DejaVuSans-61" x="922.140625"/>
      <use xlink:href="#DejaVuSans-6c" x="983.419922"/>
      <use xlink:href="#DejaVuSans-73" x="1011.203125"/>
      <use xlink:href="#DejaVuSans-20" x="1063.302734"/>
      <use xlink:href="#DejaVuSans-28" x="1095.089844"/>
      <use xlink:href="#DejaVuSans-6d" x="1134.103516"/>
      <use xlink:href="#DejaVuSans-73" x="1231.515625"/>
      <use xlink:href="#DejaVuSans-29" x="1283.615234"/>
     </g>
    </g>
   </g>
   <g id="matplotlib.axis_2"/>
   <g id="line2d_3">
    <path d="M 11.536586 24.32801 
L 12.746519 16.972555 
L 13.553141 13.365565 
L 14.158108 11.55281 
L 14.662246 10.653688 
L 15.065557 10.320689 
L 15.468868 10.305447 
L 15.872179 10.575132 
L 16.376318 11.253971 
L 17.082112 12.697188 
L 18.09039 15.371251 
L 21.21605 24.031031 
L 22.425983 26.653121 
L 23.635916 28.771314 
L 25.047505 30.774779 
L 27.769854 34.132387 
L 30.290548 36.978886 
L 32.206275 38.799214 
L 34.525313 40.683767 
L 36.44104 41.984611 
L 38.25594 42.950115 
L 41.684083 44.434543 
L 49.851131 47.864762 
L 51.968514 48.394528 
L 54.791691 48.846275 
L 65.076121 50.076022 
L 69.915853 50.409219 
L 88.064848 51.145697 
L 112.263508 51.317377 
L 112.263508 51.317377 
" clip-path="url(#p1d8054815e)" style="fill: none; stroke: #1f77b4; stroke-width: 1.5; stroke-linecap: square"/>
   </g>
   <g id="line2d_4">
    <path d="M 11.536586 21.092291 
L 12.746519 12.908446 
L 13.553141 8.882053 
L 14.158108 6.837139 
L 14.662246 5.79755 
L 15.065557 5.384471 
L 15.368041 5.302196 
L 15.670524 5.398984 
L 16.073835 5.777695 
L 16.577974 6.592068 
L 17.283768 8.216687 
L 18.392873 11.446769 
L 21.921844 22.136285 
L 23.535088 26.193925 
L 25.148332 29.689615 
L 26.862404 32.868125 
L 28.576476 35.570503 
L 30.290548 37.862162 
L 32.105447 39.912934 
L 34.021174 41.744815 
L 36.138557 43.461462 
L 38.356768 44.966999 
L 40.574978 46.19443 
L 42.894016 47.211935 
L 45.41471 48.064117 
L 48.338715 48.809905 
L 52.371825 49.590995 
L 56.505763 50.166908 
L 61.345495 50.605696 
L 68.000126 50.957411 
L 76.973796 51.178673 
L 94.517824 51.315774 
L 112.263508 51.341314 
L 112.263508 51.341314 
" clip-path="url(#p1d8054815e)" style="fill: none; stroke: #ff7f0e; stroke-width: 1.5; stroke-linecap: square"/>
   </g>
   <g id="patch_3">
    <path d="M 6.50024 53.64327 
L 6.50024 3.00024 
" style="fill: none; stroke: #000000; stroke-width: 0.8; stroke-linejoin: miter; stroke-linecap: square"/>
   </g>
   <g id="patch_4">
    <path d="M 6.50024 53.64327 
L 117.299855 53.64327 
" style="fill: none; stroke: #000000; stroke-width: 0.8; stroke-linejoin: miter; stroke-linecap: square"/>
   </g>
   <g id="legend_1">
    <g id="patch_5">
     <path d="M 36.707667 40.35649 
L 110.299855 40.35649 
Q 112.299855 40.35649 112.299855 38.35649 
L 112.299855 10.00024 
Q 112.299855 8.00024 110.299855 8.00024 
L 36.707667 8.00024 
Q 34.707667 8.00024 34.707667 10.00024 
L 34.707667 38.35649 
Q 34.707667 40.35649 36.707667 40.35649 
z
" style="fill: #ffffff; opacity: 0.8; stroke: #cccccc; stroke-linejoin: miter"/>
    </g>
    <g id="line2d_5">
     <path d="M 38.707667 16.098678 
L 48.707667 16.098678 
L 58.707667 16.098678 
" style="fill: none; stroke: #1f77b4; stroke-width: 1.5; stroke-linecap: square"/>
    </g>
    <g id="text_4">
     <!-- pre-post -->
     <g transform="translate(66.707667 19.598678) scale(0.1 -0.1)">
      <defs>
       <path id="DejaVuSans-70" d="M 1159 525 
L 1159 -1331 
L 581 -1331 
L 581 3500 
L 1159 3500 
L 1159 2969 
Q 1341 3281 1617 3432 
Q 1894 3584 2278 3584 
Q 2916 3584 3314 3078 
Q 3713 2572 3713 1747 
Q 3713 922 3314 415 
Q 2916 -91 2278 -91 
Q 1894 -91 1617 61 
Q 1341 213 1159 525 
z
M 3116 1747 
Q 3116 2381 2855 2742 
Q 2594 3103 2138 3103 
Q 1681 3103 1420 2742 
Q 1159 2381 1159 1747 
Q 1159 1113 1420 752 
Q 1681 391 2138 391 
Q 2594 391 2855 752 
Q 3116 1113 3116 1747 
z
" transform="scale(0.015625)"/>
       <path id="DejaVuSans-6f" d="M 1959 3097 
Q 1497 3097 1228 2736 
Q 959 2375 959 1747 
Q 959 1119 1226 758 
Q 1494 397 1959 397 
Q 2419 397 2687 759 
Q 2956 1122 2956 1747 
Q 2956 2369 2687 2733 
Q 2419 3097 1959 3097 
z
M 1959 3584 
Q 2709 3584 3137 3096 
Q 3566 2609 3566 1747 
Q 3566 888 3137 398 
Q 2709 -91 1959 -91 
Q 1206 -91 779 398 
Q 353 888 353 1747 
Q 353 2609 779 3096 
Q 1206 3584 1959 3584 
z
" transform="scale(0.015625)"/>
      </defs>
      <use xlink:href="#DejaVuSans-70"/>
      <use xlink:href="#DejaVuSans-72" x="63.476562"/>
      <use xlink:href="#DejaVuSans-65" x="102.339844"/>
      <use xlink:href="#DejaVuSans-2d" x="163.863281"/>
      <use xlink:href="#DejaVuSans-70" x="199.947266"/>
      <use xlink:href="#DejaVuSans-6f" x="263.423828"/>
      <use xlink:href="#DejaVuSans-73" x="324.605469"/>
      <use xlink:href="#DejaVuSans-74" x="376.705078"/>
     </g>
    </g>
    <g id="line2d_6">
     <path d="M 38.707667 30.776803 
L 48.707667 30.776803 
L 58.707667 30.776803 
" style="fill: none; stroke: #ff7f0e; stroke-width: 1.5; stroke-linecap: square"/>
    </g>
    <g id="text_5">
     <!-- exp -->
     <g transform="translate(66.707667 34.276803) scale(0.1 -0.1)">
      <defs>
       <path id="DejaVuSans-78" d="M 3513 3500 
L 2247 1797 
L 3578 0 
L 2900 0 
L 1881 1375 
L 863 0 
L 184 0 
L 1544 1831 
L 300 3500 
L 978 3500 
L 1906 2253 
L 2834 3500 
L 3513 3500 
z
" transform="scale(0.015625)"/>
      </defs>
      <use xlink:href="#DejaVuSans-65"/>
      <use xlink:href="#DejaVuSans-78" x="59.773438"/>
      <use xlink:href="#DejaVuSans-70" x="118.953125"/>
     </g>
    </g>
   </g>
  </g>
  <g id="axes_2">
   <g id="patch_6">
    <path d="M 126.38843 146.64351 
L 163.321635 146.64351 
L 163.321635 3.00024 
L 126.38843 3.00024 
z
" style="fill: #ffffff"/>
   </g>
   <g id="patch_7">
    <path d="M 128.067212 146.64351 
L 137.660252 146.64351 
L 137.660252 47.950638 
L 128.067212 47.950638 
z
" clip-path="url(#p3bc5130ab3)" style="fill: #ff0000"/>
   </g>
   <g id="patch_8">
    <path d="M 140.058512 146.64351 
L 149.651553 146.64351 
L 149.651553 50.341318 
L 140.058512 50.341318 
z
" clip-path="url(#p3bc5130ab3)" style="fill: #ff0000"/>
   </g>
   <g id="patch_9">
    <path d="M 152.049813 146.64351 
L 161.642853 146.64351 
L 161.642853 44.041174 
L 152.049813 44.041174 
z
" clip-path="url(#p3bc5130ab3)" style="fill: #ff0000"/>
   </g>
   <g id="patch_10">
    <path d="M 128.067212 47.950638 
L 137.660252 47.950638 
L 137.660252 9.840396 
L 128.067212 9.840396 
z
" clip-path="url(#p3bc5130ab3)" style="fill: #0000ff"/>
   </g>
   <g id="patch_11">
    <path d="M 140.058512 50.341318 
L 149.651553 50.341318 
L 149.651553 9.840396 
L 140.058512 9.840396 
z
" clip-path="url(#p3bc5130ab3)" style="fill: #0000ff"/>
   </g>
   <g id="patch_12">
    <path d="M 152.049813 44.041174 
L 161.642853 44.041174 
L 161.642853 9.840396 
L 152.049813 9.840396 
z
" clip-path="url(#p3bc5130ab3)" style="fill: #0000ff"/>
   </g>
   <g id="matplotlib.axis_3">
    <g id="xtick_3">
     <g id="line2d_7">
      <g>
       <use xlink:href="#m6d7d813b3b" x="132.863732" y="146.64351" style="stroke: #000000; stroke-width: 0.8"/>
      </g>
     </g>
     <g id="text_6">
      <!-- pre -->
      <g transform="translate(129.021049 170.604129) rotate(-45) scale(0.1 -0.1)">
       <use xlink:href="#DejaVuSans-70"/>
       <use xlink:href="#DejaVuSans-72" x="63.476562"/>
       <use xlink:href="#DejaVuSans-65" x="102.339844"/>
      </g>
     </g>
    </g>
    <g id="xtick_4">
     <g id="line2d_8">
      <g>
       <use xlink:href="#m6d7d813b3b" x="144.855033" y="146.64351" style="stroke: #000000; stroke-width: 0.8"/>
      </g>
     </g>
     <g id="text_7">
      <!-- post -->
      <g transform="translate(139.170557 174.287713) rotate(-45) scale(0.1 -0.1)">
       <use xlink:href="#DejaVuSans-70"/>
       <use xlink:href="#DejaVuSans-6f" x="63.476562"/>
       <use xlink:href="#DejaVuSans-73" x="124.658203"/>
       <use xlink:href="#DejaVuSans-74" x="176.757812"/>
      </g>
     </g>
    </g>
    <g id="xtick_5">
     <g id="line2d_9">
      <g>
       <use xlink:href="#m6d7d813b3b" x="156.846333" y="146.64351" style="stroke: #000000; stroke-width: 0.8"/>
      </g>
     </g>
     <g id="text_8">
      <!-- exp -->
      <g transform="translate(152.346814 171.917801) rotate(-45) scale(0.1 -0.1)">
       <use xlink:href="#DejaVuSans-65"/>
       <use xlink:href="#DejaVuSans-78" x="59.773438"/>
       <use xlink:href="#DejaVuSans-70" x="118.953125"/>
      </g>
     </g>
    </g>
   </g>
   <g id="matplotlib.axis_4">
    <g id="text_9">
     <!-- excitatory/inhibitory ratio -->
     <g transform="translate(174.920072 138.394531) rotate(-90) scale(0.1 -0.1)">
      <defs>
       <path id="DejaVuSans-63" d="M 3122 3366 
L 3122 2828 
Q 2878 2963 2633 3030 
Q 2388 3097 2138 3097 
Q 1578 3097 1268 2742 
Q 959 2388 959 1747 
Q 959 1106 1268 751 
Q 1578 397 2138 397 
Q 2388 397 2633 464 
Q 2878 531 3122 666 
L 3122 134 
Q 2881 22 2623 -34 
Q 2366 -91 2075 -91 
Q 1284 -91 818 406 
Q 353 903 353 1747 
Q 353 2603 823 3093 
Q 1294 3584 2113 3584 
Q 2378 3584 2631 3529 
Q 2884 3475 3122 3366 
z
" transform="scale(0.015625)"/>
       <path id="DejaVuSans-79" d="M 2059 -325 
Q 1816 -950 1584 -1140 
Q 1353 -1331 966 -1331 
L 506 -1331 
L 506 -850 
L 844 -850 
Q 1081 -850 1212 -737 
Q 1344 -625 1503 -206 
L 1606 56 
L 191 3500 
L 800 3500 
L 1894 763 
L 2988 3500 
L 3597 3500 
L 2059 -325 
z
" transform="scale(0.015625)"/>
       <path id="DejaVuSans-2f" d="M 1625 4666 
L 2156 4666 
L 531 -594 
L 0 -594 
L 1625 4666 
z
" transform="scale(0.015625)"/>
       <path id="DejaVuSans-68" d="M 3513 2113 
L 3513 0 
L 2938 0 
L 2938 2094 
Q 2938 2591 2744 2837 
Q 2550 3084 2163 3084 
Q 1697 3084 1428 2787 
Q 1159 2491 1159 1978 
L 1159 0 
L 581 0 
L 581 4863 
L 1159 4863 
L 1159 2956 
Q 1366 3272 1645 3428 
Q 1925 3584 2291 3584 
Q 2894 3584 3203 3211 
Q 3513 2838 3513 2113 
z
" transform="scale(0.015625)"/>
       <path id="DejaVuSans-62" d="M 3116 1747 
Q 3116 2381 2855 2742 
Q 2594 3103 2138 3103 
Q 1681 3103 1420 2742 
Q 1159 2381 1159 1747 
Q 1159 1113 1420 752 
Q 1681 391 2138 391 
Q 2594 391 2855 752 
Q 3116 1113 3116 1747 
z
M 1159 2969 
Q 1341 3281 1617 3432 
Q 1894 3584 2278 3584 
Q 2916 3584 3314 3078 
Q 3713 2572 3713 1747 
Q 3713 922 3314 415 
Q 2916 -91 2278 -91 
Q 1894 -91 1617 61 
Q 1341 213 1159 525 
L 1159 0 
L 581 0 
L 581 4863 
L 1159 4863 
L 1159 2969 
z
" transform="scale(0.015625)"/>
      </defs>
      <use xlink:href="#DejaVuSans-65"/>
      <use xlink:href="#DejaVuSans-78" x="59.773438"/>
      <use xlink:href="#DejaVuSans-63" x="117.203125"/>
      <use xlink:href="#DejaVuSans-69" x="172.183594"/>
      <use xlink:href="#DejaVuSans-74" x="199.966797"/>
      <use xlink:href="#DejaVuSans-61" x="239.175781"/>
      <use xlink:href="#DejaVuSans-74" x="300.455078"/>
      <use xlink:href="#DejaVuSans-6f" x="339.664062"/>
      <use xlink:href="#DejaVuSans-72" x="400.845703"/>
      <use xlink:href="#DejaVuSans-79" x="441.958984"/>
      <use xlink:href="#DejaVuSans-2f" x="501.138672"/>
      <use xlink:href="#DejaVuSans-69" x="534.830078"/>
      <use xlink:href="#DejaVuSans-6e" x="562.613281"/>
      <use xlink:href="#DejaVuSans-68" x="625.992188"/>
      <use xlink:href="#DejaVuSans-69" x="689.371094"/>
      <use xlink:href="#DejaVuSans-62" x="717.154297"/>
      <use xlink:href="#DejaVuSans-69" x="780.630859"/>
      <use xlink:href="#DejaVuSans-74" x="808.414062"/>
      <use xlink:href="#DejaVuSans-6f" x="847.623047"/>
      <use xlink:href="#DejaVuSans-72" x="908.804688"/>
      <use xlink:href="#DejaVuSans-79" x="949.917969"/>
      <use xlink:href="#DejaVuSans-20" x="1009.097656"/>
      <use xlink:href="#DejaVuSans-72" x="1040.884766"/>
      <use xlink:href="#DejaVuSans-61" x="1081.998047"/>
      <use xlink:href="#DejaVuSans-74" x="1143.277344"/>
      <use xlink:href="#DejaVuSans-69" x="1182.486328"/>
      <use xlink:href="#DejaVuSans-6f" x="1210.269531"/>
     </g>
    </g>
   </g>
   <g id="patch_13">
    <path d="M 126.38843 146.64351 
L 163.321635 146.64351 
" style="fill: none; stroke: #000000; stroke-width: 0.8; stroke-linejoin: miter; stroke-linecap: square"/>
   </g>
  </g>
  <g id="axes_3">
   <g id="patch_14">
    <path d="M 6.50024 146.64351 
L 117.299855 146.64351 
L 117.299855 96.00048 
L 6.50024 96.00048 
z
" style="fill: #ffffff"/>
   </g>
   <g id="patch_15">
    <path d="M 9.578007 146.64351 
L 15.733541 146.64351 
L 15.733541 98.412053 
L 9.578007 98.412053 
z
" clip-path="url(#p41864e497d)" style="fill: #1f77b4"/>
   </g>
   <g id="patch_16">
    <path d="M 15.733541 146.64351 
L 21.889075 146.64351 
L 21.889075 117.067616 
L 15.733541 117.067616 
z
" clip-path="url(#p41864e497d)" style="fill: #1f77b4"/>
   </g>
   <g id="patch_17">
    <path d="M 21.889075 146.64351 
L 28.044609 146.64351 
L 28.044609 128.477961 
L 21.889075 128.477961 
z
" clip-path="url(#p41864e497d)" style="fill: #1f77b4"/>
   </g>
   <g id="patch_18">
    <path d="M 28.044609 146.64351 
L 34.200144 146.64351 
L 34.200144 132.048069 
L 28.044609 132.048069 
z
" clip-path="url(#p41864e497d)" style="fill: #1f77b4"/>
   </g>
   <g id="patch_19">
    <path d="M 34.200144 146.64351 
L 40.355678 146.64351 
L 40.355678 135.023159 
L 34.200144 135.023159 
z
" clip-path="url(#p41864e497d)" style="fill: #1f77b4"/>
   </g>
   <g id="patch_20">
    <path d="M 40.355678 146.64351 
L 46.511212 146.64351 
L 46.511212 136.353199 
L 40.355678 136.353199 
z
" clip-path="url(#p41864e497d)" style="fill: #1f77b4"/>
   </g>
   <g id="patch_21">
    <path d="M 46.511212 146.64351 
L 52.666746 146.64351 
L 52.666746 138.69827 
L 46.511212 138.69827 
z
" clip-path="url(#p41864e497d)" style="fill: #1f77b4"/>
   </g>
   <g id="patch_22">
    <path d="M 52.666746 146.64351 
L 58.82228 146.64351 
L 58.82228 140.273318 
L 52.666746 140.273318 
z
" clip-path="url(#p41864e497d)" style="fill: #1f77b4"/>
   </g>
   <g id="patch_23">
    <path d="M 58.82228 146.64351 
L 64.977814 146.64351 
L 64.977814 140.833334 
L 58.82228 140.833334 
z
" clip-path="url(#p41864e497d)" style="fill: #1f77b4"/>
   </g>
   <g id="patch_24">
    <path d="M 64.977814 146.64351 
L 71.133348 146.64351 
L 71.133348 142.02337 
L 64.977814 142.02337 
z
" clip-path="url(#p41864e497d)" style="fill: #1f77b4"/>
   </g>
   <g id="patch_25">
    <path d="M 71.133348 146.64351 
L 77.288883 146.64351 
L 77.288883 143.213406 
L 71.133348 143.213406 
z
" clip-path="url(#p41864e497d)" style="fill: #1f77b4"/>
   </g>
   <g id="patch_26">
    <path d="M 77.288883 146.64351 
L 83.444417 146.64351 
L 83.444417 144.543447 
L 77.288883 144.543447 
z
" clip-path="url(#p41864e497d)" style="fill: #1f77b4"/>
   </g>
   <g id="patch_27">
    <path d="M 83.444417 146.64351 
L 89.599951 146.64351 
L 89.599951 144.718452 
L 83.444417 144.718452 
z
" clip-path="url(#p41864e497d)" style="fill: #1f77b4"/>
   </g>
   <g id="patch_28">
    <path d="M 89.599951 146.64351 
L 95.755485 146.64351 
L 95.755485 144.928458 
L 89.599951 144.928458 
z
" clip-path="url(#p41864e497d)" style="fill: #1f77b4"/>
   </g>
   <g id="patch_29">
    <path d="M 95.755485 146.64351 
L 101.911019 146.64351 
L 101.911019 145.068462 
L 95.755485 145.068462 
z
" clip-path="url(#p41864e497d)" style="fill: #1f77b4"/>
   </g>
   <g id="patch_30">
    <path d="M 101.911019 146.64351 
L 108.066553 146.64351 
L 108.066553 145.138465 
L 101.911019 145.138465 
z
" clip-path="url(#p41864e497d)" style="fill: #1f77b4"/>
   </g>
   <g id="patch_31">
    <path d="M 108.066553 146.64351 
L 114.222087 146.64351 
L 114.222087 145.873487 
L 108.066553 145.873487 
z
" clip-path="url(#p41864e497d)" style="fill: #1f77b4"/>
   </g>
   <g id="matplotlib.axis_5">
    <g id="xtick_6">
     <g id="line2d_10">
      <g>
       <use xlink:href="#m6d7d813b3b" x="18.811308" y="146.64351" style="stroke: #000000; stroke-width: 0.8"/>
      </g>
     </g>
     <g id="text_10">
      <!-- 5 -->
      <g transform="translate(15.630058 161.241948) scale(0.1 -0.1)">
       <defs>
        <path id="DejaVuSans-35" d="M 691 4666 
L 3169 4666 
L 3169 4134 
L 1269 4134 
L 1269 2991 
Q 1406 3038 1543 3061 
Q 1681 3084 1819 3084 
Q 2600 3084 3056 2656 
Q 3513 2228 3513 1497 
Q 3513 744 3044 326 
Q 2575 -91 1722 -91 
Q 1428 -91 1123 -41 
Q 819 9 494 109 
L 494 744 
Q 775 591 1075 516 
Q 1375 441 1709 441 
Q 2250 441 2565 725 
Q 2881 1009 2881 1497 
Q 2881 1984 2565 2268 
Q 2250 2553 1709 2553 
Q 1456 2553 1204 2497 
Q 953 2441 691 2322 
L 691 4666 
z
" transform="scale(0.015625)"/>
       </defs>
       <use xlink:href="#DejaVuSans-35"/>
      </g>
     </g>
    </g>
    <g id="xtick_7">
     <g id="line2d_11">
      <g>
       <use xlink:href="#m6d7d813b3b" x="49.588979" y="146.64351" style="stroke: #000000; stroke-width: 0.8"/>
      </g>
     </g>
     <g id="text_11">
      <!-- 10 -->
      <g transform="translate(43.226479 161.241948) scale(0.1 -0.1)">
       <defs>
        <path id="DejaVuSans-31" d="M 794 531 
L 1825 531 
L 1825 4091 
L 703 3866 
L 703 4441 
L 1819 4666 
L 2450 4666 
L 2450 531 
L 3481 531 
L 3481 0 
L 794 0 
L 794 531 
z
" transform="scale(0.015625)"/>
       </defs>
       <use xlink:href="#DejaVuSans-31"/>
       <use xlink:href="#DejaVuSans-30" x="63.623047"/>
      </g>
     </g>
    </g>
    <g id="xtick_8">
     <g id="line2d_12">
      <g>
       <use xlink:href="#m6d7d813b3b" x="80.36665" y="146.64351" style="stroke: #000000; stroke-width: 0.8"/>
      </g>
     </g>
     <g id="text_12">
      <!-- 15 -->
      <g transform="translate(74.00415 161.241948) scale(0.1 -0.1)">
       <use xlink:href="#DejaVuSans-31"/>
       <use xlink:href="#DejaVuSans-35" x="63.623047"/>
      </g>
     </g>
    </g>
    <g id="xtick_9">
     <g id="line2d_13">
      <g>
       <use xlink:href="#m6d7d813b3b" x="111.14432" y="146.64351" style="stroke: #000000; stroke-width: 0.8"/>
      </g>
     </g>
     <g id="text_13">
      <!-- 20 -->
      <g transform="translate(104.78182 161.241948) scale(0.1 -0.1)">
       <use xlink:href="#DejaVuSans-32"/>
       <use xlink:href="#DejaVuSans-30" x="63.623047"/>
      </g>
     </g>
    </g>
    <g id="text_14">
     <!-- n inputs -->
     <g transform="translate(41.67661 174.920073) scale(0.1 -0.1)">
      <use xlink:href="#DejaVuSans-6e"/>
      <use xlink:href="#DejaVuSans-20" x="63.378906"/>
      <use xlink:href="#DejaVuSans-69" x="95.166016"/>
      <use xlink:href="#DejaVuSans-6e" x="122.949219"/>
      <use xlink:href="#DejaVuSans-70" x="186.328125"/>
      <use xlink:href="#DejaVuSans-75" x="249.804688"/>
      <use xlink:href="#DejaVuSans-74" x="313.183594"/>
      <use xlink:href="#DejaVuSans-73" x="352.392578"/>
     </g>
    </g>
   </g>
   <g id="matplotlib.axis_6"/>
   <g id="patch_32">
    <path d="M 6.50024 146.64351 
L 6.50024 96.00048 
" style="fill: none; stroke: #000000; stroke-width: 0.8; stroke-linejoin: miter; stroke-linecap: square"/>
   </g>
   <g id="patch_33">
    <path d="M 6.50024 146.64351 
L 117.299855 146.64351 
" style="fill: none; stroke: #000000; stroke-width: 0.8; stroke-linejoin: miter; stroke-linecap: square"/>
   </g>
  </g>
 </g>
 <defs>
  <clipPath id="p1d8054815e">
   <rect x="6.50024" y="3.00024" width="110.799615" height="50.64303"/>
  </clipPath>
  <clipPath id="p3bc5130ab3">
   <rect x="126.38843" y="3.00024" width="36.933205" height="143.64327"/>
  </clipPath>
  <clipPath id="p41864e497d">
   <rect x="6.50024" y="96.00048" width="110.799615" height="50.64303"/>
  </clipPath>
 </defs>
</svg>
