<?xml version="1.0" encoding="utf-8" standalone="no"?>
<!DOCTYPE svg PUBLIC "-//W3C//DTD SVG 1.1//EN"
  "http://www.w3.org/Graphics/SVG/1.1/DTD/svg11.dtd">
<svg xmlns:xlink="http://www.w3.org/1999/xlink" width="468pt" height="288pt" viewBox="0 0 468 288" xmlns="http://www.w3.org/2000/svg" version="1.1">
 <metadata>
  <rdf:RDF xmlns:dc="http://purl.org/dc/elements/1.1/" xmlns:cc="http://creativecommons.org/ns#" xmlns:rdf="http://www.w3.org/1999/02/22-rdf-syntax-ns#">
   <cc:Work>
    <dc:type rdf:resource="http://purl.org/dc/dcmitype/StillImage"/>
    <dc:date>2023-03-21T18:11:08.759399</dc:date>
    <dc:format>image/svg+xml</dc:format>
    <dc:creator>
     <cc:Agent>
      <dc:title>Matplotlib v3.6.2, https://matplotlib.org/</dc:title>
     </cc:Agent>
    </dc:creator>
   </cc:Work>
  </rdf:RDF>
 </metadata>
 <defs>
  <style type="text/css">*{stroke-linejoin: round; stroke-linecap: butt}</style>
 </defs>
 <g id="figure_1">
  <g id="patch_1">
   <path d="M 0 288 
L 468 288 
L 468 0 
L 0 0 
z
" style="fill: #ffffff"/>
  </g>
  <g id="axes_1">
   <g id="patch_2">
    <path d="M 58.5 256.32 
L 421.2 256.32 
L 421.2 34.56 
L 58.5 34.56 
z
" style="fill: #ffffff"/>
   </g>
   <g id="matplotlib.axis_1">
    <g id="xtick_1">
     <g id="line2d_1">
      <defs>
       <path id="m7c7ad03bd0" d="M 0 0 
L 0 3.5 
" style="stroke: #000000; stroke-width: 0.8"/>
      </defs>
      <g>
       <use xlink:href="#m7c7ad03bd0" x="58.5" y="256.32" style="stroke: #000000; stroke-width: 0.8"/>
      </g>
     </g>
     <g id="text_1">
      <!-- 0 -->
      <g transform="translate(55.31875 270.918437) scale(0.1 -0.1)">
       <defs>
        <path id="DejaVuSans-30" d="M 2034 4250 
Q 1547 4250 1301 3770 
Q 1056 3291 1056 2328 
Q 1056 1369 1301 889 
Q 1547 409 2034 409 
Q 2525 409 2770 889 
Q 3016 1369 3016 2328 
Q 3016 3291 2770 3770 
Q 2525 4250 2034 4250 
z
M 2034 4750 
Q 2819 4750 3233 4129 
Q 3647 3509 3647 2328 
Q 3647 1150 3233 529 
Q 2819 -91 2034 -91 
Q 1250 -91 836 529 
Q 422 1150 422 2328 
Q 422 3509 836 4129 
Q 1250 4750 2034 4750 
z
" transform="scale(0.015625)"/>
       </defs>
       <use xlink:href="#DejaVuSans-30"/>
      </g>
     </g>
    </g>
    <g id="xtick_2">
     <g id="line2d_2">
      <g>
       <use xlink:href="#m7c7ad03bd0" x="131.04" y="256.32" style="stroke: #000000; stroke-width: 0.8"/>
      </g>
     </g>
     <g id="text_2">
      <!-- 5 -->
      <g transform="translate(127.85875 270.918437) scale(0.1 -0.1)">
       <defs>
        <path id="DejaVuSans-35" d="M 691 4666 
L 3169 4666 
L 3169 4134 
L 1269 4134 
L 1269 2991 
Q 1406 3038 1543 3061 
Q 1681 3084 1819 3084 
Q 2600 3084 3056 2656 
Q 3513 2228 3513 1497 
Q 3513 744 3044 326 
Q 2575 -91 1722 -91 
Q 1428 -91 1123 -41 
Q 819 9 494 109 
L 494 744 
Q 775 591 1075 516 
Q 1375 441 1709 441 
Q 2250 441 2565 725 
Q 2881 1009 2881 1497 
Q 2881 1984 2565 2268 
Q 2250 2553 1709 2553 
Q 1456 2553 1204 2497 
Q 953 2441 691 2322 
L 691 4666 
z
" transform="scale(0.015625)"/>
       </defs>
       <use xlink:href="#DejaVuSans-35"/>
      </g>
     </g>
    </g>
    <g id="xtick_3">
     <g id="line2d_3">
      <g>
       <use xlink:href="#m7c7ad03bd0" x="203.58" y="256.32" style="stroke: #000000; stroke-width: 0.8"/>
      </g>
     </g>
     <g id="text_3">
      <!-- 10 -->
      <g transform="translate(197.2175 270.918437) scale(0.1 -0.1)">
       <defs>
        <path id="DejaVuSans-31" d="M 794 531 
L 1825 531 
L 1825 4091 
L 703 3866 
L 703 4441 
L 1819 4666 
L 2450 4666 
L 2450 531 
L 3481 531 
L 3481 0 
L 794 0 
L 794 531 
z
" transform="scale(0.015625)"/>
       </defs>
       <use xlink:href="#DejaVuSans-31"/>
       <use xlink:href="#DejaVuSans-30" x="63.623047"/>
      </g>
     </g>
    </g>
    <g id="xtick_4">
     <g id="line2d_4">
      <g>
       <use xlink:href="#m7c7ad03bd0" x="276.12" y="256.32" style="stroke: #000000; stroke-width: 0.8"/>
      </g>
     </g>
     <g id="text_4">
      <!-- 15 -->
      <g transform="translate(269.7575 270.918437) scale(0.1 -0.1)">
       <use xlink:href="#DejaVuSans-31"/>
       <use xlink:href="#DejaVuSans-35" x="63.623047"/>
      </g>
     </g>
    </g>
    <g id="xtick_5">
     <g id="line2d_5">
      <g>
       <use xlink:href="#m7c7ad03bd0" x="348.66" y="256.32" style="stroke: #000000; stroke-width: 0.8"/>
      </g>
     </g>
     <g id="text_5">
      <!-- 20 -->
      <g transform="translate(342.2975 270.918437) scale(0.1 -0.1)">
       <defs>
        <path id="DejaVuSans-32" d="M 1228 531 
L 3431 531 
L 3431 0 
L 469 0 
L 469 531 
Q 828 903 1448 1529 
Q 2069 2156 2228 2338 
Q 2531 2678 2651 2914 
Q 2772 3150 2772 3378 
Q 2772 3750 2511 3984 
Q 2250 4219 1831 4219 
Q 1534 4219 1204 4116 
Q 875 4013 500 3803 
L 500 4441 
Q 881 4594 1212 4672 
Q 1544 4750 1819 4750 
Q 2544 4750 2975 4387 
Q 3406 4025 3406 3419 
Q 3406 3131 3298 2873 
Q 3191 2616 2906 2266 
Q 2828 2175 2409 1742 
Q 1991 1309 1228 531 
z
" transform="scale(0.015625)"/>
       </defs>
       <use xlink:href="#DejaVuSans-32"/>
       <use xlink:href="#DejaVuSans-30" x="63.623047"/>
      </g>
     </g>
    </g>
    <g id="xtick_6">
     <g id="line2d_6">
      <g>
       <use xlink:href="#m7c7ad03bd0" x="421.2" y="256.32" style="stroke: #000000; stroke-width: 0.8"/>
      </g>
     </g>
     <g id="text_6">
      <!-- 25 -->
      <g transform="translate(414.8375 270.918437) scale(0.1 -0.1)">
       <use xlink:href="#DejaVuSans-32"/>
       <use xlink:href="#DejaVuSans-35" x="63.623047"/>
      </g>
     </g>
    </g>
    <g id="text_7">
     <!-- time (ms) -->
     <g transform="translate(215.588281 284.596563) scale(0.1 -0.1)">
      <defs>
       <path id="DejaVuSans-74" d="M 1172 4494 
L 1172 3500 
L 2356 3500 
L 2356 3053 
L 1172 3053 
L 1172 1153 
Q 1172 725 1289 603 
Q 1406 481 1766 481 
L 2356 481 
L 2356 0 
L 1766 0 
Q 1100 0 847 248 
Q 594 497 594 1153 
L 594 3053 
L 172 3053 
L 172 3500 
L 594 3500 
L 594 4494 
L 1172 4494 
z
" transform="scale(0.015625)"/>
       <path id="DejaVuSans-69" d="M 603 3500 
L 1178 3500 
L 1178 0 
L 603 0 
L 603 3500 
z
M 603 4863 
L 1178 4863 
L 1178 4134 
L 603 4134 
L 603 4863 
z
" transform="scale(0.015625)"/>
       <path id="DejaVuSans-6d" d="M 3328 2828 
Q 3544 3216 3844 3400 
Q 4144 3584 4550 3584 
Q 5097 3584 5394 3201 
Q 5691 2819 5691 2113 
L 5691 0 
L 5113 0 
L 5113 2094 
Q 5113 2597 4934 2840 
Q 4756 3084 4391 3084 
Q 3944 3084 3684 2787 
Q 3425 2491 3425 1978 
L 3425 0 
L 2847 0 
L 2847 2094 
Q 2847 2600 2669 2842 
Q 2491 3084 2119 3084 
Q 1678 3084 1418 2786 
Q 1159 2488 1159 1978 
L 1159 0 
L 581 0 
L 581 3500 
L 1159 3500 
L 1159 2956 
Q 1356 3278 1631 3431 
Q 1906 3584 2284 3584 
Q 2666 3584 2933 3390 
Q 3200 3197 3328 2828 
z
" transform="scale(0.015625)"/>
       <path id="DejaVuSans-65" d="M 3597 1894 
L 3597 1613 
L 953 1613 
Q 991 1019 1311 708 
Q 1631 397 2203 397 
Q 2534 397 2845 478 
Q 3156 559 3463 722 
L 3463 178 
Q 3153 47 2828 -22 
Q 2503 -91 2169 -91 
Q 1331 -91 842 396 
Q 353 884 353 1716 
Q 353 2575 817 3079 
Q 1281 3584 2069 3584 
Q 2775 3584 3186 3129 
Q 3597 2675 3597 1894 
z
M 3022 2063 
Q 3016 2534 2758 2815 
Q 2500 3097 2075 3097 
Q 1594 3097 1305 2825 
Q 1016 2553 972 2059 
L 3022 2063 
z
" transform="scale(0.015625)"/>
       <path id="DejaVuSans-20" transform="scale(0.015625)"/>
       <path id="DejaVuSans-28" d="M 1984 4856 
Q 1566 4138 1362 3434 
Q 1159 2731 1159 2009 
Q 1159 1288 1364 580 
Q 1569 -128 1984 -844 
L 1484 -844 
Q 1016 -109 783 600 
Q 550 1309 550 2009 
Q 550 2706 781 3412 
Q 1013 4119 1484 4856 
L 1984 4856 
z
" transform="scale(0.015625)"/>
       <path id="DejaVuSans-73" d="M 2834 3397 
L 2834 2853 
Q 2591 2978 2328 3040 
Q 2066 3103 1784 3103 
Q 1356 3103 1142 2972 
Q 928 2841 928 2578 
Q 928 2378 1081 2264 
Q 1234 2150 1697 2047 
L 1894 2003 
Q 2506 1872 2764 1633 
Q 3022 1394 3022 966 
Q 3022 478 2636 193 
Q 2250 -91 1575 -91 
Q 1294 -91 989 -36 
Q 684 19 347 128 
L 347 722 
Q 666 556 975 473 
Q 1284 391 1588 391 
Q 1994 391 2212 530 
Q 2431 669 2431 922 
Q 2431 1156 2273 1281 
Q 2116 1406 1581 1522 
L 1381 1569 
Q 847 1681 609 1914 
Q 372 2147 372 2553 
Q 372 3047 722 3315 
Q 1072 3584 1716 3584 
Q 2034 3584 2315 3537 
Q 2597 3491 2834 3397 
z
" transform="scale(0.015625)"/>
       <path id="DejaVuSans-29" d="M 513 4856 
L 1013 4856 
Q 1481 4119 1714 3412 
Q 1947 2706 1947 2009 
Q 1947 1309 1714 600 
Q 1481 -109 1013 -844 
L 513 -844 
Q 928 -128 1133 580 
Q 1338 1288 1338 2009 
Q 1338 2731 1133 3434 
Q 928 4138 513 4856 
z
" transform="scale(0.015625)"/>
      </defs>
      <use xlink:href="#DejaVuSans-74"/>
      <use xlink:href="#DejaVuSans-69" x="39.208984"/>
      <use xlink:href="#DejaVuSans-6d" x="66.992188"/>
      <use xlink:href="#DejaVuSans-65" x="164.404297"/>
      <use xlink:href="#DejaVuSans-20" x="225.927734"/>
      <use xlink:href="#DejaVuSans-28" x="257.714844"/>
      <use xlink:href="#DejaVuSans-6d" x="296.728516"/>
      <use xlink:href="#DejaVuSans-73" x="394.140625"/>
      <use xlink:href="#DejaVuSans-29" x="446.240234"/>
     </g>
    </g>
   </g>
   <g id="matplotlib.axis_2">
    <g id="ytick_1">
     <g id="line2d_7">
      <defs>
       <path id="m4dbc511d48" d="M 0 0 
L -3.5 0 
" style="stroke: #000000; stroke-width: 0.8"/>
      </defs>
      <g>
       <use xlink:href="#m4dbc511d48" x="58.5" y="246.240002" style="stroke: #000000; stroke-width: 0.8"/>
      </g>
     </g>
     <g id="text_8">
      <!-- 0 -->
      <g transform="translate(45.1375 250.039221) scale(0.1 -0.1)">
       <use xlink:href="#DejaVuSans-30"/>
      </g>
     </g>
    </g>
    <g id="ytick_2">
     <g id="line2d_8">
      <g>
       <use xlink:href="#m4dbc511d48" x="58.5" y="203.267721" style="stroke: #000000; stroke-width: 0.8"/>
      </g>
     </g>
     <g id="text_9">
      <!-- 10 -->
      <g transform="translate(38.775 207.06694) scale(0.1 -0.1)">
       <use xlink:href="#DejaVuSans-31"/>
       <use xlink:href="#DejaVuSans-30" x="63.623047"/>
      </g>
     </g>
    </g>
    <g id="ytick_3">
     <g id="line2d_9">
      <g>
       <use xlink:href="#m4dbc511d48" x="58.5" y="160.29544" style="stroke: #000000; stroke-width: 0.8"/>
      </g>
     </g>
     <g id="text_10">
      <!-- 20 -->
      <g transform="translate(38.775 164.094658) scale(0.1 -0.1)">
       <use xlink:href="#DejaVuSans-32"/>
       <use xlink:href="#DejaVuSans-30" x="63.623047"/>
      </g>
     </g>
    </g>
    <g id="ytick_4">
     <g id="line2d_10">
      <g>
       <use xlink:href="#m4dbc511d48" x="58.5" y="117.323158" style="stroke: #000000; stroke-width: 0.8"/>
      </g>
     </g>
     <g id="text_11">
      <!-- 30 -->
      <g transform="translate(38.775 121.122377) scale(0.1 -0.1)">
       <defs>
        <path id="DejaVuSans-33" d="M 2597 2516 
Q 3050 2419 3304 2112 
Q 3559 1806 3559 1356 
Q 3559 666 3084 287 
Q 2609 -91 1734 -91 
Q 1441 -91 1130 -33 
Q 819 25 488 141 
L 488 750 
Q 750 597 1062 519 
Q 1375 441 1716 441 
Q 2309 441 2620 675 
Q 2931 909 2931 1356 
Q 2931 1769 2642 2001 
Q 2353 2234 1838 2234 
L 1294 2234 
L 1294 2753 
L 1863 2753 
Q 2328 2753 2575 2939 
Q 2822 3125 2822 3475 
Q 2822 3834 2567 4026 
Q 2313 4219 1838 4219 
Q 1578 4219 1281 4162 
Q 984 4106 628 3988 
L 628 4550 
Q 988 4650 1302 4700 
Q 1616 4750 1894 4750 
Q 2613 4750 3031 4423 
Q 3450 4097 3450 3541 
Q 3450 3153 3228 2886 
Q 3006 2619 2597 2516 
z
" transform="scale(0.015625)"/>
       </defs>
       <use xlink:href="#DejaVuSans-33"/>
       <use xlink:href="#DejaVuSans-30" x="63.623047"/>
      </g>
     </g>
    </g>
    <g id="ytick_5">
     <g id="line2d_11">
      <g>
       <use xlink:href="#m4dbc511d48" x="58.5" y="74.350877" style="stroke: #000000; stroke-width: 0.8"/>
      </g>
     </g>
     <g id="text_12">
      <!-- 40 -->
      <g transform="translate(38.775 78.150096) scale(0.1 -0.1)">
       <defs>
        <path id="DejaVuSans-34" d="M 2419 4116 
L 825 1625 
L 2419 1625 
L 2419 4116 
z
M 2253 4666 
L 3047 4666 
L 3047 1625 
L 3713 1625 
L 3713 1100 
L 3047 1100 
L 3047 0 
L 2419 0 
L 2419 1100 
L 313 1100 
L 313 1709 
L 2253 4666 
z
" transform="scale(0.015625)"/>
       </defs>
       <use xlink:href="#DejaVuSans-34"/>
       <use xlink:href="#DejaVuSans-30" x="63.623047"/>
      </g>
     </g>
    </g>
    <g id="text_13">
     <!-- mean absolute Vm reconstruct error (mV) -->
     <g transform="translate(32.695312 250.142344) rotate(-90) scale(0.1 -0.1)">
      <defs>
       <path id="DejaVuSans-61" d="M 2194 1759 
Q 1497 1759 1228 1600 
Q 959 1441 959 1056 
Q 959 750 1161 570 
Q 1363 391 1709 391 
Q 2188 391 2477 730 
Q 2766 1069 2766 1631 
L 2766 1759 
L 2194 1759 
z
M 3341 1997 
L 3341 0 
L 2766 0 
L 2766 531 
Q 2569 213 2275 61 
Q 1981 -91 1556 -91 
Q 1019 -91 701 211 
Q 384 513 384 1019 
Q 384 1609 779 1909 
Q 1175 2209 1959 2209 
L 2766 2209 
L 2766 2266 
Q 2766 2663 2505 2880 
Q 2244 3097 1772 3097 
Q 1472 3097 1187 3025 
Q 903 2953 641 2809 
L 641 3341 
Q 956 3463 1253 3523 
Q 1550 3584 1831 3584 
Q 2591 3584 2966 3190 
Q 3341 2797 3341 1997 
z
" transform="scale(0.015625)"/>
       <path id="DejaVuSans-6e" d="M 3513 2113 
L 3513 0 
L 2938 0 
L 2938 2094 
Q 2938 2591 2744 2837 
Q 2550 3084 2163 3084 
Q 1697 3084 1428 2787 
Q 1159 2491 1159 1978 
L 1159 0 
L 581 0 
L 581 3500 
L 1159 3500 
L 1159 2956 
Q 1366 3272 1645 3428 
Q 1925 3584 2291 3584 
Q 2894 3584 3203 3211 
Q 3513 2838 3513 2113 
z
" transform="scale(0.015625)"/>
       <path id="DejaVuSans-62" d="M 3116 1747 
Q 3116 2381 2855 2742 
Q 2594 3103 2138 3103 
Q 1681 3103 1420 2742 
Q 1159 2381 1159 1747 
Q 1159 1113 1420 752 
Q 1681 391 2138 391 
Q 2594 391 2855 752 
Q 3116 1113 3116 1747 
z
M 1159 2969 
Q 1341 3281 1617 3432 
Q 1894 3584 2278 3584 
Q 2916 3584 3314 3078 
Q 3713 2572 3713 1747 
Q 3713 922 3314 415 
Q 2916 -91 2278 -91 
Q 1894 -91 1617 61 
Q 1341 213 1159 525 
L 1159 0 
L 581 0 
L 581 4863 
L 1159 4863 
L 1159 2969 
z
" transform="scale(0.015625)"/>
       <path id="DejaVuSans-6f" d="M 1959 3097 
Q 1497 3097 1228 2736 
Q 959 2375 959 1747 
Q 959 1119 1226 758 
Q 1494 397 1959 397 
Q 2419 397 2687 759 
Q 2956 1122 2956 1747 
Q 2956 2369 2687 2733 
Q 2419 3097 1959 3097 
z
M 1959 3584 
Q 2709 3584 3137 3096 
Q 3566 2609 3566 1747 
Q 3566 888 3137 398 
Q 2709 -91 1959 -91 
Q 1206 -91 779 398 
Q 353 888 353 1747 
Q 353 2609 779 3096 
Q 1206 3584 1959 3584 
z
" transform="scale(0.015625)"/>
       <path id="DejaVuSans-6c" d="M 603 4863 
L 1178 4863 
L 1178 0 
L 603 0 
L 603 4863 
z
" transform="scale(0.015625)"/>
       <path id="DejaVuSans-75" d="M 544 1381 
L 544 3500 
L 1119 3500 
L 1119 1403 
Q 1119 906 1312 657 
Q 1506 409 1894 409 
Q 2359 409 2629 706 
Q 2900 1003 2900 1516 
L 2900 3500 
L 3475 3500 
L 3475 0 
L 2900 0 
L 2900 538 
Q 2691 219 2414 64 
Q 2138 -91 1772 -91 
Q 1169 -91 856 284 
Q 544 659 544 1381 
z
M 1991 3584 
L 1991 3584 
z
" transform="scale(0.015625)"/>
       <path id="DejaVuSans-56" d="M 1831 0 
L 50 4666 
L 709 4666 
L 2188 738 
L 3669 4666 
L 4325 4666 
L 2547 0 
L 1831 0 
z
" transform="scale(0.015625)"/>
       <path id="DejaVuSans-72" d="M 2631 2963 
Q 2534 3019 2420 3045 
Q 2306 3072 2169 3072 
Q 1681 3072 1420 2755 
Q 1159 2438 1159 1844 
L 1159 0 
L 581 0 
L 581 3500 
L 1159 3500 
L 1159 2956 
Q 1341 3275 1631 3429 
Q 1922 3584 2338 3584 
Q 2397 3584 2469 3576 
Q 2541 3569 2628 3553 
L 2631 2963 
z
" transform="scale(0.015625)"/>
       <path id="DejaVuSans-63" d="M 3122 3366 
L 3122 2828 
Q 2878 2963 2633 3030 
Q 2388 3097 2138 3097 
Q 1578 3097 1268 2742 
Q 959 2388 959 1747 
Q 959 1106 1268 751 
Q 1578 397 2138 397 
Q 2388 397 2633 464 
Q 2878 531 3122 666 
L 3122 134 
Q 2881 22 2623 -34 
Q 2366 -91 2075 -91 
Q 1284 -91 818 406 
Q 353 903 353 1747 
Q 353 2603 823 3093 
Q 1294 3584 2113 3584 
Q 2378 3584 2631 3529 
Q 2884 3475 3122 3366 
z
" transform="scale(0.015625)"/>
      </defs>
      <use xlink:href="#DejaVuSans-6d"/>
      <use xlink:href="#DejaVuSans-65" x="97.412109"/>
      <use xlink:href="#DejaVuSans-61" x="158.935547"/>
      <use xlink:href="#DejaVuSans-6e" x="220.214844"/>
      <use xlink:href="#DejaVuSans-20" x="283.59375"/>
      <use xlink:href="#DejaVuSans-61" x="315.380859"/>
      <use xlink:href="#DejaVuSans-62" x="376.660156"/>
      <use xlink:href="#DejaVuSans-73" x="440.136719"/>
      <use xlink:href="#DejaVuSans-6f" x="492.236328"/>
      <use xlink:href="#DejaVuSans-6c" x="553.417969"/>
      <use xlink:href="#DejaVuSans-75" x="581.201172"/>
      <use xlink:href="#DejaVuSans-74" x="644.580078"/>
      <use xlink:href="#DejaVuSans-65" x="683.789062"/>
      <use xlink:href="#DejaVuSans-20" x="745.3125"/>
      <use xlink:href="#DejaVuSans-56" x="777.099609"/>
      <use xlink:href="#DejaVuSans-6d" x="845.507812"/>
      <use xlink:href="#DejaVuSans-20" x="942.919922"/>
      <use xlink:href="#DejaVuSans-72" x="974.707031"/>
      <use xlink:href="#DejaVuSans-65" x="1013.570312"/>
      <use xlink:href="#DejaVuSans-63" x="1075.09375"/>
      <use xlink:href="#DejaVuSans-6f" x="1130.074219"/>
      <use xlink:href="#DejaVuSans-6e" x="1191.255859"/>
      <use xlink:href="#DejaVuSans-73" x="1254.634766"/>
      <use xlink:href="#DejaVuSans-74" x="1306.734375"/>
      <use xlink:href="#DejaVuSans-72" x="1345.943359"/>
      <use xlink:href="#DejaVuSans-75" x="1387.056641"/>
      <use xlink:href="#DejaVuSans-63" x="1450.435547"/>
      <use xlink:href="#DejaVuSans-74" x="1505.416016"/>
      <use xlink:href="#DejaVuSans-20" x="1544.625"/>
      <use xlink:href="#DejaVuSans-65" x="1576.412109"/>
      <use xlink:href="#DejaVuSans-72" x="1637.935547"/>
      <use xlink:href="#DejaVuSans-72" x="1677.298828"/>
      <use xlink:href="#DejaVuSans-6f" x="1716.162109"/>
      <use xlink:href="#DejaVuSans-72" x="1777.34375"/>
      <use xlink:href="#DejaVuSans-20" x="1818.457031"/>
      <use xlink:href="#DejaVuSans-28" x="1850.244141"/>
      <use xlink:href="#DejaVuSans-6d" x="1889.257812"/>
      <use xlink:href="#DejaVuSans-56" x="1986.669922"/>
      <use xlink:href="#DejaVuSans-29" x="2055.078125"/>
     </g>
    </g>
   </g>
   <g id="line2d_12">
    <path d="M 58.5 186.828091 
L 59.2254 185.438644 
L 61.7643 179.738272 
L 63.2151 176.99988 
L 64.3032 175.328756 
L 65.3913 174.086517 
L 66.4794 173.259736 
L 67.5675 172.794847 
L 68.2929 172.728919 
L 69.0183 172.906592 
L 69.7437 173.357891 
L 70.8318 174.379691 
L 73.008 176.918217 
L 75.1842 179.686186 
L 77.3604 182.833004 
L 79.5366 186.335272 
L 82.8009 192.047424 
L 89.3295 203.541608 
L 91.8684 207.500742 
L 94.4073 211.019177 
L 96.9462 214.095716 
L 99.4851 216.87395 
L 101.6613 218.917623 
L 103.8375 220.675958 
L 106.3764 222.441447 
L 108.9153 223.974887 
L 112.1796 225.661985 
L 116.8947 227.786919 
L 120.8844 229.254824 
L 124.5114 230.344773 
L 129.5892 231.610552 
L 150.6258 236.186561 
L 154.9782 236.960579 
L 161.1441 237.79648 
L 166.5846 238.343264 
L 197.4141 241.093384 
L 207.5697 242.248098 
L 212.2848 242.582702 
L 220.6269 242.866184 
L 236.223 243.094056 
L 247.8294 243.555697 
L 255.8088 243.838923 
L 261.612 243.973647 
L 272.493 244.099845 
L 379.1268 245.544681 
L 421.5627 245.805626 
L 421.5627 245.805626 
" clip-path="url(#pfdcf367526)" style="fill: none; stroke: #1f77b4; stroke-width: 1.5; stroke-linecap: square"/>
   </g>
   <g id="line2d_13">
    <path d="M 58.5 57.130229 
L 59.2254 51.232846 
L 59.9508 47.309572 
L 60.3135 46.103168 
L 60.6762 45.294335 
L 61.0389 44.822394 
L 61.4016 44.64 
L 61.7643 44.709961 
L 62.127 44.963184 
L 62.4897 45.413879 
L 63.2151 46.845192 
L 63.9405 48.86958 
L 65.0286 52.819417 
L 66.4794 59.911796 
L 68.2929 69.936173 
L 74.0961 106.213609 
L 79.1739 137.491371 
L 82.0755 153.731342 
L 84.6144 166.643721 
L 86.4279 174.804105 
L 88.2414 181.927071 
L 89.6922 186.841854 
L 91.5057 192.166729 
L 93.3192 196.596466 
L 94.77 199.460833 
L 99.4851 207.324046 
L 100.9359 209.064159 
L 102.024 210.173589 
L 104.2002 211.727433 
L 107.4645 213.852033 
L 111.0915 215.937192 
L 112.1796 216.642094 
L 113.9931 218.224667 
L 115.0812 219.141895 
L 115.8066 219.546613 
L 117.9828 220.260331 
L 126.3249 223.131891 
L 127.413 223.473788 
L 131.7654 224.803959 
L 135.3924 226.106978 
L 137.9313 227.610319 
L 139.7448 228.531223 
L 147.7242 231.675132 
L 151.7139 232.993537 
L 153.5274 233.461416 
L 155.7036 233.834877 
L 161.8695 234.858171 
L 166.5846 235.691126 
L 170.2116 236.200773 
L 173.4759 236.696639 
L 177.8283 237.484027 
L 182.5434 238.359069 
L 190.1601 239.402783 
L 201.4038 242.11506 
L 203.9427 242.490427 
L 208.6578 242.778723 
L 213.7356 242.714755 
L 218.088 242.525347 
L 220.9896 242.221813 
L 223.8912 242.001513 
L 228.2436 241.971247 
L 231.8706 242.077608 
L 235.1349 242.489731 
L 240.5754 243.210193 
L 243.1143 243.259375 
L 249.2802 243.185835 
L 257.6223 243.827668 
L 259.7985 243.682878 
L 264.8763 243.154444 
L 267.0525 243.269895 
L 271.7676 243.577302 
L 288.4518 244.073157 
L 292.8042 243.963983 
L 297.1566 244.152745 
L 306.5868 244.821868 
L 313.1154 244.929536 
L 323.9964 244.902672 
L 339.9552 245.246286 
L 345.7584 245.343678 
L 353.0124 245.513178 
L 360.9918 245.327567 
L 364.9815 245.301636 
L 378.7641 245.57739 
L 397.6245 245.569965 
L 404.8785 245.699957 
L 421.5627 245.881228 
L 421.5627 245.881228 
" clip-path="url(#pfdcf367526)" style="fill: none; stroke: #ff7f0e; stroke-width: 1.5; stroke-linecap: square"/>
   </g>
   <g id="line2d_14">
    <path d="M 58.5 182.576759 
L 59.2254 179.268929 
L 61.4016 167.499474 
L 63.2151 158.856488 
L 65.3913 149.57366 
L 67.2048 142.554897 
L 67.9302 140.586669 
L 68.2929 140.213952 
L 68.6556 140.495448 
L 69.0183 141.593197 
L 69.381 143.586691 
L 70.1064 150.027279 
L 72.2826 174.091017 
L 73.008 179.013334 
L 73.7334 182.243547 
L 74.4588 184.448752 
L 75.1842 185.902822 
L 78.4485 189.692138 
L 79.8993 192.033181 
L 81.3501 194.89504 
L 82.8009 198.326347 
L 84.2517 202.339397 
L 86.0652 208.042933 
L 90.4176 222.146992 
L 92.2311 227.122451 
L 94.0446 231.388095 
L 95.4954 234.29921 
L 96.9462 236.810427 
L 98.397 238.922287 
L 99.4851 240.227122 
L 100.5732 241.187451 
L 101.6613 241.825258 
L 102.7494 242.190019 
L 104.2002 242.380181 
L 112.5423 243.049938 
L 115.8066 243.096052 
L 135.3924 242.338781 
L 141.1956 242.06059 
L 147.3615 241.472152 
L 150.9885 240.895375 
L 153.5274 240.316585 
L 156.0663 239.480188 
L 158.2425 238.56056 
L 160.7814 237.263133 
L 164.4084 235.128653 
L 169.4862 231.856416 
L 174.564 228.317946 
L 181.0926 223.862093 
L 184.3569 221.956802 
L 190.1601 218.7457 
L 191.2482 218.453743 
L 192.3363 218.337672 
L 193.4244 218.450468 
L 194.8752 218.946723 
L 197.4141 220.278563 
L 204.6681 224.541756 
L 206.1189 225.579867 
L 208.6578 227.4672 
L 209.7459 228.067068 
L 210.834 228.482066 
L 212.2848 228.822545 
L 213.7356 229.077275 
L 215.1864 229.665566 
L 219.9015 231.87235 
L 221.3523 232.20696 
L 223.1658 232.484297 
L 231.1452 232.867854 
L 233.3214 233.097376 
L 235.1349 233.44769 
L 236.9484 234.047449 
L 239.85 235.082883 
L 241.3008 235.382189 
L 243.1143 235.48937 
L 244.5651 235.649708 
L 249.2802 236.676298 
L 251.0937 236.887785 
L 252.5445 237.313319 
L 255.4461 238.352142 
L 257.6223 238.853212 
L 259.7985 239.081661 
L 263.0628 239.217189 
L 266.6898 239.332211 
L 268.1406 239.582368 
L 272.1303 240.59906 
L 278.2962 241.115179 
L 280.8351 241.132011 
L 285.5502 240.972099 
L 287.7264 241.100862 
L 290.628 240.885653 
L 297.5193 240.302082 
L 301.1463 239.785834 
L 302.5971 239.859565 
L 308.763 240.595949 
L 314.9289 241.042814 
L 318.9186 241.245116 
L 321.0948 241.532407 
L 327.2607 242.424143 
L 329.0742 242.333778 
L 331.9758 242.375821 
L 337.779 242.721039 
L 346.1211 243.378195 
L 358.4529 244.033131 
L 363.168 244.160663 
L 365.3442 244.374457 
L 367.8831 244.321787 
L 370.7847 244.317768 
L 372.5982 244.626787 
L 374.049 244.843882 
L 375.8625 244.843095 
L 381.303 244.85588 
L 392.9094 245.001887 
L 402.7023 245.216394 
L 421.5627 245.658062 
L 421.5627 245.658062 
" clip-path="url(#pfdcf367526)" style="fill: none; stroke: #2ca02c; stroke-width: 1.5; stroke-linecap: square"/>
   </g>
   <g id="line2d_15">
    <path d="M 58.5 176.884253 
L 60.6762 168.946388 
L 61.7643 165.902401 
L 62.8524 163.363056 
L 63.9405 161.236119 
L 65.0286 159.578325 
L 66.1167 158.494601 
L 67.2048 157.863654 
L 67.9302 157.67118 
L 69.0183 157.837797 
L 69.7437 158.23069 
L 71.1945 159.317901 
L 72.2826 160.423074 
L 73.7334 162.318234 
L 75.5469 165.19294 
L 77.7231 169.160008 
L 80.6247 174.89321 
L 89.6922 193.375869 
L 92.5938 198.518093 
L 94.77 201.920567 
L 98.0343 206.514556 
L 100.2105 209.285419 
L 102.3867 211.674303 
L 104.5629 213.742408 
L 107.8272 216.475489 
L 110.7288 218.593276 
L 115.8066 221.879099 
L 118.7082 223.413167 
L 121.2471 224.601339 
L 125.2368 226.232806 
L 129.2265 227.606139 
L 135.0297 229.315493 
L 138.6567 230.460932 
L 142.6464 231.697871 
L 148.8123 233.502011 
L 154.9782 235.038799 
L 159.3306 235.92736 
L 167.6727 237.427192 
L 176.3775 238.663879 
L 190.8855 240.612786 
L 209.3832 242.789831 
L 214.0983 243.051274 
L 220.6269 243.191129 
L 232.2333 243.334155 
L 238.3992 243.60552 
L 245.6532 243.875186 
L 255.0834 244.120323 
L 261.9747 244.249445 
L 270.3168 244.277613 
L 344.3076 245.336029 
L 385.2927 245.596198 
L 415.7595 245.761974 
L 421.5627 245.807779 
L 421.5627 245.807779 
" clip-path="url(#pfdcf367526)" style="fill: none; stroke: #d62728; stroke-width: 1.5; stroke-linecap: square"/>
   </g>
   <g id="line2d_16">
    <path d="M 58.5 191.926938 
L 58.8627 191.745266 
L 59.5881 190.829105 
L 61.0389 188.419693 
L 62.8524 185.426239 
L 63.9405 183.9326 
L 65.0286 182.824876 
L 66.1167 182.095982 
L 67.2048 181.704048 
L 68.2929 181.621874 
L 69.381 181.852228 
L 70.4691 182.325517 
L 71.5572 183.009942 
L 73.008 184.20428 
L 74.4588 185.692149 
L 76.2723 187.880647 
L 78.4485 190.869672 
L 80.6247 194.195004 
L 90.0549 208.84965 
L 92.5938 212.227301 
L 95.1327 215.228616 
L 98.397 218.594368 
L 100.9359 220.865484 
L 103.4748 222.836223 
L 106.0137 224.518831 
L 108.9153 226.107601 
L 111.8169 227.447696 
L 116.8947 229.469589 
L 120.8844 230.795526 
L 124.5114 231.750044 
L 129.9519 232.932121 
L 156.0663 237.864126 
L 163.3203 238.778649 
L 171.2997 239.48097 
L 176.7402 240.007732 
L 186.5331 241.029522 
L 197.4141 242.022239 
L 206.1189 242.780491 
L 212.6475 243.136528 
L 219.1761 243.275318 
L 239.85 243.517987 
L 253.2699 243.903586 
L 263.0628 244.09874 
L 273.2184 244.191547 
L 304.4106 244.641562 
L 318.5559 244.905588 
L 347.5719 245.297923 
L 370.422 245.484917 
L 397.2618 245.631983 
L 421.5627 245.8122 
L 421.5627 245.8122 
" clip-path="url(#pfdcf367526)" style="fill: none; stroke: #9467bd; stroke-width: 1.5; stroke-linecap: square"/>
   </g>
   <g id="patch_3">
    <path d="M 58.5 256.32 
L 58.5 34.56 
" style="fill: none; stroke: #000000; stroke-width: 0.8; stroke-linejoin: miter; stroke-linecap: square"/>
   </g>
   <g id="patch_4">
    <path d="M 58.5 256.32 
L 421.2 256.32 
" style="fill: none; stroke: #000000; stroke-width: 0.8; stroke-linejoin: miter; stroke-linecap: square"/>
   </g>
   <g id="legend_1">
    <g id="patch_5">
     <path d="M 293.726562 115.950625 
L 414.2 115.950625 
Q 416.2 115.950625 416.2 113.950625 
L 416.2 41.56 
Q 416.2 39.56 414.2 39.56 
L 293.726562 39.56 
Q 291.726562 39.56 291.726562 41.56 
L 291.726562 113.950625 
Q 291.726562 115.950625 293.726562 115.950625 
z
" style="fill: #ffffff; opacity: 0.8; stroke: #cccccc; stroke-linejoin: miter"/>
    </g>
    <g id="line2d_17">
     <path d="M 295.726562 47.658437 
L 305.726562 47.658437 
L 315.726562 47.658437 
" style="fill: none; stroke: #1f77b4; stroke-width: 1.5; stroke-linecap: square"/>
    </g>
    <g id="text_14">
     <!-- all segments -->
     <g transform="translate(323.726562 51.158437) scale(0.1 -0.1)">
      <defs>
       <path id="DejaVuSans-67" d="M 2906 1791 
Q 2906 2416 2648 2759 
Q 2391 3103 1925 3103 
Q 1463 3103 1205 2759 
Q 947 2416 947 1791 
Q 947 1169 1205 825 
Q 1463 481 1925 481 
Q 2391 481 2648 825 
Q 2906 1169 2906 1791 
z
M 3481 434 
Q 3481 -459 3084 -895 
Q 2688 -1331 1869 -1331 
Q 1566 -1331 1297 -1286 
Q 1028 -1241 775 -1147 
L 775 -588 
Q 1028 -725 1275 -790 
Q 1522 -856 1778 -856 
Q 2344 -856 2625 -561 
Q 2906 -266 2906 331 
L 2906 616 
Q 2728 306 2450 153 
Q 2172 0 1784 0 
Q 1141 0 747 490 
Q 353 981 353 1791 
Q 353 2603 747 3093 
Q 1141 3584 1784 3584 
Q 2172 3584 2450 3431 
Q 2728 3278 2906 2969 
L 2906 3500 
L 3481 3500 
L 3481 434 
z
" transform="scale(0.015625)"/>
      </defs>
      <use xlink:href="#DejaVuSans-61"/>
      <use xlink:href="#DejaVuSans-6c" x="61.279297"/>
      <use xlink:href="#DejaVuSans-6c" x="89.0625"/>
      <use xlink:href="#DejaVuSans-20" x="116.845703"/>
      <use xlink:href="#DejaVuSans-73" x="148.632812"/>
      <use xlink:href="#DejaVuSans-65" x="200.732422"/>
      <use xlink:href="#DejaVuSans-67" x="262.255859"/>
      <use xlink:href="#DejaVuSans-6d" x="325.732422"/>
      <use xlink:href="#DejaVuSans-65" x="423.144531"/>
      <use xlink:href="#DejaVuSans-6e" x="484.667969"/>
      <use xlink:href="#DejaVuSans-74" x="548.046875"/>
      <use xlink:href="#DejaVuSans-73" x="587.255859"/>
     </g>
    </g>
    <g id="line2d_18">
     <path d="M 295.726562 62.336562 
L 305.726562 62.336562 
L 315.726562 62.336562 
" style="fill: none; stroke: #ff7f0e; stroke-width: 1.5; stroke-linecap: square"/>
    </g>
    <g id="text_15">
     <!-- soma -->
     <g transform="translate(323.726562 65.836562) scale(0.1 -0.1)">
      <use xlink:href="#DejaVuSans-73"/>
      <use xlink:href="#DejaVuSans-6f" x="52.099609"/>
      <use xlink:href="#DejaVuSans-6d" x="113.28125"/>
      <use xlink:href="#DejaVuSans-61" x="210.693359"/>
     </g>
    </g>
    <g id="line2d_19">
     <path d="M 295.726562 77.014687 
L 305.726562 77.014687 
L 315.726562 77.014687 
" style="fill: none; stroke: #2ca02c; stroke-width: 1.5; stroke-linecap: square"/>
    </g>
    <g id="text_16">
     <!-- axon -->
     <g transform="translate(323.726562 80.514687) scale(0.1 -0.1)">
      <defs>
       <path id="DejaVuSans-78" d="M 3513 3500 
L 2247 1797 
L 3578 0 
L 2900 0 
L 1881 1375 
L 863 0 
L 184 0 
L 1544 1831 
L 300 3500 
L 978 3500 
L 1906 2253 
L 2834 3500 
L 3513 3500 
z
" transform="scale(0.015625)"/>
      </defs>
      <use xlink:href="#DejaVuSans-61"/>
      <use xlink:href="#DejaVuSans-78" x="61.279297"/>
      <use xlink:href="#DejaVuSans-6f" x="117.333984"/>
      <use xlink:href="#DejaVuSans-6e" x="178.515625"/>
     </g>
    </g>
    <g id="line2d_20">
     <path d="M 295.726562 91.692813 
L 305.726562 91.692813 
L 315.726562 91.692813 
" style="fill: none; stroke: #d62728; stroke-width: 1.5; stroke-linecap: square"/>
    </g>
    <g id="text_17">
     <!-- dendrites -->
     <g transform="translate(323.726562 95.192813) scale(0.1 -0.1)">
      <defs>
       <path id="DejaVuSans-64" d="M 2906 2969 
L 2906 4863 
L 3481 4863 
L 3481 0 
L 2906 0 
L 2906 525 
Q 2725 213 2448 61 
Q 2172 -91 1784 -91 
Q 1150 -91 751 415 
Q 353 922 353 1747 
Q 353 2572 751 3078 
Q 1150 3584 1784 3584 
Q 2172 3584 2448 3432 
Q 2725 3281 2906 2969 
z
M 947 1747 
Q 947 1113 1208 752 
Q 1469 391 1925 391 
Q 2381 391 2643 752 
Q 2906 1113 2906 1747 
Q 2906 2381 2643 2742 
Q 2381 3103 1925 3103 
Q 1469 3103 1208 2742 
Q 947 2381 947 1747 
z
" transform="scale(0.015625)"/>
      </defs>
      <use xlink:href="#DejaVuSans-64"/>
      <use xlink:href="#DejaVuSans-65" x="63.476562"/>
      <use xlink:href="#DejaVuSans-6e" x="125"/>
      <use xlink:href="#DejaVuSans-64" x="188.378906"/>
      <use xlink:href="#DejaVuSans-72" x="251.855469"/>
      <use xlink:href="#DejaVuSans-69" x="292.96875"/>
      <use xlink:href="#DejaVuSans-74" x="320.751953"/>
      <use xlink:href="#DejaVuSans-65" x="359.960938"/>
      <use xlink:href="#DejaVuSans-73" x="421.484375"/>
     </g>
    </g>
    <g id="line2d_21">
     <path d="M 295.726562 106.370937 
L 305.726562 106.370937 
L 315.726562 106.370937 
" style="fill: none; stroke: #9467bd; stroke-width: 1.5; stroke-linecap: square"/>
    </g>
    <g id="text_18">
     <!-- apicical dendrites -->
     <g transform="translate(323.726562 109.870937) scale(0.1 -0.1)">
      <defs>
       <path id="DejaVuSans-70" d="M 1159 525 
L 1159 -1331 
L 581 -1331 
L 581 3500 
L 1159 3500 
L 1159 2969 
Q 1341 3281 1617 3432 
Q 1894 3584 2278 3584 
Q 2916 3584 3314 3078 
Q 3713 2572 3713 1747 
Q 3713 922 3314 415 
Q 2916 -91 2278 -91 
Q 1894 -91 1617 61 
Q 1341 213 1159 525 
z
M 3116 1747 
Q 3116 2381 2855 2742 
Q 2594 3103 2138 3103 
Q 1681 3103 1420 2742 
Q 1159 2381 1159 1747 
Q 1159 1113 1420 752 
Q 1681 391 2138 391 
Q 2594 391 2855 752 
Q 3116 1113 3116 1747 
z
" transform="scale(0.015625)"/>
      </defs>
      <use xlink:href="#DejaVuSans-61"/>
      <use xlink:href="#DejaVuSans-70" x="61.279297"/>
      <use xlink:href="#DejaVuSans-69" x="124.755859"/>
      <use xlink:href="#DejaVuSans-63" x="152.539062"/>
      <use xlink:href="#DejaVuSans-69" x="207.519531"/>
      <use xlink:href="#DejaVuSans-63" x="235.302734"/>
      <use xlink:href="#DejaVuSans-61" x="290.283203"/>
      <use xlink:href="#DejaVuSans-6c" x="351.5625"/>
      <use xlink:href="#DejaVuSans-20" x="379.345703"/>
      <use xlink:href="#DejaVuSans-64" x="411.132812"/>
      <use xlink:href="#DejaVuSans-65" x="474.609375"/>
      <use xlink:href="#DejaVuSans-6e" x="536.132812"/>
      <use xlink:href="#DejaVuSans-64" x="599.511719"/>
      <use xlink:href="#DejaVuSans-72" x="662.988281"/>
      <use xlink:href="#DejaVuSans-69" x="704.101562"/>
      <use xlink:href="#DejaVuSans-74" x="731.884766"/>
      <use xlink:href="#DejaVuSans-65" x="771.09375"/>
      <use xlink:href="#DejaVuSans-73" x="832.617188"/>
     </g>
    </g>
   </g>
  </g>
 </g>
 <defs>
  <clipPath id="pfdcf367526">
   <rect x="58.5" y="34.56" width="362.7" height="221.76"/>
  </clipPath>
 </defs>
</svg>
