<?xml version="1.0" encoding="utf-8" standalone="no"?>
<!DOCTYPE svg PUBLIC "-//W3C//DTD SVG 1.1//EN"
  "http://www.w3.org/Graphics/SVG/1.1/DTD/svg11.dtd">
<svg xmlns:xlink="http://www.w3.org/1999/xlink" width="468pt" height="468pt" viewBox="0 0 468 468" xmlns="http://www.w3.org/2000/svg" version="1.1">
 <metadata>
  <rdf:RDF xmlns:dc="http://purl.org/dc/elements/1.1/" xmlns:cc="http://creativecommons.org/ns#" xmlns:rdf="http://www.w3.org/1999/02/22-rdf-syntax-ns#">
   <cc:Work>
    <dc:type rdf:resource="http://purl.org/dc/dcmitype/StillImage"/>
    <dc:date>2023-03-29T13:07:40.984079</dc:date>
    <dc:format>image/svg+xml</dc:format>
    <dc:creator>
     <cc:Agent>
      <dc:title>Matplotlib v3.6.2, https://matplotlib.org/</dc:title>
     </cc:Agent>
    </dc:creator>
   </cc:Work>
  </rdf:RDF>
 </metadata>
 <defs>
  <style type="text/css">*{stroke-linejoin: round; stroke-linecap: butt}</style>
 </defs>
 <g id="figure_1">
  <g id="patch_1">
   <path d="M 0 468 
L 468 468 
L 468 0 
L 0 0 
z
" style="fill: #ffffff"/>
  </g>
  <g id="axes_1">
   <g id="patch_2">
    <path d="M 58.5 416.52 
L 421.2 416.52 
L 421.2 56.16 
L 58.5 56.16 
z
" style="fill: #ffffff"/>
   </g>
   <g id="patch_3">
    <path d="M 239.85 182.286 
C 249.468916 182.286 258.695162 178.48902 265.496763 171.7313 
C 272.298364 164.97358 276.12 155.806859 276.12 146.25 
C 276.12 136.693141 272.298364 127.52642 265.496763 120.7687 
C 258.695162 114.01098 249.468916 110.214 239.85 110.214 
C 230.231084 110.214 221.004838 114.01098 214.203237 120.7687 
C 207.401636 127.52642 203.58 136.693141 203.58 146.25 
C 203.58 155.806859 207.401636 164.97358 214.203237 171.7313 
C 221.004838 178.48902 230.231084 182.286 239.85 182.286 
z
" clip-path="url(#p1afc1e2b87)" style="fill: #ffffff; stroke: #800080; stroke-linejoin: miter"/>
   </g>
   <g id="patch_4">
    <path d="M 330.525 272.376 
C 340.143916 272.376 349.370162 268.57902 356.171763 261.8213 
C 362.973364 255.06358 366.795 245.896859 366.795 236.34 
C 366.795 226.783141 362.973364 217.61642 356.171763 210.8587 
C 349.370162 204.10098 340.143916 200.304 330.525 200.304 
C 320.906084 200.304 311.679838 204.10098 304.878237 210.8587 
C 298.076636 217.61642 294.255 226.783141 294.255 236.34 
C 294.255 245.896859 298.076636 255.06358 304.878237 261.8213 
C 311.679838 268.57902 320.906084 272.376 330.525 272.376 
z
" clip-path="url(#p1afc1e2b87)" style="fill: #ffffff; stroke: #ff0000; stroke-linejoin: miter"/>
   </g>
   <g id="patch_5">
    <path d="M 239.85 362.466 
C 249.468916 362.466 258.695162 358.66902 265.496763 351.9113 
C 272.298364 345.15358 276.12 335.986859 276.12 326.43 
C 276.12 316.873141 272.298364 307.70642 265.496763 300.9487 
C 258.695162 294.19098 249.468916 290.394 239.85 290.394 
C 230.231084 290.394 221.004838 294.19098 214.203237 300.9487 
C 207.401636 307.70642 203.58 316.873141 203.58 326.43 
C 203.58 335.986859 207.401636 345.15358 214.203237 351.9113 
C 221.004838 358.66902 230.231084 362.466 239.85 362.466 
z
" clip-path="url(#p1afc1e2b87)" style="fill: #ffffff; stroke: #008000; stroke-linejoin: miter"/>
   </g>
   <g id="patch_6">
    <path d="M 149.175 272.376 
C 158.793916 272.376 168.020162 268.57902 174.821763 261.8213 
C 181.623364 255.06358 185.445 245.896859 185.445 236.34 
C 185.445 226.783141 181.623364 217.61642 174.821763 210.8587 
C 168.020162 204.10098 158.793916 200.304 149.175 200.304 
C 139.556084 200.304 130.329838 204.10098 123.528237 210.8587 
C 116.726636 217.61642 112.905 226.783141 112.905 236.34 
C 112.905 245.896859 116.726636 255.06358 123.528237 261.8213 
C 130.329838 268.57902 139.556084 272.376 149.175 272.376 
z
" clip-path="url(#p1afc1e2b87)" style="fill: #ffffff; stroke: #0000ff; stroke-linejoin: miter"/>
   </g>
   <g id="patch_7">
    <path d="M 300.390054 208.947603 
L 291.259806 205.278295 
L 291.712899 204.828126 
L 265.154806 178.441376 
L 267.42027 176.190527 
z
" clip-path="url(#p1afc1e2b87)" style="fill: #f1f1f1; stroke: #000000; stroke-width: 0.2; stroke-linejoin: miter"/>
   </g>
   <g id="patch_8">
    <path d="M 238.0365 285.8895 
L 233.86545 276.8805 
L 234.560625 276.8805 
L 234.560625 186.7905 
L 238.0365 186.7905 
z
" clip-path="url(#p1afc1e2b87)" style="fill: #f0f0f0; stroke: #000000; stroke-width: 0.2; stroke-linejoin: miter"/>
   </g>
   <g id="patch_9">
    <path d="M 176.74527 206.399473 
L 172.064736 189.008485 
L 173.91344 190.845262 
L 200.471533 164.458512 
L 209.715054 173.642397 
z
" clip-path="url(#p1afc1e2b87)" style="fill: #c5c5c5; stroke: #000000; stroke-width: 0.2; stroke-linejoin: miter"/>
   </g>
   <g id="patch_10">
    <path d="M 269.984946 173.642397 
L 277.191687 179.222802 
L 277.059179 179.354456 
L 303.617271 205.741206 
L 302.95473 206.399473 
z
" clip-path="url(#p1afc1e2b87)" style="fill: #fbfbfb; stroke: #000000; stroke-width: 0.2; stroke-linejoin: miter"/>
   </g>
   <g id="patch_11">
    <path d="M 267.42027 296.489473 
L 267.907559 284.232967 
L 268.894959 285.213997 
L 295.453052 258.827247 
L 300.390054 263.732397 
z
" clip-path="url(#p1afc1e2b87)" style="fill: #e0e0e0; stroke: #000000; stroke-width: 0.2; stroke-linejoin: miter"/>
   </g>
   <g id="patch_12">
    <path d="M 189.97875 234.5382 
L 199.04625 234.484146 
L 199.04625 234.493155 
L 289.72125 234.493155 
L 289.72125 234.5382 
z
" clip-path="url(#p1afc1e2b87)" style="fill: #ffffff; stroke: #000000; stroke-width: 0.2; stroke-linejoin: miter"/>
   </g>
   <g id="patch_13">
    <path d="M 241.6635 186.7905 
L 242.008065 195.7995 
L 241.950637 195.7995 
L 241.950637 285.8895 
L 241.6635 285.8895 
z
" clip-path="url(#p1afc1e2b87)" style="fill: #fefefe; stroke: #000000; stroke-width: 0.2; stroke-linejoin: miter"/>
   </g>
   <g id="patch_14">
    <path d="M 302.95473 266.280527 
L 297.927964 274.026843 
L 297.697143 273.797511 
L 271.139051 300.184261 
L 269.984946 299.037603 
z
" clip-path="url(#p1afc1e2b87)" style="fill: #f8f8f8; stroke: #000000; stroke-width: 0.2; stroke-linejoin: miter"/>
   </g>
   <g id="patch_15">
    <path d="M 179.309946 263.732397 
L 185.772931 270.05176 
L 185.764382 270.060254 
L 212.322474 296.447004 
L 212.27973 296.489473 
z
" clip-path="url(#p1afc1e2b87)" style="fill: #ffffff; stroke: #000000; stroke-width: 0.2; stroke-linejoin: miter"/>
   </g>
   <g id="patch_16">
    <path d="M 212.27973 176.190527 
L 208.881534 185.554905 
L 208.379285 185.055896 
L 181.821192 211.442646 
L 179.309946 208.947603 
z
" clip-path="url(#p1afc1e2b87)" style="fill: #f0f0f0; stroke: #000000; stroke-width: 0.2; stroke-linejoin: miter"/>
   </g>
   <g id="patch_17">
    <path d="M 289.72125 238.1418 
L 280.65375 238.159818 
L 280.65375 238.156815 
L 189.97875 238.156815 
L 189.97875 238.1418 
z
" clip-path="url(#p1afc1e2b87)" style="fill: #ffffff; stroke: #000000; stroke-width: 0.2; stroke-linejoin: miter"/>
   </g>
   <g id="patch_18">
    <path d="M 209.715054 299.037603 
L 203.252069 292.71824 
L 203.260618 292.709746 
L 176.702526 266.322996 
L 176.74527 266.280527 
z
" clip-path="url(#p1afc1e2b87)" style="fill: #ffffff; stroke: #000000; stroke-width: 0.2; stroke-linejoin: miter"/>
   </g>
   <g id="matplotlib.axis_1">
    <g id="xtick_1">
     <g id="line2d_1">
      <defs>
       <path id="m65dbac246f" d="M 0 0 
L 0 3.5 
" style="stroke: #000000; stroke-width: 0.8"/>
      </defs>
      <g>
       <use xlink:href="#m65dbac246f" x="58.5" y="416.52" style="stroke: #000000; stroke-width: 0.8"/>
      </g>
     </g>
     <g id="text_1">
      <!-- −20 -->
      <g transform="translate(47.947656 431.118438) scale(0.1 -0.1)">
       <defs>
        <path id="DejaVuSans-2212" d="M 678 2272 
L 4684 2272 
L 4684 1741 
L 678 1741 
L 678 2272 
z
" transform="scale(0.015625)"/>
        <path id="DejaVuSans-32" d="M 1228 531 
L 3431 531 
L 3431 0 
L 469 0 
L 469 531 
Q 828 903 1448 1529 
Q 2069 2156 2228 2338 
Q 2531 2678 2651 2914 
Q 2772 3150 2772 3378 
Q 2772 3750 2511 3984 
Q 2250 4219 1831 4219 
Q 1534 4219 1204 4116 
Q 875 4013 500 3803 
L 500 4441 
Q 881 4594 1212 4672 
Q 1544 4750 1819 4750 
Q 2544 4750 2975 4387 
Q 3406 4025 3406 3419 
Q 3406 3131 3298 2873 
Q 3191 2616 2906 2266 
Q 2828 2175 2409 1742 
Q 1991 1309 1228 531 
z
" transform="scale(0.015625)"/>
        <path id="DejaVuSans-30" d="M 2034 4250 
Q 1547 4250 1301 3770 
Q 1056 3291 1056 2328 
Q 1056 1369 1301 889 
Q 1547 409 2034 409 
Q 2525 409 2770 889 
Q 3016 1369 3016 2328 
Q 3016 3291 2770 3770 
Q 2525 4250 2034 4250 
z
M 2034 4750 
Q 2819 4750 3233 4129 
Q 3647 3509 3647 2328 
Q 3647 1150 3233 529 
Q 2819 -91 2034 -91 
Q 1250 -91 836 529 
Q 422 1150 422 2328 
Q 422 3509 836 4129 
Q 1250 4750 2034 4750 
z
" transform="scale(0.015625)"/>
       </defs>
       <use xlink:href="#DejaVuSans-2212"/>
       <use xlink:href="#DejaVuSans-32" x="83.789062"/>
       <use xlink:href="#DejaVuSans-30" x="147.412109"/>
      </g>
     </g>
    </g>
    <g id="xtick_2">
     <g id="line2d_2">
      <g>
       <use xlink:href="#m65dbac246f" x="103.8375" y="416.52" style="stroke: #000000; stroke-width: 0.8"/>
      </g>
     </g>
     <g id="text_2">
      <!-- −15 -->
      <g transform="translate(93.285156 431.118438) scale(0.1 -0.1)">
       <defs>
        <path id="DejaVuSans-31" d="M 794 531 
L 1825 531 
L 1825 4091 
L 703 3866 
L 703 4441 
L 1819 4666 
L 2450 4666 
L 2450 531 
L 3481 531 
L 3481 0 
L 794 0 
L 794 531 
z
" transform="scale(0.015625)"/>
        <path id="DejaVuSans-35" d="M 691 4666 
L 3169 4666 
L 3169 4134 
L 1269 4134 
L 1269 2991 
Q 1406 3038 1543 3061 
Q 1681 3084 1819 3084 
Q 2600 3084 3056 2656 
Q 3513 2228 3513 1497 
Q 3513 744 3044 326 
Q 2575 -91 1722 -91 
Q 1428 -91 1123 -41 
Q 819 9 494 109 
L 494 744 
Q 775 591 1075 516 
Q 1375 441 1709 441 
Q 2250 441 2565 725 
Q 2881 1009 2881 1497 
Q 2881 1984 2565 2268 
Q 2250 2553 1709 2553 
Q 1456 2553 1204 2497 
Q 953 2441 691 2322 
L 691 4666 
z
" transform="scale(0.015625)"/>
       </defs>
       <use xlink:href="#DejaVuSans-2212"/>
       <use xlink:href="#DejaVuSans-31" x="83.789062"/>
       <use xlink:href="#DejaVuSans-35" x="147.412109"/>
      </g>
     </g>
    </g>
    <g id="xtick_3">
     <g id="line2d_3">
      <g>
       <use xlink:href="#m65dbac246f" x="149.175" y="416.52" style="stroke: #000000; stroke-width: 0.8"/>
      </g>
     </g>
     <g id="text_3">
      <!-- −10 -->
      <g transform="translate(138.622656 431.118438) scale(0.1 -0.1)">
       <use xlink:href="#DejaVuSans-2212"/>
       <use xlink:href="#DejaVuSans-31" x="83.789062"/>
       <use xlink:href="#DejaVuSans-30" x="147.412109"/>
      </g>
     </g>
    </g>
    <g id="xtick_4">
     <g id="line2d_4">
      <g>
       <use xlink:href="#m65dbac246f" x="194.5125" y="416.52" style="stroke: #000000; stroke-width: 0.8"/>
      </g>
     </g>
     <g id="text_4">
      <!-- −5 -->
      <g transform="translate(187.141406 431.118438) scale(0.1 -0.1)">
       <use xlink:href="#DejaVuSans-2212"/>
       <use xlink:href="#DejaVuSans-35" x="83.789062"/>
      </g>
     </g>
    </g>
    <g id="xtick_5">
     <g id="line2d_5">
      <g>
       <use xlink:href="#m65dbac246f" x="239.85" y="416.52" style="stroke: #000000; stroke-width: 0.8"/>
      </g>
     </g>
     <g id="text_5">
      <!-- 0 -->
      <g transform="translate(236.66875 431.118438) scale(0.1 -0.1)">
       <use xlink:href="#DejaVuSans-30"/>
      </g>
     </g>
    </g>
    <g id="xtick_6">
     <g id="line2d_6">
      <g>
       <use xlink:href="#m65dbac246f" x="285.1875" y="416.52" style="stroke: #000000; stroke-width: 0.8"/>
      </g>
     </g>
     <g id="text_6">
      <!-- 5 -->
      <g transform="translate(282.00625 431.118438) scale(0.1 -0.1)">
       <use xlink:href="#DejaVuSans-35"/>
      </g>
     </g>
    </g>
    <g id="xtick_7">
     <g id="line2d_7">
      <g>
       <use xlink:href="#m65dbac246f" x="330.525" y="416.52" style="stroke: #000000; stroke-width: 0.8"/>
      </g>
     </g>
     <g id="text_7">
      <!-- 10 -->
      <g transform="translate(324.1625 431.118438) scale(0.1 -0.1)">
       <use xlink:href="#DejaVuSans-31"/>
       <use xlink:href="#DejaVuSans-30" x="63.623047"/>
      </g>
     </g>
    </g>
    <g id="xtick_8">
     <g id="line2d_8">
      <g>
       <use xlink:href="#m65dbac246f" x="375.8625" y="416.52" style="stroke: #000000; stroke-width: 0.8"/>
      </g>
     </g>
     <g id="text_8">
      <!-- 15 -->
      <g transform="translate(369.5 431.118438) scale(0.1 -0.1)">
       <use xlink:href="#DejaVuSans-31"/>
       <use xlink:href="#DejaVuSans-35" x="63.623047"/>
      </g>
     </g>
    </g>
    <g id="xtick_9">
     <g id="line2d_9">
      <g>
       <use xlink:href="#m65dbac246f" x="421.2" y="416.52" style="stroke: #000000; stroke-width: 0.8"/>
      </g>
     </g>
     <g id="text_9">
      <!-- 20 -->
      <g transform="translate(414.8375 431.118438) scale(0.1 -0.1)">
       <use xlink:href="#DejaVuSans-32"/>
       <use xlink:href="#DejaVuSans-30" x="63.623047"/>
      </g>
     </g>
    </g>
   </g>
   <g id="matplotlib.axis_2">
    <g id="ytick_1">
     <g id="line2d_10">
      <defs>
       <path id="m323f9bac58" d="M 0 0 
L -3.5 0 
" style="stroke: #000000; stroke-width: 0.8"/>
      </defs>
      <g>
       <use xlink:href="#m323f9bac58" x="58.5" y="416.52" style="stroke: #000000; stroke-width: 0.8"/>
      </g>
     </g>
     <g id="text_10">
      <!-- −20 -->
      <g transform="translate(30.395312 420.319219) scale(0.1 -0.1)">
       <use xlink:href="#DejaVuSans-2212"/>
       <use xlink:href="#DejaVuSans-32" x="83.789062"/>
       <use xlink:href="#DejaVuSans-30" x="147.412109"/>
      </g>
     </g>
    </g>
    <g id="ytick_2">
     <g id="line2d_11">
      <g>
       <use xlink:href="#m323f9bac58" x="58.5" y="371.475" style="stroke: #000000; stroke-width: 0.8"/>
      </g>
     </g>
     <g id="text_11">
      <!-- −15 -->
      <g transform="translate(30.395312 375.274219) scale(0.1 -0.1)">
       <use xlink:href="#DejaVuSans-2212"/>
       <use xlink:href="#DejaVuSans-31" x="83.789062"/>
       <use xlink:href="#DejaVuSans-35" x="147.412109"/>
      </g>
     </g>
    </g>
    <g id="ytick_3">
     <g id="line2d_12">
      <g>
       <use xlink:href="#m323f9bac58" x="58.5" y="326.43" style="stroke: #000000; stroke-width: 0.8"/>
      </g>
     </g>
     <g id="text_12">
      <!-- −10 -->
      <g transform="translate(30.395312 330.229219) scale(0.1 -0.1)">
       <use xlink:href="#DejaVuSans-2212"/>
       <use xlink:href="#DejaVuSans-31" x="83.789062"/>
       <use xlink:href="#DejaVuSans-30" x="147.412109"/>
      </g>
     </g>
    </g>
    <g id="ytick_4">
     <g id="line2d_13">
      <g>
       <use xlink:href="#m323f9bac58" x="58.5" y="281.385" style="stroke: #000000; stroke-width: 0.8"/>
      </g>
     </g>
     <g id="text_13">
      <!-- −5 -->
      <g transform="translate(36.757812 285.184219) scale(0.1 -0.1)">
       <use xlink:href="#DejaVuSans-2212"/>
       <use xlink:href="#DejaVuSans-35" x="83.789062"/>
      </g>
     </g>
    </g>
    <g id="ytick_5">
     <g id="line2d_14">
      <g>
       <use xlink:href="#m323f9bac58" x="58.5" y="236.34" style="stroke: #000000; stroke-width: 0.8"/>
      </g>
     </g>
     <g id="text_14">
      <!-- 0 -->
      <g transform="translate(45.1375 240.139219) scale(0.1 -0.1)">
       <use xlink:href="#DejaVuSans-30"/>
      </g>
     </g>
    </g>
    <g id="ytick_6">
     <g id="line2d_15">
      <g>
       <use xlink:href="#m323f9bac58" x="58.5" y="191.295" style="stroke: #000000; stroke-width: 0.8"/>
      </g>
     </g>
     <g id="text_15">
      <!-- 5 -->
      <g transform="translate(45.1375 195.094219) scale(0.1 -0.1)">
       <use xlink:href="#DejaVuSans-35"/>
      </g>
     </g>
    </g>
    <g id="ytick_7">
     <g id="line2d_16">
      <g>
       <use xlink:href="#m323f9bac58" x="58.5" y="146.25" style="stroke: #000000; stroke-width: 0.8"/>
      </g>
     </g>
     <g id="text_16">
      <!-- 10 -->
      <g transform="translate(38.775 150.049219) scale(0.1 -0.1)">
       <use xlink:href="#DejaVuSans-31"/>
       <use xlink:href="#DejaVuSans-30" x="63.623047"/>
      </g>
     </g>
    </g>
    <g id="ytick_8">
     <g id="line2d_17">
      <g>
       <use xlink:href="#m323f9bac58" x="58.5" y="101.205" style="stroke: #000000; stroke-width: 0.8"/>
      </g>
     </g>
     <g id="text_17">
      <!-- 15 -->
      <g transform="translate(38.775 105.004219) scale(0.1 -0.1)">
       <use xlink:href="#DejaVuSans-31"/>
       <use xlink:href="#DejaVuSans-35" x="63.623047"/>
      </g>
     </g>
    </g>
    <g id="ytick_9">
     <g id="line2d_18">
      <g>
       <use xlink:href="#m323f9bac58" x="58.5" y="56.16" style="stroke: #000000; stroke-width: 0.8"/>
      </g>
     </g>
     <g id="text_18">
      <!-- 20 -->
      <g transform="translate(38.775 59.959219) scale(0.1 -0.1)">
       <use xlink:href="#DejaVuSans-32"/>
       <use xlink:href="#DejaVuSans-30" x="63.623047"/>
      </g>
     </g>
    </g>
   </g>
   <g id="patch_19">
    <path d="M 58.5 416.52 
L 58.5 56.16 
" style="fill: none; stroke: #000000; stroke-width: 0.8; stroke-linejoin: miter; stroke-linecap: square"/>
   </g>
   <g id="patch_20">
    <path d="M 421.2 416.52 
L 421.2 56.16 
" style="fill: none; stroke: #000000; stroke-width: 0.8; stroke-linejoin: miter; stroke-linecap: square"/>
   </g>
   <g id="patch_21">
    <path d="M 58.5 416.52 
L 421.2 416.52 
" style="fill: none; stroke: #000000; stroke-width: 0.8; stroke-linejoin: miter; stroke-linecap: square"/>
   </g>
   <g id="patch_22">
    <path d="M 58.5 56.16 
L 421.2 56.16 
" style="fill: none; stroke: #000000; stroke-width: 0.8; stroke-linejoin: miter; stroke-linecap: square"/>
   </g>
   <g id="text_19">
    <!-- non-det -->
    <g style="fill: #800080" transform="translate(217.860937 149.009375) scale(0.1 -0.1)">
     <defs>
      <path id="DejaVuSans-Bold-6e" d="M 4056 2131 
L 4056 0 
L 2931 0 
L 2931 347 
L 2931 1631 
Q 2931 2084 2911 2256 
Q 2891 2428 2841 2509 
Q 2775 2619 2662 2680 
Q 2550 2741 2406 2741 
Q 2056 2741 1856 2470 
Q 1656 2200 1656 1722 
L 1656 0 
L 538 0 
L 538 3500 
L 1656 3500 
L 1656 2988 
Q 1909 3294 2193 3439 
Q 2478 3584 2822 3584 
Q 3428 3584 3742 3212 
Q 4056 2841 4056 2131 
z
" transform="scale(0.015625)"/>
      <path id="DejaVuSans-Bold-6f" d="M 2203 2784 
Q 1831 2784 1636 2517 
Q 1441 2250 1441 1747 
Q 1441 1244 1636 976 
Q 1831 709 2203 709 
Q 2569 709 2762 976 
Q 2956 1244 2956 1747 
Q 2956 2250 2762 2517 
Q 2569 2784 2203 2784 
z
M 2203 3584 
Q 3106 3584 3614 3096 
Q 4122 2609 4122 1747 
Q 4122 884 3614 396 
Q 3106 -91 2203 -91 
Q 1297 -91 786 396 
Q 275 884 275 1747 
Q 275 2609 786 3096 
Q 1297 3584 2203 3584 
z
" transform="scale(0.015625)"/>
      <path id="DejaVuSans-Bold-2d" d="M 347 2297 
L 2309 2297 
L 2309 1388 
L 347 1388 
L 347 2297 
z
" transform="scale(0.015625)"/>
      <path id="DejaVuSans-Bold-64" d="M 2919 2988 
L 2919 4863 
L 4044 4863 
L 4044 0 
L 2919 0 
L 2919 506 
Q 2688 197 2409 53 
Q 2131 -91 1766 -91 
Q 1119 -91 703 423 
Q 288 938 288 1747 
Q 288 2556 703 3070 
Q 1119 3584 1766 3584 
Q 2128 3584 2408 3439 
Q 2688 3294 2919 2988 
z
M 2181 722 
Q 2541 722 2730 984 
Q 2919 1247 2919 1747 
Q 2919 2247 2730 2509 
Q 2541 2772 2181 2772 
Q 1825 2772 1636 2509 
Q 1447 2247 1447 1747 
Q 1447 1247 1636 984 
Q 1825 722 2181 722 
z
" transform="scale(0.015625)"/>
      <path id="DejaVuSans-Bold-65" d="M 4031 1759 
L 4031 1441 
L 1416 1441 
Q 1456 1047 1700 850 
Q 1944 653 2381 653 
Q 2734 653 3104 758 
Q 3475 863 3866 1075 
L 3866 213 
Q 3469 63 3072 -14 
Q 2675 -91 2278 -91 
Q 1328 -91 801 392 
Q 275 875 275 1747 
Q 275 2603 792 3093 
Q 1309 3584 2216 3584 
Q 3041 3584 3536 3087 
Q 4031 2591 4031 1759 
z
M 2881 2131 
Q 2881 2450 2695 2645 
Q 2509 2841 2209 2841 
Q 1884 2841 1681 2658 
Q 1478 2475 1428 2131 
L 2881 2131 
z
" transform="scale(0.015625)"/>
      <path id="DejaVuSans-Bold-74" d="M 1759 4494 
L 1759 3500 
L 2913 3500 
L 2913 2700 
L 1759 2700 
L 1759 1216 
Q 1759 972 1856 886 
Q 1953 800 2241 800 
L 2816 800 
L 2816 0 
L 1856 0 
Q 1194 0 917 276 
Q 641 553 641 1216 
L 641 2700 
L 84 2700 
L 84 3500 
L 641 3500 
L 641 4494 
L 1759 4494 
z
" transform="scale(0.015625)"/>
     </defs>
     <use xlink:href="#DejaVuSans-Bold-6e"/>
     <use xlink:href="#DejaVuSans-Bold-6f" x="71.191406"/>
     <use xlink:href="#DejaVuSans-Bold-6e" x="139.892578"/>
     <use xlink:href="#DejaVuSans-Bold-2d" x="211.083984"/>
     <use xlink:href="#DejaVuSans-Bold-64" x="252.587891"/>
     <use xlink:href="#DejaVuSans-Bold-65" x="324.169922"/>
     <use xlink:href="#DejaVuSans-Bold-74" x="391.992188"/>
    </g>
   </g>
   <g id="text_20">
    <!-- non-det -->
    <g style="fill: #ff0000" transform="translate(308.535937 233.461406) scale(0.1 -0.1)">
     <use xlink:href="#DejaVuSans-Bold-6e"/>
     <use xlink:href="#DejaVuSans-Bold-6f" x="71.191406"/>
     <use xlink:href="#DejaVuSans-Bold-6e" x="139.892578"/>
     <use xlink:href="#DejaVuSans-Bold-2d" x="211.083984"/>
     <use xlink:href="#DejaVuSans-Bold-64" x="252.587891"/>
     <use xlink:href="#DejaVuSans-Bold-65" x="324.169922"/>
     <use xlink:href="#DejaVuSans-Bold-74" x="391.992188"/>
    </g>
    <!-- spiking -->
    <g style="fill: #ff0000" transform="translate(310.078906 244.659219) scale(0.1 -0.1)">
     <defs>
      <path id="DejaVuSans-Bold-73" d="M 3272 3391 
L 3272 2541 
Q 2913 2691 2578 2766 
Q 2244 2841 1947 2841 
Q 1628 2841 1473 2761 
Q 1319 2681 1319 2516 
Q 1319 2381 1436 2309 
Q 1553 2238 1856 2203 
L 2053 2175 
Q 2913 2066 3209 1816 
Q 3506 1566 3506 1031 
Q 3506 472 3093 190 
Q 2681 -91 1863 -91 
Q 1516 -91 1145 -36 
Q 775 19 384 128 
L 384 978 
Q 719 816 1070 734 
Q 1422 653 1784 653 
Q 2113 653 2278 743 
Q 2444 834 2444 1013 
Q 2444 1163 2330 1236 
Q 2216 1309 1875 1350 
L 1678 1375 
Q 931 1469 631 1722 
Q 331 1975 331 2491 
Q 331 3047 712 3315 
Q 1094 3584 1881 3584 
Q 2191 3584 2531 3537 
Q 2872 3491 3272 3391 
z
" transform="scale(0.015625)"/>
      <path id="DejaVuSans-Bold-70" d="M 1656 506 
L 1656 -1331 
L 538 -1331 
L 538 3500 
L 1656 3500 
L 1656 2988 
Q 1888 3294 2169 3439 
Q 2450 3584 2816 3584 
Q 3463 3584 3878 3070 
Q 4294 2556 4294 1747 
Q 4294 938 3878 423 
Q 3463 -91 2816 -91 
Q 2450 -91 2169 54 
Q 1888 200 1656 506 
z
M 2400 2772 
Q 2041 2772 1848 2508 
Q 1656 2244 1656 1747 
Q 1656 1250 1848 986 
Q 2041 722 2400 722 
Q 2759 722 2948 984 
Q 3138 1247 3138 1747 
Q 3138 2247 2948 2509 
Q 2759 2772 2400 2772 
z
" transform="scale(0.015625)"/>
      <path id="DejaVuSans-Bold-69" d="M 538 3500 
L 1656 3500 
L 1656 0 
L 538 0 
L 538 3500 
z
M 538 4863 
L 1656 4863 
L 1656 3950 
L 538 3950 
L 538 4863 
z
" transform="scale(0.015625)"/>
      <path id="DejaVuSans-Bold-6b" d="M 538 4863 
L 1656 4863 
L 1656 2216 
L 2944 3500 
L 4244 3500 
L 2534 1894 
L 4378 0 
L 3022 0 
L 1656 1459 
L 1656 0 
L 538 0 
L 538 4863 
z
" transform="scale(0.015625)"/>
      <path id="DejaVuSans-Bold-67" d="M 2919 594 
Q 2688 288 2409 144 
Q 2131 0 1766 0 
Q 1125 0 706 504 
Q 288 1009 288 1791 
Q 288 2575 706 3076 
Q 1125 3578 1766 3578 
Q 2131 3578 2409 3434 
Q 2688 3291 2919 2981 
L 2919 3500 
L 4044 3500 
L 4044 353 
Q 4044 -491 3511 -936 
Q 2978 -1381 1966 -1381 
Q 1638 -1381 1331 -1331 
Q 1025 -1281 716 -1178 
L 716 -306 
Q 1009 -475 1290 -558 
Q 1572 -641 1856 -641 
Q 2406 -641 2662 -400 
Q 2919 -159 2919 353 
L 2919 594 
z
M 2181 2772 
Q 1834 2772 1640 2515 
Q 1447 2259 1447 1791 
Q 1447 1309 1634 1061 
Q 1822 813 2181 813 
Q 2531 813 2725 1069 
Q 2919 1325 2919 1791 
Q 2919 2259 2725 2515 
Q 2531 2772 2181 2772 
z
" transform="scale(0.015625)"/>
     </defs>
     <use xlink:href="#DejaVuSans-Bold-73"/>
     <use xlink:href="#DejaVuSans-Bold-70" x="59.521484"/>
     <use xlink:href="#DejaVuSans-Bold-69" x="131.103516"/>
     <use xlink:href="#DejaVuSans-Bold-6b" x="165.380859"/>
     <use xlink:href="#DejaVuSans-Bold-69" x="231.884766"/>
     <use xlink:href="#DejaVuSans-Bold-6e" x="266.162109"/>
     <use xlink:href="#DejaVuSans-Bold-67" x="337.353516"/>
    </g>
   </g>
   <g id="text_21">
    <!-- det -->
    <g style="fill: #008000" transform="translate(230.489844 323.551406) scale(0.1 -0.1)">
     <use xlink:href="#DejaVuSans-Bold-64"/>
     <use xlink:href="#DejaVuSans-Bold-65" x="71.582031"/>
     <use xlink:href="#DejaVuSans-Bold-74" x="139.404297"/>
    </g>
    <!-- spiking -->
    <g style="fill: #008000" transform="translate(219.403906 334.749219) scale(0.1 -0.1)">
     <use xlink:href="#DejaVuSans-Bold-73"/>
     <use xlink:href="#DejaVuSans-Bold-70" x="59.521484"/>
     <use xlink:href="#DejaVuSans-Bold-69" x="131.103516"/>
     <use xlink:href="#DejaVuSans-Bold-6b" x="165.380859"/>
     <use xlink:href="#DejaVuSans-Bold-69" x="231.884766"/>
     <use xlink:href="#DejaVuSans-Bold-6e" x="266.162109"/>
     <use xlink:href="#DejaVuSans-Bold-67" x="337.353516"/>
    </g>
   </g>
   <g id="text_22">
    <!-- det non- -->
    <g style="fill: #0000ff" transform="translate(125.445312 233.461406) scale(0.1 -0.1)">
     <defs>
      <path id="DejaVuSans-Bold-20" transform="scale(0.015625)"/>
     </defs>
     <use xlink:href="#DejaVuSans-Bold-64"/>
     <use xlink:href="#DejaVuSans-Bold-65" x="71.582031"/>
     <use xlink:href="#DejaVuSans-Bold-74" x="139.404297"/>
     <use xlink:href="#DejaVuSans-Bold-20" x="187.207031"/>
     <use xlink:href="#DejaVuSans-Bold-6e" x="222.021484"/>
     <use xlink:href="#DejaVuSans-Bold-6f" x="293.212891"/>
     <use xlink:href="#DejaVuSans-Bold-6e" x="361.914062"/>
     <use xlink:href="#DejaVuSans-Bold-2d" x="433.105469"/>
    </g>
    <!-- spiking -->
    <g style="fill: #0000ff" transform="translate(128.728906 244.659219) scale(0.1 -0.1)">
     <use xlink:href="#DejaVuSans-Bold-73"/>
     <use xlink:href="#DejaVuSans-Bold-70" x="59.521484"/>
     <use xlink:href="#DejaVuSans-Bold-69" x="131.103516"/>
     <use xlink:href="#DejaVuSans-Bold-6b" x="165.380859"/>
     <use xlink:href="#DejaVuSans-Bold-69" x="231.884766"/>
     <use xlink:href="#DejaVuSans-Bold-6e" x="266.162109"/>
     <use xlink:href="#DejaVuSans-Bold-67" x="337.353516"/>
    </g>
   </g>
  </g>
 </g>
 <defs>
  <clipPath id="p1afc1e2b87">
   <rect x="58.5" y="56.16" width="362.7" height="360.36"/>
  </clipPath>
 </defs>
</svg>
